<svg width="165" height="165" viewBox="0 0 165 165" fill="none" xmlns="http://www.w3.org/2000/svg">
<g clip-path="url(#clip0_1_125)">
<path d="M64.3663 133.844H57.9686C57.2279 133.844 56.6273 134.444 56.6273 135.185C56.6273 135.925 57.2279 136.526 57.9686 136.526H64.3663C65.107 136.526 65.7075 135.925 65.7075 135.185C65.7075 134.444 65.107 133.844 64.3663 133.844Z" fill="url(#paint0_linear_1_125)"/>
<path d="M88.522 125.474C87.8329 125.202 87.054 125.54 86.782 126.23C86.7807 126.233 86.7797 126.236 86.7783 126.239C84.9858 130.811 80.5838 133.825 75.6729 133.844H71.4748C70.7341 133.844 70.1335 134.444 70.1335 135.185C70.1335 135.926 70.7341 136.526 71.4748 136.526H75.646C81.6763 136.473 87.0671 132.755 89.2596 127.138C89.485 126.476 89.1637 125.752 88.522 125.474Z" fill="url(#paint1_linear_1_125)"/>
<path d="M164.409 44.2218L163.953 41.3247C163.658 39.0271 162.032 37.1216 159.809 36.4694L159.38 33.7869C159.082 31.3579 157.179 29.4376 154.753 29.1194L153.411 24.13C152.848 21.9169 150.42 20.3745 147.523 20.3745H96.8243C93.9272 20.3745 91.4594 21.9169 90.9363 24.13L89.595 29.1194C87.1687 29.4379 85.2652 31.3579 84.9678 33.7869L84.5386 36.4694C82.3208 37.1259 80.7006 39.0305 80.4075 41.3247L79.9515 44.2218C79.8402 44.9541 80.3438 45.6378 81.0761 45.7491C81.1479 45.7598 81.2203 45.7649 81.2928 45.7642H83.8277L85.9871 64.2063H83.707C82.9663 64.2019 82.3621 64.7988 82.3577 65.5395C82.3574 65.5914 82.36 65.6434 82.3657 65.695L83.8411 78.8929H21.1783C20.4376 78.8929 19.8371 79.4934 19.8371 80.2341V85.4113H17.1546C7.68208 85.4408 0.0148757 93.1201 0.00012207 102.593V113.779C0.0074989 123.264 7.69549 130.952 17.1814 130.96H21.2051C24.1646 138.821 31.6772 144.032 40.0764 144.05H77.3227C84.1851 144.031 90.5691 140.531 94.276 134.756L95.0405 141.354C95.1159 142.037 95.695 142.552 96.3817 142.548H147.979C148.666 142.552 149.245 142.037 149.321 141.354L152.58 113.577H155.182C155.864 113.582 156.441 113.074 156.523 112.397L162.035 65.7085C162.124 64.9731 161.6 64.3048 160.865 64.216C160.808 64.2093 160.751 64.2059 160.694 64.2063H158.374L160.533 45.7642H163.068C163.809 45.7726 164.416 45.1791 164.425 44.4384C164.426 44.3656 164.42 44.2932 164.409 44.2218ZM17.1546 128.277C9.1608 128.255 2.68998 121.772 2.6826 113.779V102.593C2.68998 94.5881 9.1769 88.1011 17.1814 88.0938H19.8639V93.7806H17.1814C12.3409 93.8175 8.43653 97.7521 8.43653 102.593V113.779C8.43653 118.64 12.3737 122.583 17.2351 122.59H19.9176V123.851C19.9219 125.341 20.0929 126.825 20.4272 128.277H17.1546ZM19.9176 96.4631L19.8371 119.908H17.1546C13.8062 119.857 11.1187 117.127 11.119 113.779V102.593C11.119 99.2127 13.8551 96.4705 17.2351 96.4631H19.9176ZM93.5383 24.8006C94.1526 23.5771 95.4636 22.8655 96.8243 23.0168L96.7707 23.057H147.523C148.878 22.9007 150.189 23.5935 150.823 24.8006L151.923 29.0792H92.4385L93.5383 24.8006ZM87.61 34.2027C87.7066 32.8742 88.7628 31.818 90.0913 31.7214L90.0645 31.7616H154.283C155.577 31.8803 156.599 32.9087 156.711 34.2027L157.033 36.3353H87.2881L87.61 34.2027ZM94.8393 123.851C94.8245 133.519 86.9907 141.353 77.3227 141.368H77.2959H40.0228C30.3833 141.316 22.594 133.491 22.5866 123.851V81.5753H40.1032V97.4154H32.3106C31.5699 97.4154 30.9694 98.0159 30.9694 98.7566V117.065C30.9694 117.805 31.5699 118.406 32.3106 118.406H50.5649C51.3056 118.406 51.9062 117.805 51.9062 117.065V98.7566C51.9062 98.0159 51.3056 97.4154 50.5649 97.4154H42.7857V81.5753H94.8393V123.851ZM49.1298 100.098V115.723H33.6519V100.098H49.1298ZM146.812 139.866H97.6022L96.4622 130.236C97.1576 128.178 97.5154 126.023 97.5218 123.851V113.577H149.83L146.812 139.866ZM159.205 66.8753L154.001 110.895H148.046L148.999 103.558C149.094 102.825 148.578 102.153 147.845 102.056C147.11 101.962 146.438 102.481 146.344 103.216C146.344 103.218 146.343 103.221 146.343 103.223L145.337 110.895H97.5218V80.2341C97.5218 79.4934 96.9212 78.8929 96.1805 78.8929H86.537L85.1958 66.8888H150.984L147.255 95.6986C147.16 96.4316 147.676 97.1036 148.408 97.2008H148.583C149.26 97.2065 149.836 96.7059 149.924 96.0339L153.706 66.8753H159.205ZM86.5638 45.7642H157.837L155.678 64.2063H88.7366L86.5638 45.7642ZM82.9022 43.0817L83.1168 41.7405C83.2205 40.2899 84.3525 39.1237 85.7993 38.9775H158.468C159.983 39.0463 161.212 40.2292 161.338 41.7405L161.539 43.0817H82.9022Z" fill="url(#paint2_linear_1_125)"/>
<path d="M129.926 81.7095C127.043 78.8258 121.396 79.9659 117.077 84.3115C112.718 88.6571 111.578 94.3306 114.395 97.2276C115.52 98.2976 117.027 98.8727 118.579 98.8237C121.924 98.5957 125.055 97.0932 127.324 94.6256C131.67 90.2666 132.81 84.5931 129.926 81.7095ZM125.46 92.7211H125.487C122.912 95.3097 119.679 96.557 117.6 95.9803L121.879 91.7151C122.399 91.192 122.399 90.3471 121.879 89.824C121.357 89.2982 120.508 89.2945 119.982 89.8163C119.979 89.8189 119.977 89.8213 119.974 89.824L115.736 94.0891C115.173 92.0102 116.407 88.7242 118.995 86.2026C120.773 84.2548 123.211 83.0363 125.835 82.7825C126.194 82.7818 126.551 82.8314 126.895 82.93L124.213 85.6125C123.687 86.1342 123.683 86.9832 124.205 87.5093C124.208 87.512 124.21 87.5147 124.213 87.517C124.462 87.7648 124.8 87.9047 125.151 87.906C125.508 87.908 125.851 87.7682 126.104 87.517L128.786 84.8346C129.282 86.9135 128.048 90.1459 125.46 92.7211Z" fill="url(#paint3_linear_1_125)"/>
<path d="M122.201 72.2134C112.667 72.2134 104.939 79.9416 104.939 89.4751C104.939 99.0087 112.667 106.737 122.201 106.737C131.734 106.737 139.463 99.0087 139.463 89.4751C139.463 89.4708 139.463 89.4661 139.463 89.4617C139.448 79.9366 131.726 72.2208 122.201 72.2134ZM122.201 104.041C114.149 104.041 107.621 97.5135 107.621 89.4617C107.621 81.4099 114.149 74.8824 122.201 74.8824C130.253 74.8824 136.78 81.4099 136.78 89.4617C136.773 97.5105 130.25 104.034 122.201 104.041Z" fill="url(#paint4_linear_1_125)"/>
<path d="M54.3874 51.9876C54.366 51.9313 54.3392 51.8776 54.307 51.8267L53.9851 51.4243L53.8241 51.2097C52.4222 49.4523 51.7884 47.2037 52.0671 44.9729C52.3186 42.7263 53.4583 40.6736 55.2324 39.2726C55.8118 38.816 55.9138 37.977 55.4604 37.3949C55.0054 36.8101 54.1628 36.7052 53.5783 37.1599C53.5753 37.1622 53.5723 37.1645 53.5693 37.1669C48.7331 40.975 47.8995 47.9827 51.7076 52.8188C51.7113 52.8235 51.7147 52.8279 51.7184 52.8326L51.8793 53.0472C54.7841 56.7279 54.1547 62.0667 50.474 64.9715C50.4687 64.9759 50.4633 64.9802 50.4576 64.9842L49.8406 65.4671C49.2595 65.9265 49.161 66.7701 49.6203 67.3512C49.6223 67.3535 49.624 67.3559 49.626 67.3582C49.8792 67.6785 50.2641 67.8659 50.6722 67.8679C50.9746 67.8662 51.2677 67.7623 51.5038 67.5728L52.1207 67.09C56.742 63.4418 57.7342 56.8315 54.3874 51.9876Z" fill="url(#paint5_linear_1_125)"/>
<path d="M38.9901 53.1944C38.9405 53.084 38.8775 52.9804 38.8023 52.8859L38.4536 52.5103C36.5098 50.4247 36.6238 47.1588 38.7085 45.214C39.1551 44.6232 39.0384 43.7819 38.4476 43.3352C37.9889 42.9885 37.3602 42.9728 36.8844 43.296C33.7237 46.2541 33.544 51.209 36.482 54.3881L36.6027 54.5088C37.5174 55.5194 37.9989 56.8486 37.9439 58.2106C37.8987 59.5817 37.3042 60.877 36.2942 61.8051L35.9589 62.1673C35.4147 62.6699 35.3808 63.5182 35.8831 64.0624C35.8861 64.0655 35.8888 64.0685 35.8918 64.0718C36.4149 64.5919 37.2599 64.5919 37.783 64.0718L38.1585 63.7231C41.122 60.9591 41.4831 56.3892 38.9901 53.1944Z" fill="url(#paint6_linear_1_125)"/>
<path d="M69.7043 53.1946C69.6547 53.0843 69.5916 52.9807 69.5165 52.8861L69.1678 52.5106C67.224 50.4249 67.338 47.159 69.4226 45.2142C69.9524 44.6921 69.9581 43.8394 69.436 43.3096C68.9139 42.7798 68.0613 42.7741 67.5315 43.2962C64.3708 46.2543 64.1911 51.2092 67.1291 54.3883L67.2498 54.509C68.1645 55.5196 68.646 56.8488 68.591 58.2108C68.5448 59.5789 67.9563 60.8722 66.9547 61.8054L66.606 62.1675C66.0802 62.6892 66.0766 63.5382 66.5983 64.0643C66.601 64.067 66.6033 64.0697 66.606 64.072C67.1291 64.5921 67.9741 64.5921 68.4972 64.072L68.8861 63.7233C71.8395 60.9527 72.194 56.3881 69.7043 53.1946Z" fill="url(#paint7_linear_1_125)"/>
</g>
<defs>
<linearGradient id="paint0_linear_1_125" x1="61.1674" y1="133.844" x2="61.1674" y2="136.526" gradientUnits="userSpaceOnUse">
<stop stop-color="#FEBB74"/>
<stop offset="1" stop-color="#EA906C"/>
</linearGradient>
<linearGradient id="paint1_linear_1_125" x1="79.7325" y1="125.38" x2="79.7325" y2="136.526" gradientUnits="userSpaceOnUse">
<stop stop-color="#FEBB74"/>
<stop offset="1" stop-color="#EA906C"/>
</linearGradient>
<linearGradient id="paint2_linear_1_125" x1="82.2124" y1="20.3745" x2="82.2124" y2="144.05" gradientUnits="userSpaceOnUse">
<stop stop-color="#FEBB74"/>
<stop offset="1" stop-color="#EA906C"/>
</linearGradient>
<linearGradient id="paint3_linear_1_125" x1="122.186" y1="80.1196" x2="122.186" y2="98.8266" gradientUnits="userSpaceOnUse">
<stop stop-color="#FEBB74"/>
<stop offset="1" stop-color="#EA906C"/>
</linearGradient>
<linearGradient id="paint4_linear_1_125" x1="122.201" y1="72.2134" x2="122.201" y2="106.737" gradientUnits="userSpaceOnUse">
<stop stop-color="#FEBB74"/>
<stop offset="1" stop-color="#EA906C"/>
</linearGradient>
<linearGradient id="paint5_linear_1_125" x1="52.8423" y1="36.8772" x2="52.8423" y2="67.8679" gradientUnits="userSpaceOnUse">
<stop stop-color="#FEBB74"/>
<stop offset="1" stop-color="#EA906C"/>
</linearGradient>
<linearGradient id="paint6_linear_1_125" x1="37.518" y1="43.064" x2="37.518" y2="64.4619" gradientUnits="userSpaceOnUse">
<stop stop-color="#FEBB74"/>
<stop offset="1" stop-color="#EA906C"/>
</linearGradient>
<linearGradient id="paint7_linear_1_125" x1="68.199" y1="42.9084" x2="68.199" y2="64.4621" gradientUnits="userSpaceOnUse">
<stop stop-color="#FEBB74"/>
<stop offset="1" stop-color="#EA906C"/>
</linearGradient>
<clipPath id="clip0_1_125">
<rect width="164.424" height="164.424" fill="white"/>
</clipPath>
</defs>
</svg>
