<svg width="129" height="129" viewBox="0 0 129 129" fill="none" xmlns="http://www.w3.org/2000/svg">
<path d="M33.5129 89.2547C31.0326 88.8033 29.2105 87.6419 28.0983 85.8025C27.5804 84.9522 27.2439 84.0042 27.1093 83.0168C27.0297 82.0089 26.1523 81.2546 25.1435 81.3285C24.1364 81.4015 23.3764 82.274 23.4429 83.2827C23.6029 84.7798 24.0798 86.2244 24.8431 87.522C25.9897 89.5067 28.3117 92.0461 32.8547 92.8718C33.5047 92.9982 34.172 92.7643 34.6013 92.2612C35.0322 91.758 35.1586 91.062 34.9329 90.4407C34.7072 89.8177 34.1646 89.3655 33.5113 89.2547H33.5129Z" fill="url(#paint0_linear_1_150)"/>
<path d="M37.7983 21.8535L32.9467 23.4713C31.7763 20.7586 28.8092 19.2976 25.9447 20.0224C23.0811 20.7471 21.1662 23.4434 21.4272 26.3866C21.6866 29.3291 24.0446 31.6478 26.9912 31.8587C29.9378 32.0705 32.602 30.1121 33.2791 27.2353L38.9613 25.341C39.9249 25.0201 40.4453 23.9793 40.1244 23.0166C39.8026 22.053 38.7619 21.5318 37.7983 21.8535ZM27.4246 28.1973C26.1319 28.1973 25.0829 27.15 25.0829 25.8564C25.0829 24.5637 26.1319 23.5156 27.4246 23.5156C28.7181 23.5164 29.7654 24.5637 29.7654 25.8572C29.7646 27.1491 28.7173 28.1964 27.4246 28.1973Z" fill="url(#paint1_linear_1_150)"/>
<path d="M60.9726 117.38H51.9335C50.9059 113.486 50.7663 109.411 51.5247 105.457L52.1764 102.189C62.2489 98.1807 69.2419 88.8855 70.3023 78.0973C72.9034 77.9421 74.9274 75.7761 74.9085 73.1702V72.5833C74.9266 71.2955 74.4243 70.0545 73.514 69.1435C72.603 68.2316 71.3636 67.7268 70.0766 67.7424H52.3217V55.1362H58.4873C64.4954 55.1362 69.3716 50.2772 69.3929 44.27V17.5801H70.0766C72.7967 17.5801 74.9085 15.3156 74.9085 12.5956V12.0087C74.9299 10.7111 74.4308 9.45856 73.5231 8.53191C72.6153 7.60444 71.3743 7.07914 70.0766 7.07422H13.01C10.2891 7.07422 8.19944 9.28866 8.19944 12.0087V12.5956C8.19944 15.3156 10.2891 17.5801 13.01 17.5801H13.715V44.27C13.7273 50.2731 18.5962 55.1337 24.6001 55.1362H30.7863V67.7424H13.01C11.7247 67.7285 10.4878 68.234 9.58162 69.1459C8.67549 70.0578 8.17728 71.298 8.19944 72.5833V73.1702C8.17482 75.7728 10.1972 77.938 12.7958 78.0907C13.8636 88.8814 20.8648 98.1725 30.9422 102.176L31.5767 105.459C32.3301 109.414 32.1857 113.487 31.154 117.38H22.114C21.0995 117.38 20.2755 118.203 20.2755 119.218C20.2755 120.234 21.0995 121.056 22.114 121.056H60.9726C61.9879 121.056 62.8112 120.234 62.8112 119.218C62.8112 118.203 61.9879 117.38 60.9726 117.38ZM71.4941 12.6464C71.4941 13.3408 70.9319 13.903 70.2375 13.903H13.1331C12.4387 13.903 11.8765 13.3408 11.8765 12.6464V12.0087C11.8765 11.3143 12.4387 10.7513 13.1331 10.7513H70.2375C70.9319 10.7513 71.4941 11.3143 71.4941 12.0087V12.6464ZM17.3921 44.27V17.5801H65.7159V44.27C65.697 48.2474 62.4664 51.4616 58.4873 51.4591H24.6001C20.6251 51.4599 17.4011 48.2441 17.3921 44.27ZM34.4633 55.1362H48.6454V67.7424H34.4633V55.1362ZM71.4941 73.3138C71.4941 74.009 70.9319 74.5712 70.2375 74.5712H13.1331C12.4395 74.5712 11.8765 74.009 11.8765 73.3138V72.6761C11.8765 71.9825 12.4395 71.4195 13.1331 71.4195H70.2375C70.9319 71.4195 71.4941 71.9825 71.4941 72.6761V73.3138ZM16.4334 77.9848H66.654C65.2012 90.7552 54.3966 100.403 41.5441 100.403C28.6908 100.403 17.8862 90.7552 16.4334 77.9848ZM35.1675 104.736L34.9123 103.444C39.2755 104.462 43.8144 104.459 48.1751 103.434L47.9199 104.738C47.1163 108.922 47.1935 113.227 48.1448 117.38H34.9427C35.8939 113.227 35.9703 108.921 35.1675 104.736Z" fill="url(#paint2_linear_1_150)"/>
<path d="M100.909 112.89V112.306C100.886 108.418 99.315 104.699 96.5408 101.975C95.166 100.601 93.5245 99.5229 91.7171 98.8063V96.5279C91.7278 96.0576 91.5448 95.6053 91.2091 95.2762C90.8734 94.9479 90.417 94.7731 89.9484 94.7936H88.0401V50.934C88.0401 49.9195 87.2169 49.0955 86.2016 49.0955C85.1854 49.0955 84.363 49.9195 84.363 50.934V94.7936H82.4342C81.9672 94.7739 81.5133 94.9495 81.1817 95.2787C80.8493 95.607 80.6696 96.0609 80.686 96.5279V98.8031C75.1523 101.004 71.5122 106.349 71.4941 112.306V112.888C69.3815 113.068 67.7637 114.844 67.7802 116.963C67.8031 119.23 69.6474 121.058 71.9144 121.057H100.467C102.736 121.059 104.584 119.234 104.612 116.964C104.634 114.848 103.019 113.071 100.909 112.89ZM75.1712 112.306C75.1884 107.484 78.3574 103.24 82.9759 101.854C83.768 101.625 84.3253 100.918 84.363 100.097V98.4706H88.0401V100.096C88.0557 100.909 88.5941 101.62 89.3738 101.853C91.0983 102.378 92.6709 103.312 93.9587 104.576C96.0344 106.614 97.2139 109.397 97.2319 112.306V112.653H75.1712V112.306ZM100.467 117.38H71.9144C71.6969 117.38 71.5204 117.204 71.5204 116.986C71.5204 116.769 71.6969 116.592 71.9144 116.592H100.467C100.684 116.592 100.861 116.769 100.861 116.986C100.861 117.204 100.684 117.38 100.467 117.38Z" fill="url(#paint3_linear_1_150)"/>
<path d="M102.848 72.459L98.2457 75.1151C97.3666 75.6231 97.0646 76.7476 97.5726 77.6266C98.0807 78.5057 99.2051 78.8077 100.084 78.2996L104.686 75.6436C105.565 75.1356 105.867 74.0111 105.359 73.1321C104.851 72.2522 103.727 71.951 102.848 72.459Z" fill="url(#paint4_linear_1_150)"/>
<path d="M123.01 75.1151L118.408 72.459C117.529 71.951 116.404 72.2522 115.896 73.1321C115.388 74.0111 115.69 75.1356 116.569 75.6436L121.171 78.3005C122.051 78.8077 123.175 78.5073 123.683 77.6274C124.19 76.7476 123.889 75.6231 123.01 75.1167V75.1151Z" fill="url(#paint5_linear_1_150)"/>
<path d="M104.123 67.2168H98.8103C97.7942 67.2168 96.9718 68.0409 96.9718 69.0553C96.9718 70.0706 97.7942 70.8939 98.8103 70.8939H104.123C105.138 70.8939 105.962 70.0706 105.962 69.0553C105.962 68.0409 105.138 67.2168 104.123 67.2168Z" fill="url(#paint6_linear_1_150)"/>
<path d="M122.447 67.2168H117.132C116.117 67.2168 115.294 68.0409 115.294 69.0553C115.294 70.0706 116.117 70.8939 117.132 70.8939H122.447C123.461 70.8939 124.285 70.0706 124.285 69.0553C124.285 68.0409 123.461 67.2168 122.447 67.2168Z" fill="url(#paint7_linear_1_150)"/>
<path d="M105.881 62.4876L101.28 59.9514C100.391 59.4614 99.2725 59.7856 98.7825 60.6745C98.2933 61.5634 98.6159 62.6813 99.5056 63.1721L104.108 65.7075C104.997 66.1975 106.115 65.8741 106.605 64.9844C107.095 64.0955 106.771 62.9768 105.881 62.4876Z" fill="url(#paint8_linear_1_150)"/>
<path d="M117.148 65.7074L121.75 63.1721C122.631 62.6771 122.948 61.5658 122.46 60.6819C121.972 59.7979 120.864 59.4712 119.975 59.9514L115.374 62.4876C114.485 62.9767 114.16 64.0954 114.651 64.9843C115.141 65.8741 116.26 66.1974 117.148 65.7074Z" fill="url(#paint9_linear_1_150)"/>
<path d="M115.453 60.9577L118.11 56.5657C118.458 56.0035 118.478 55.2976 118.161 54.7174C117.845 54.1363 117.239 53.7702 116.579 53.7595C115.917 53.7488 115.301 54.0936 114.964 54.6632L112.308 59.0551C111.782 59.9235 112.061 61.0545 112.929 61.5798C113.798 62.1051 114.928 61.8269 115.453 60.9577Z" fill="url(#paint10_linear_1_150)"/>
<path d="M108.949 59.0553L106.293 54.6641C105.762 53.8072 104.641 53.538 103.779 54.0584C102.917 54.5812 102.636 55.6991 103.147 56.5675L105.803 60.9594C106.335 61.8147 107.456 62.0847 108.318 61.5635C109.18 61.0415 109.462 59.9228 108.95 59.0561L108.949 59.0553Z" fill="url(#paint11_linear_1_150)"/>
<path d="M108.788 52.2863V57.357C108.788 58.3723 109.611 59.1955 110.626 59.1955C111.642 59.1955 112.465 58.3723 112.465 57.357V52.2863C112.465 51.2702 111.642 50.4478 110.626 50.4478C109.611 50.4478 108.788 51.2702 108.788 52.2863Z" fill="url(#paint12_linear_1_150)"/>
<path d="M110.626 64.5405C109.611 64.5405 108.788 65.3629 108.788 66.3791V119.218C108.788 120.234 109.611 121.056 110.626 121.056C111.642 121.056 112.465 120.234 112.465 119.218V66.3791C112.465 65.3629 111.642 64.5405 110.626 64.5405Z" fill="url(#paint13_linear_1_150)"/>
<path d="M21.9861 105.337C22.3637 104.464 22.0124 103.447 21.1777 102.993C18.2672 101.407 16.9056 97.9696 17.9405 94.8212C18.2401 93.9175 17.7994 92.9342 16.9253 92.5558C16.0511 92.1783 15.0326 92.5304 14.5787 93.3684C12.9946 96.278 9.55718 97.6405 6.4087 96.6063C5.50503 96.3068 4.52174 96.7467 4.14337 97.6216C3.76581 98.4958 4.11792 99.5135 4.95511 99.9682C7.86557 101.553 9.22805 104.991 8.19306 108.138C7.89348 109.042 8.33423 110.025 9.20835 110.404C10.0825 110.781 11.1002 110.429 11.5533 109.592C13.1382 106.681 16.5764 105.318 19.7241 106.353C20.6278 106.65 21.6086 106.209 21.9861 105.337ZM12.008 103.926C11.7585 102.683 11.289 101.496 10.6201 100.421C11.8611 100.173 13.0479 99.7023 14.1231 99.0334C14.3727 100.275 14.843 101.462 15.5127 102.537C14.2701 102.786 13.0832 103.257 12.008 103.926Z" fill="url(#paint14_linear_1_150)"/>
<path d="M76.1989 35.032C77.0607 35.4325 78.0859 35.1092 78.5627 34.2876C79.8727 32.0255 82.6116 31.0234 85.0723 31.9065C85.9677 32.2274 86.96 31.8129 87.3598 30.9503C87.7611 30.0877 87.4369 29.0617 86.6137 28.584C84.3533 27.2741 83.3519 24.5352 84.2326 22.0753C84.5544 21.1807 84.1399 20.1883 83.2764 19.787C82.4138 19.3873 81.3895 19.7107 80.9118 20.5331C79.6018 22.7943 76.8629 23.7965 74.4022 22.9141C73.5068 22.594 72.5161 23.0085 72.1156 23.8712C71.715 24.733 72.0376 25.7581 72.86 26.235C75.1221 27.5466 76.1234 30.2847 75.2411 32.7453C74.921 33.64 75.3363 34.6323 76.1989 35.032ZM80.4538 25.8681C80.6278 26.6536 80.906 27.4136 81.2795 28.1269C80.4932 28.3017 79.734 28.5791 79.0215 28.9526C78.8467 28.1671 78.5685 27.4079 78.195 26.6946C78.9813 26.519 79.7414 26.2424 80.4546 25.8681H80.4538Z" fill="url(#paint15_linear_1_150)"/>
<path d="M85.44 46.595C86.3018 46.9956 87.3269 46.6722 87.8038 45.8506C89.1137 43.5885 91.8535 42.5864 94.3133 43.4679C95.2088 43.788 96.2003 43.3735 96.6 42.5125C97.0014 41.6491 96.678 40.6247 95.8564 40.147C93.5943 38.8371 92.593 36.0982 93.4745 33.6383C93.7946 32.7437 93.3801 31.7514 92.5183 31.3516C91.6557 30.9511 90.6305 31.2737 90.1537 32.0961C88.8429 34.3573 86.104 35.3587 83.6441 34.4771C82.7495 34.1562 81.7572 34.5707 81.3566 35.4333C80.9561 36.2952 81.2795 37.3211 82.1011 37.798C84.3631 39.1079 85.3645 41.8477 84.483 44.3075C84.162 45.203 84.5773 46.1953 85.44 46.595ZM89.6957 37.4295C89.8705 38.2158 90.1479 38.975 90.523 39.6874C89.7359 39.8622 88.9767 40.1405 88.2634 40.5147C88.0894 39.7276 87.8112 38.9684 87.4377 38.256C88.224 38.0812 88.9841 37.8046 89.6965 37.4311L89.6957 37.4295Z" fill="url(#paint16_linear_1_150)"/>
<defs>
<linearGradient id="paint0_linear_1_150" x1="29.2409" y1="81.3235" x2="29.2409" y2="92.9056" gradientUnits="userSpaceOnUse">
<stop stop-color="#FEBB74"/>
<stop offset="1" stop-color="#EA906C"/>
</linearGradient>
<linearGradient id="paint1_linear_1_150" x1="30.8113" y1="19.8376" x2="30.8113" y2="31.8744" gradientUnits="userSpaceOnUse">
<stop stop-color="#FEBB74"/>
<stop offset="1" stop-color="#EA906C"/>
</linearGradient>
<linearGradient id="paint2_linear_1_150" x1="41.554" y1="7.07422" x2="41.554" y2="121.056" gradientUnits="userSpaceOnUse">
<stop stop-color="#FEBB74"/>
<stop offset="1" stop-color="#EA906C"/>
</linearGradient>
<linearGradient id="paint3_linear_1_150" x1="86.1963" y1="49.0955" x2="86.1963" y2="121.057" gradientUnits="userSpaceOnUse">
<stop stop-color="#FEBB74"/>
<stop offset="1" stop-color="#EA906C"/>
</linearGradient>
<linearGradient id="paint4_linear_1_150" x1="101.466" y1="72.2122" x2="101.466" y2="78.5463" gradientUnits="userSpaceOnUse">
<stop stop-color="#FEBB74"/>
<stop offset="1" stop-color="#EA906C"/>
</linearGradient>
<linearGradient id="paint5_linear_1_150" x1="119.79" y1="72.2122" x2="119.79" y2="78.547" gradientUnits="userSpaceOnUse">
<stop stop-color="#FEBB74"/>
<stop offset="1" stop-color="#EA906C"/>
</linearGradient>
<linearGradient id="paint6_linear_1_150" x1="101.467" y1="67.2168" x2="101.467" y2="70.8939" gradientUnits="userSpaceOnUse">
<stop stop-color="#FEBB74"/>
<stop offset="1" stop-color="#EA906C"/>
</linearGradient>
<linearGradient id="paint7_linear_1_150" x1="119.79" y1="67.2168" x2="119.79" y2="70.8939" gradientUnits="userSpaceOnUse">
<stop stop-color="#FEBB74"/>
<stop offset="1" stop-color="#EA906C"/>
</linearGradient>
<linearGradient id="paint8_linear_1_150" x1="102.694" y1="59.7229" x2="102.694" y2="65.9361" gradientUnits="userSpaceOnUse">
<stop stop-color="#FEBB74"/>
<stop offset="1" stop-color="#EA906C"/>
</linearGradient>
<linearGradient id="paint9_linear_1_150" x1="118.555" y1="59.73" x2="118.555" y2="65.9361" gradientUnits="userSpaceOnUse">
<stop stop-color="#FEBB74"/>
<stop offset="1" stop-color="#EA906C"/>
</linearGradient>
<linearGradient id="paint10_linear_1_150" x1="115.214" y1="53.7593" x2="115.214" y2="61.8453" gradientUnits="userSpaceOnUse">
<stop stop-color="#FEBB74"/>
<stop offset="1" stop-color="#EA906C"/>
</linearGradient>
<linearGradient id="paint11_linear_1_150" x1="106.049" y1="53.7935" x2="106.049" y2="61.8289" gradientUnits="userSpaceOnUse">
<stop stop-color="#FEBB74"/>
<stop offset="1" stop-color="#EA906C"/>
</linearGradient>
<linearGradient id="paint12_linear_1_150" x1="110.626" y1="50.4478" x2="110.626" y2="59.1955" gradientUnits="userSpaceOnUse">
<stop stop-color="#FEBB74"/>
<stop offset="1" stop-color="#EA906C"/>
</linearGradient>
<linearGradient id="paint13_linear_1_150" x1="110.626" y1="64.5405" x2="110.626" y2="121.056" gradientUnits="userSpaceOnUse">
<stop stop-color="#FEBB74"/>
<stop offset="1" stop-color="#EA906C"/>
</linearGradient>
<linearGradient id="paint14_linear_1_150" x1="13.0648" y1="92.4048" x2="13.0648" y2="110.555" gradientUnits="userSpaceOnUse">
<stop stop-color="#FEBB74"/>
<stop offset="1" stop-color="#EA906C"/>
</linearGradient>
<linearGradient id="paint15_linear_1_150" x1="79.7378" y1="19.6162" x2="79.7378" y2="35.2033" gradientUnits="userSpaceOnUse">
<stop stop-color="#FEBB74"/>
<stop offset="1" stop-color="#EA906C"/>
</linearGradient>
<linearGradient id="paint16_linear_1_150" x1="88.9786" y1="31.1802" x2="88.9786" y2="46.7664" gradientUnits="userSpaceOnUse">
<stop stop-color="#FEBB74"/>
<stop offset="1" stop-color="#EA906C"/>
</linearGradient>
</defs>
</svg>
