<svg width="19" height="19" viewBox="0 0 19 19" fill="none" xmlns="http://www.w3.org/2000/svg">
<path d="M9.36413 0C7.51208 0 5.70162 0.549196 4.1617 1.57814C2.62178 2.60708 1.42155 4.06956 0.712806 5.78063C0.00405733 7.4917 -0.181384 9.37451 0.179933 11.191C0.54125 13.0074 1.4331 14.676 2.74269 15.9856C4.05229 17.2952 5.72082 18.187 7.53728 18.5483C9.35374 18.9096 11.2366 18.7242 12.9476 18.0154C14.6587 17.3067 16.1212 16.1065 17.1501 14.5666C18.1791 13.0266 18.7283 11.2162 18.7283 9.36413C18.7256 6.88141 17.7382 4.50113 15.9827 2.74558C14.2271 0.990038 11.8468 0.00262179 9.36413 0ZM16.254 13.2736H13.2268L12.3931 12.1247L13.5303 8.81308L14.8809 8.37279L17.2435 10.1853C17.1317 11.2723 16.7947 12.3241 16.254 13.2736ZM1.48746 10.1853L3.8456 8.37369L5.19619 8.81398L6.33339 12.1256L5.50143 13.2736H2.47429C1.93298 12.3242 1.59536 11.2724 1.48296 10.1853H1.48746ZM2.38786 5.62568L2.88397 7.30042L1.50457 8.35298C1.6268 7.39795 1.92345 6.47351 2.37975 5.62568H2.38786ZM7.65338 11.5251L6.62152 8.52225L9.36413 6.63682L12.1067 8.52225L11.0749 11.5251H7.65338ZM15.8533 7.30042L16.3494 5.62568C16.8057 6.47351 17.1024 7.39795 17.2246 8.35298L15.8533 7.30042ZM15.295 4.11481L14.4388 7.00328L13.0819 7.44358L10.0844 5.38347V3.98065L12.7037 2.17986C13.6902 2.64126 14.5718 3.29977 15.2941 4.11481H15.295ZM10.9911 1.60901L9.36413 2.7273L7.73711 1.60901C8.81016 1.3844 9.9181 1.3844 10.9911 1.60901ZM6.02456 2.17986L8.64381 3.98065V5.38347L5.64729 7.44358L4.29039 7.00328L3.43412 4.11481C4.15647 3.29977 5.03805 2.64126 6.02456 2.17986ZM3.52506 14.7143H5.35916L6.00475 16.5394C5.06728 16.0982 4.22496 15.4782 3.52506 14.7143ZM7.74342 17.1192L6.67374 14.1101L7.50481 12.9657H11.2234L12.0545 14.1101L10.9893 17.1192C9.91751 17.3439 8.81075 17.3439 7.73891 17.1192H7.74342ZM12.728 16.5394L13.3736 14.7143H15.2077C14.5065 15.4787 13.6626 16.0987 12.7235 16.5394H12.728Z" fill="url(#paint0_linear_1_26)"/>
<defs>
<linearGradient id="paint0_linear_1_26" x1="9.36413" y1="0" x2="9.36413" y2="18.7283" gradientUnits="userSpaceOnUse">
<stop stop-color="#FEBB74"/>
<stop offset="1" stop-color="#EA906C"/>
</linearGradient>
</defs>
</svg>
