<svg width="127" height="127" viewBox="0 0 127 127" fill="none" xmlns="http://www.w3.org/2000/svg">
<g clip-path="url(#clip0_1_63)">
<path d="M7.1047 114.112H24.016C26.9012 114.112 29.268 116.472 29.268 119.357V123.538C29.268 124.126 28.7848 124.609 28.1897 124.609H2.92411C2.33591 124.609 1.85271 124.126 1.85271 123.538V119.357C1.85271 116.472 4.21265 114.112 7.1047 114.112Z" stroke="url(#paint0_linear_1_63)" stroke-width="3.70554" stroke-miterlimit="10" stroke-linecap="round" stroke-linejoin="round"/>
<path d="M32.2371 47.7903H71.1366C72.019 47.7903 72.7404 47.0692 72.7404 46.1868V7.28725C72.7404 6.40484 72.019 5.68349 71.1366 5.68349H32.2371C31.3547 5.68349 30.6336 6.40484 30.6336 7.28725V46.1868C30.6336 47.0692 31.3547 47.7903 32.2371 47.7903Z" stroke="url(#paint1_linear_1_63)" stroke-width="3.70554" stroke-miterlimit="10" stroke-linecap="round" stroke-linejoin="round"/>
<path d="M10.8231 74.6871V6.58668C10.8231 3.98168 12.9518 1.85273 15.5568 1.85273C18.1618 1.85273 20.2905 3.98168 20.2905 6.58668V114.112H10.8231V83.1392" stroke="url(#paint2_linear_1_63)" stroke-width="3.70554" stroke-miterlimit="10" stroke-linecap="round" stroke-linejoin="round"/>
<path d="M20.2905 18.8767H30.6334V9.94833H20.2905V18.8767Z" stroke="url(#paint3_linear_1_63)" stroke-width="3.70554" stroke-miterlimit="10" stroke-linecap="round" stroke-linejoin="round"/>
<path d="M20.2905 43.5256H30.6334V34.5973H20.2905V43.5256Z" stroke="url(#paint4_linear_1_63)" stroke-width="3.70554" stroke-miterlimit="10" stroke-linecap="round" stroke-linejoin="round"/>
<path d="M110.688 72.3418H118.943C122.067 72.3418 124.63 74.9189 124.63 78.0698C124.63 81.221 122.067 83.7981 118.943 83.7981H116.114" stroke="url(#paint5_linear_1_63)" stroke-width="3.70554" stroke-miterlimit="10" stroke-linecap="round" stroke-linejoin="round"/>
<path d="M85.8491 115.142H118.607C120.533 115.142 120.596 114.378 120.596 112.334V96.1925C120.596 93.3706 120.729 93.5176 119.518 90.9686L107.76 66.1652C104.756 59.828 104.168 59.9049 96.9973 59.9261H66.1578C58.994 59.9049 58.4058 59.828 55.4019 66.1652L43.6445 90.9686C42.4327 93.5176 42.559 93.3706 42.559 96.1925V112.334C42.559 114.378 42.6289 115.142 44.5548 115.142H77.418" stroke="url(#paint6_linear_1_63)" stroke-width="3.70554" stroke-miterlimit="10" stroke-linecap="round" stroke-linejoin="round"/>
<path d="M47.0406 83.7981H116.114" stroke="url(#paint7_linear_1_63)" stroke-width="3.70554" stroke-miterlimit="10" stroke-linecap="round" stroke-linejoin="round"/>
<path d="M52.4746 72.3418H44.2187C41.0885 72.3418 38.5324 74.9189 38.5324 78.0698C38.5324 81.221 41.0885 83.7981 44.2187 83.7981H47.0406" stroke="url(#paint8_linear_1_63)" stroke-width="3.70554" stroke-miterlimit="10" stroke-linecap="round" stroke-linejoin="round"/>
<path d="M90.9751 105.198H72.187M72.187 96.8225H90.9751" stroke="url(#paint9_linear_1_63)" stroke-width="3.70554" stroke-miterlimit="10" stroke-linecap="round" stroke-linejoin="round"/>
<path d="M104.903 105.198C108.167 105.198 110.827 102.53 110.827 99.2662C110.827 95.9959 108.167 93.3351 104.903 93.3351C101.633 93.3351 98.9721 95.9959 98.9721 99.2662C98.9721 102.53 101.633 105.198 104.903 105.198Z" stroke="url(#paint10_linear_1_63)" stroke-width="3.70554" stroke-miterlimit="10" stroke-linecap="round" stroke-linejoin="round"/>
<path d="M58.2588 105.198C61.5291 105.198 64.1899 102.53 64.1899 99.2662C64.1899 95.9959 61.5291 93.3351 58.2588 93.3351C54.9957 93.3351 52.3347 95.9959 52.3347 99.2662C52.3347 102.53 54.9957 105.198 58.2588 105.198Z" stroke="url(#paint11_linear_1_63)" stroke-width="3.70554" stroke-miterlimit="10" stroke-linecap="round" stroke-linejoin="round"/>
<path d="M58.7 115.141V121.85C58.7 123.376 57.4537 124.63 55.927 124.63H47.3348C45.8081 124.63 44.5547 123.376 44.5547 121.85V115.141H58.7Z" stroke="url(#paint12_linear_1_63)" stroke-width="3.70554" stroke-miterlimit="10" stroke-linecap="round" stroke-linejoin="round"/>
<path d="M118.607 115.141V121.85C118.607 123.376 117.354 124.63 115.827 124.63H107.235C105.708 124.63 104.455 123.376 104.455 121.85V115.141H118.607Z" stroke="url(#paint13_linear_1_63)" stroke-width="3.70554" stroke-miterlimit="10" stroke-linecap="round" stroke-linejoin="round"/>
<path d="M44.5972 13.083V40.3906" stroke="url(#paint14_linear_1_63)" stroke-width="3.70554" stroke-miterlimit="10" stroke-linecap="round" stroke-linejoin="round"/>
<path d="M60.058 20.7894C60.058 25.0453 56.4569 28.4957 52.2007 28.4957C50.0901 28.4957 44.6501 28.5298 44.6501 28.5298C44.6501 28.5298 44.6162 22.9347 44.6162 20.7894C44.6162 19.0273 44.5972 13.0831 44.5972 13.0831H52.2007C56.4569 13.0831 60.058 16.5332 60.058 20.7894Z" stroke="url(#paint15_linear_1_63)" stroke-width="3.70554" stroke-miterlimit="10" stroke-linecap="round" stroke-linejoin="round"/>
</g>
<defs>
<linearGradient id="paint0_linear_1_63" x1="15.5604" y1="124.609" x2="15.5604" y2="114.112" gradientUnits="userSpaceOnUse">
<stop stop-color="#FEBB74"/>
<stop offset="1" stop-color="#EA906C"/>
</linearGradient>
<linearGradient id="paint1_linear_1_63" x1="51.687" y1="47.7903" x2="51.687" y2="5.68349" gradientUnits="userSpaceOnUse">
<stop stop-color="#FEBB74"/>
<stop offset="1" stop-color="#EA906C"/>
</linearGradient>
<linearGradient id="paint2_linear_1_63" x1="15.5568" y1="114.112" x2="15.5568" y2="1.85273" gradientUnits="userSpaceOnUse">
<stop stop-color="#FEBB74"/>
<stop offset="1" stop-color="#EA906C"/>
</linearGradient>
<linearGradient id="paint3_linear_1_63" x1="25.462" y1="18.8767" x2="25.462" y2="9.94833" gradientUnits="userSpaceOnUse">
<stop stop-color="#FEBB74"/>
<stop offset="1" stop-color="#EA906C"/>
</linearGradient>
<linearGradient id="paint4_linear_1_63" x1="25.462" y1="43.5256" x2="25.462" y2="34.5973" gradientUnits="userSpaceOnUse">
<stop stop-color="#FEBB74"/>
<stop offset="1" stop-color="#EA906C"/>
</linearGradient>
<linearGradient id="paint5_linear_1_63" x1="117.659" y1="83.7981" x2="117.659" y2="72.3418" gradientUnits="userSpaceOnUse">
<stop stop-color="#FEBB74"/>
<stop offset="1" stop-color="#EA906C"/>
</linearGradient>
<linearGradient id="paint6_linear_1_63" x1="81.5778" y1="115.142" x2="81.5778" y2="59.923" gradientUnits="userSpaceOnUse">
<stop stop-color="#FEBB74"/>
<stop offset="1" stop-color="#EA906C"/>
</linearGradient>
<linearGradient id="paint7_linear_1_63" x1="81.5775" y1="83.7981" x2="81.5775" y2="82.7981" gradientUnits="userSpaceOnUse">
<stop stop-color="#FEBB74"/>
<stop offset="1" stop-color="#EA906C"/>
</linearGradient>
<linearGradient id="paint8_linear_1_63" x1="45.5035" y1="83.7981" x2="45.5035" y2="72.3418" gradientUnits="userSpaceOnUse">
<stop stop-color="#FEBB74"/>
<stop offset="1" stop-color="#EA906C"/>
</linearGradient>
<linearGradient id="paint9_linear_1_63" x1="81.5811" y1="105.198" x2="81.5811" y2="96.8225" gradientUnits="userSpaceOnUse">
<stop stop-color="#FEBB74"/>
<stop offset="1" stop-color="#EA906C"/>
</linearGradient>
<linearGradient id="paint10_linear_1_63" x1="104.9" y1="105.198" x2="104.9" y2="93.3351" gradientUnits="userSpaceOnUse">
<stop stop-color="#FEBB74"/>
<stop offset="1" stop-color="#EA906C"/>
</linearGradient>
<linearGradient id="paint11_linear_1_63" x1="58.2623" y1="105.198" x2="58.2623" y2="93.3351" gradientUnits="userSpaceOnUse">
<stop stop-color="#FEBB74"/>
<stop offset="1" stop-color="#EA906C"/>
</linearGradient>
<linearGradient id="paint12_linear_1_63" x1="51.6273" y1="124.63" x2="51.6273" y2="115.141" gradientUnits="userSpaceOnUse">
<stop stop-color="#FEBB74"/>
<stop offset="1" stop-color="#EA906C"/>
</linearGradient>
<linearGradient id="paint13_linear_1_63" x1="111.531" y1="124.63" x2="111.531" y2="115.141" gradientUnits="userSpaceOnUse">
<stop stop-color="#FEBB74"/>
<stop offset="1" stop-color="#EA906C"/>
</linearGradient>
<linearGradient id="paint14_linear_1_63" x1="45.0972" y1="40.3906" x2="45.0972" y2="13.083" gradientUnits="userSpaceOnUse">
<stop stop-color="#FEBB74"/>
<stop offset="1" stop-color="#EA906C"/>
</linearGradient>
<linearGradient id="paint15_linear_1_63" x1="52.3276" y1="28.5298" x2="52.3276" y2="13.0831" gradientUnits="userSpaceOnUse">
<stop stop-color="#FEBB74"/>
<stop offset="1" stop-color="#EA906C"/>
</linearGradient>
<clipPath id="clip0_1_63">
<rect width="126.482" height="126.482" fill="white"/>
</clipPath>
</defs>
</svg>
