<svg width="128" height="125" viewBox="0 0 128 125" fill="none" xmlns="http://www.w3.org/2000/svg">
<path d="M127.929 43.4515V113.826C127.929 119.521 123.129 124.181 117.262 124.181H10.6676C4.80042 124.181 0 119.521 0 113.826V43.4515C0 37.7562 4.80042 33.0964 10.6676 33.0964H34.1364C35.3262 33.0964 36.2699 34.0124 36.2699 35.1674C36.2699 36.3224 35.3262 37.2384 34.1364 37.2384H10.6676C7.13909 37.2384 4.26705 40.0263 4.26705 43.4515V113.826C4.26705 117.251 7.13909 120.039 10.6676 120.039H117.303C120.831 120.039 123.703 117.251 123.703 113.826V43.4515C123.703 40.0263 120.831 37.2384 117.303 37.2384H93.8339C92.6441 37.2384 91.7004 36.3224 91.7004 35.1674C91.7004 34.0124 92.6441 33.0964 93.8339 33.0964H117.303C123.17 33.1362 127.929 37.7562 127.929 43.4515ZM61.8311 113.866V90.8857C55.7998 89.89 51.1635 84.7921 51.1635 78.6587C51.1635 72.5253 55.7998 67.4275 61.8311 66.4318V55.8776C61.8311 54.7226 62.7748 53.8065 63.9646 53.8065C65.1545 53.8065 66.0982 54.7226 66.0982 55.8776V66.4318C72.1295 67.4275 76.7658 72.5253 76.7658 78.6587C76.7658 84.7921 72.1295 89.89 66.0982 90.8857V113.826C66.0982 114.981 65.1545 115.897 63.9646 115.897C62.7748 115.897 61.8311 114.981 61.8311 113.866ZM66.0982 70.6535V86.6242C69.7498 85.7081 72.4987 82.4821 72.4987 78.6189C72.4987 74.7955 69.7498 71.6093 66.0982 70.6535ZM61.8311 86.664V70.6933C58.1795 71.6093 55.4305 74.8353 55.4305 78.6985C55.4305 82.522 58.1795 85.7081 61.8311 86.664ZM38.3624 24.8522C38.3624 22.1838 38.8137 19.6348 39.5933 17.2054V17.1655C39.5933 17.1257 39.6343 17.1257 39.6343 17.1257C42.9987 7.20872 52.5995 0 63.9236 0C75.2477 0 84.8896 7.20872 88.2129 17.1257C88.2129 17.1257 88.2129 17.1655 88.254 17.1655V17.2054C89.0746 19.595 89.5259 22.1838 89.5259 24.8522C89.5259 33.0168 85.4229 40.2653 79.1044 44.8056C79.0634 44.8454 79.0634 44.8853 78.9813 44.9251C78.9403 44.9649 78.8583 45.0047 78.7762 45.0047C74.5912 47.952 69.4626 49.6645 63.8826 49.6645C58.3436 49.6645 53.215 47.9121 48.989 45.0047C48.9069 44.9649 48.8659 44.9649 48.7838 44.9251C48.7428 44.8853 48.7017 44.8454 48.6607 44.8056C42.4653 40.2653 38.3624 33.0168 38.3624 24.8522ZM49.8095 40.3051L54.0766 34.8488L50.0967 22.6617L43.1218 20.4712C42.7935 21.905 42.6294 23.3387 42.6294 24.8522C42.6294 30.9856 45.4194 36.4817 49.8095 40.3051ZM54.2817 21.8253L57.9744 33.1362H69.8728L73.6065 21.7855L63.9646 14.975L54.2817 21.8253ZM63.9646 45.5225C67.8624 45.5225 71.514 44.487 74.6322 42.6948L70.3242 37.2384H57.482L53.215 42.6948C56.4153 44.487 60.0669 45.5225 63.9646 45.5225ZM85.2999 24.8522C85.2999 23.3387 85.1357 21.8651 84.8075 20.4712L77.8325 22.6617L73.8117 34.8488L78.1197 40.3051C82.5099 36.5215 85.2999 30.9856 85.2999 24.8522ZM66.0982 4.26151V11.3906L76.5196 18.7188L83.4946 16.5283C80.4174 9.83732 73.8937 5.01823 66.0982 4.26151ZM44.4757 16.5283L51.4507 18.7188L61.8311 11.3906V4.26151C54.0356 5.01823 47.5119 9.83732 44.4757 16.5283ZM10.6676 103.511H32.0028C33.1927 103.511 34.1364 102.595 34.1364 101.44V55.8776C34.1364 54.7226 33.1927 53.8065 32.0028 53.8065H10.6676C9.47776 53.8065 8.53409 54.7226 8.53409 55.8776C8.53409 57.0326 9.47776 57.9486 10.6676 57.9486H29.8693V99.329H10.6676C9.47776 99.329 8.53409 100.245 8.53409 101.4C8.53409 102.555 9.47776 103.511 10.6676 103.511ZM10.6676 86.9428C9.47776 86.9428 8.53409 87.8588 8.53409 89.0138C8.53409 90.1688 9.47776 91.0848 10.6676 91.0848H14.9347C16.1245 91.0848 17.0682 90.1688 17.0682 89.0138V68.3036C17.0682 67.1487 16.1245 66.2326 14.9347 66.2326H10.6676C9.47776 66.2326 8.53409 67.1487 8.53409 68.3036C8.53409 69.4586 9.47776 70.3747 10.6676 70.3747H12.8011V86.9428H10.6676ZM117.262 53.8065H95.9264C94.7366 53.8065 93.7929 54.7226 93.7929 55.8776V101.4C93.7929 102.555 94.7366 103.471 95.9264 103.471H117.262C118.451 103.471 119.395 102.555 119.395 101.4C119.395 100.245 118.451 99.329 117.262 99.329H98.06V57.9486H117.262C118.451 57.9486 119.395 57.0326 119.395 55.8776C119.395 54.7226 118.451 53.8065 117.262 53.8065ZM117.262 70.3747C118.451 70.3747 119.395 69.4586 119.395 68.3036C119.395 67.1487 118.451 66.2326 117.262 66.2326H112.995C111.805 66.2326 110.861 67.1487 110.861 68.3036V89.0138C110.861 90.1688 111.805 91.0848 112.995 91.0848H117.262C118.451 91.0848 119.395 90.1688 119.395 89.0138C119.395 87.8588 118.451 86.9428 117.262 86.9428H115.128V70.3747H117.262Z" fill="url(#paint0_linear_1_124)"/>
<defs>
<linearGradient id="paint0_linear_1_124" x1="63.9646" y1="0" x2="63.9646" y2="124.181" gradientUnits="userSpaceOnUse">
<stop stop-color="#FEBB74"/>
<stop offset="1" stop-color="#EA906C"/>
</linearGradient>
</defs>
</svg>
