<?xml version="1.0" encoding="utf-8"?>
<!-- Generator: Adobe Illustrator 27.5.0, SVG Export Plug-In . SVG Version: 6.00 Build 0)  -->
<svg version="1.1" xmlns="http://www.w3.org/2000/svg" xmlns:xlink="http://www.w3.org/1999/xlink" x="0px" y="0px"
	 viewBox="0 0 1000 1000" style="enable-background:new 0 0 1000 1000;" xml:space="preserve">
<g id="BG">
	<rect fill="none" width="1000" height="1000"/>
</g>
<g id="Object">
	<g>
		<path style="fill:#C2A584;" d="M548.951,292.275c-1.969,1.054-3.942,2.097-5.915,3.148v-0.004
			c-0.757-0.105-1.502-0.237-2.24-0.392c2.082,11.299,1.943,22.9,3.946,34.128c0.358-0.35,0.731-0.719,1.186-1.182
			c-0.455,0.463-0.828,0.832-1.186,1.182c2.489,13.954,4.089,28.619,5.659,42.712c3.592-2.398,8.366-3.438,14.082-3.396
			c-3.246-25.268-7.041-50.469-11.363-75.579C551.73,292.685,550.341,292.478,548.951,292.275z M545.736,327.957
			c0.008-0.056,0.015-0.113,0.026-0.169c-0.655-0.23-0.663-0.373,0.064-0.418c-0.022,0.139-0.041,0.279-0.064,0.418
			c0.086,0.03,0.144,0.057,0.257,0.09L545.736,327.957z M548.146,346.915c1.751-2.139,3.377-2.398,4.884-0.779
			C551.278,348.335,549.652,348.595,548.146,346.915z"/>
		<path style="fill:#C2A584;" d="M295.888,487.097c-0.013-0.009-0.025-0.019-0.039-0.028
			C295.846,487.099,295.855,487.113,295.888,487.097z"/>
		<path style="fill:#C2A584;" d="M554.012,247.932c0.052-0.005,0.097-0.017,0.147-0.023l0,0
			C554.108,247.915,554.064,247.927,554.012,247.932z"/>
		<path style="fill:#C2A584;" d="M578.015,694.876c-3.929-3.635-7.806-7.383-11.612-11.233
			C569.867,687.654,574.143,691.366,578.015,694.876z"/>
		<path style="fill:#C2A584;" d="M692.06,391.947c3.791,0.563,7.582,1.172,11.373,1.818
			C701.533,392.003,695.684,391.337,692.06,391.947z"/>
		<path style="fill:#C2A584;" d="M272.141,468.414c-0.006-0.003-0.013-0.007-0.02-0.009
			C272.101,468.413,272.1,468.417,272.141,468.414z"/>
		<path style="fill:#C2A584;" d="M665.571,743.994c-1.191-1.641-2.386-3.279-3.566-4.927
			C661.348,741.191,662.958,742.865,665.571,743.994z"/>
		<path style="fill:#C2A584;" d="M529.893,297.78L529.893,297.78c-0.045,0.054-0.091,0.108-0.136,0.161
			C529.802,297.888,529.847,297.833,529.893,297.78z"/>
		<path style="fill:#C2A584;" d="M510.761,272.667c-0.042,0.253-0.074,0.508-0.121,0.759
			C510.682,273.197,510.722,272.939,510.761,272.667z"/>
		<path style="fill:#C2A584;" d="M364.428,548.156c-0.944,0.512-2.647,0.319-4.891-0.398
			C361.677,548.604,363.356,548.803,364.428,548.156z"/>
		<path style="fill:#C2A584;" d="M504.363,187.648c-0.186,0.622-0.369,1.245-0.556,1.866
			C504.142,188.933,504.346,188.286,504.363,187.648z"/>
		<path style="fill:#C2A584;" d="M425.988,377.539c-0.433,1.148-0.835,2.241-1.198,3.259
			C425.208,379.714,425.603,378.627,425.988,377.539z"/>
		<path style="fill:#C2A584;" d="M451.56,324.041c0.337-0.485,0.672-0.974,1.013-1.445
			C452.244,323.047,451.904,323.535,451.56,324.041z"/>
		<path style="fill:#C2A584;" d="M520.273,499.596c-0.701-0.149-1.4-0.284-2.09-0.393
			C518.883,499.32,519.576,499.465,520.273,499.596z"/>
		<path style="fill:#C2A584;" d="M833.758,403.708c-0.018-0.016-0.037-0.032-0.056-0.048
			C833.684,403.694,833.712,403.705,833.758,403.708z"/>
		<path style="fill:#C2A584;" d="M783.493,389.647c-0.832-0.042-1.664-0.083-2.496-0.124c-0.557-0.644-1.114-1.284-1.672-1.928
			c-1.589-0.328-3.155-0.655-4.68-0.983c-0.839,0.226-1.683,0.456-2.519,0.678c0.671,1.393,0.32,2.707-1.05,3.946
			c-0.881,0.037-1.758,0.071-2.639,0.105c0.034-0.802,0.075-1.604,0.113-2.406c-0.444-0.094-0.885-0.203-1.31-0.324
			c0.553-1.077,1.235-2.135,1.833-3.208c-31.289-6.917-61.81-12.9-93.483-18.182c-14.899-2.485-29.771-6.951-44.972-6.954
			c-14.217-0.004-26.921,4.706-40.928-0.29c0,0-6.17-37.663-12.572-73.173c-7.723,6.894-8.34,3.882-17.523,5.234
			c3.596-4.744,9.537-6.804,17.237-6.838c-7.896-43.68-20.053-84.597-35.991-125.987c-3.347-8.698-10.814-42.396-21.827-40.754
			c-7.316,1.092-18.013,22.444-21.36,27.689c-26.198,41.022-46.489,81.901-64.648,126.978
			c-9.654,23.962-19.259,47.901-30.977,70.955c-13.536,26.631-32.527,26.85-61.576,26.202c-2.398,3.607-17.79,5.139-17.041-1.499
			c-12.583-0.934-53.27,1.148-89.458,3.803l0.621,0.444l-1.005,0.105l0.298-0.542c-5.513,0.403-10.919,0.821-16.104,1.246
			c1.28,9.616-8.633,8.378-11.548,0.979c-24.093,2.142-48.142,4.624-68.854,18.193c37.072,56.282,93.806,92.805,149.693,128.977
			c-2.553-2.677-0.67-5.418,2.425-6.653c1.77-2.466,3.641-4.857,5.61-7.173c-40.021-26.819-78.896-55.525-116.356-85.813
			c-1.021,2.105-2.101,4.179-3.249,6.216c-3.999-0.855-8.54-10.046-4.387-12.452c-7.79-6.487-15.463-13.099-23.129-19.733
			c54.731-17.436,111.02-17.181,167.898-12.538c-1.45-0.422-2.568-1.182-2.994-2.658c-0.806-0.075-1.619-0.124-2.432-0.147
			c0-0.565,0-1.126,0-1.687c0.994,0.486,1.992,0.968,2.986,1.45l-0.004,0.008c3.912-0.011,6.465,1.118,7.579,3.464
			c27.659,2.372,55.231,5.693,82.831,8.679c34.903-80.925,63.741-165.138,107.636-241.877c-4.296-1.548-8.058-3.935-11.288-7.161
			c-2.075-2.873,11.631-0.169,14.236,2.142c2.169-3.701,4.342-7.391,6.578-11.051c7.58,21.921,14.172,44.105,19.726,66.629
			c2.646,10.724,10.12,30.119,13.438,46.274c1.667-0.204,2.542-1.059,4.649-3.208v0.004c-2.108,2.145-2.982,3-4.649,3.204
			c1.649,8.03,2.276,15.264,0.764,20.227c7.741,41.466,13.807,83.271,18.438,125.193c35.035-12.252,76.215-12.753,112.892-9.409
			c-2.418-3.528,8.083-2.248,6.571,0.693c48.589,5.825,94.228,25.223,143.589,26.055c-34.244,31.093-80.921,41.462-115.339,73.907
			c-2.801,8.355-20.671,20.701-26.876,27.034c1.559-0.117,3.174-0.162,4.895-0.09c-3.54,2.914-6.209,8.396-11.537,6.766
			c-11.717,11.574-24.165,22.313-37.757,31.639c12.353,34.7,22.58,69.942,32.094,105.516c2.677-1.826,11.103-1.295,10.373,3.784
			c-2.432,2.975-5.301,3.878-8.615,2.719c13.137,52.163,25.863,104.447,39.257,156.546
			c-47.265-34.911-97.474-65.601-144.189-101.299c-36.164-27.637-47.683-53.677-76.569-87.669
			c-59.215,81.415-147.197,136.485-205.49,218.811c-1.386-6.024-2.768-12.101-3.874-18.182c-0.904,0.256-1.808,0.011-2.711-0.73
			c-0.117-1.096,0.761-1.698,2.255-1.856c-8.701-52.604,8.189-108.272,24.655-157.642c3.818-11.454,47.837-114.703,42.08-119.948
			c6.115,6.156-15.934,58.289-18.72,66.659c-11.69,35.118-24.481,69.939-33.415,105.908c-9.03,36.353-15.905,75.605-7.562,112.734
			c12.587-17.151,26.831-32.953,41.504-48.326c-5.915,0.93-9.624-0.546-11.13-4.435c-0.73,1.517-4.251,6.676-4.281,6.766
			c10.389-32.627,37.394-58.781,55.58-87.211c0.846-1.342,1.691-2.684,2.513-4.027c-0.814,1.349-1.657,2.69-2.513,4.027
			c-16.468,26.121-37.149,52.035-50.772,79.41c4.443-1.732,10.268-1.95,14.07,1.879c16.085-16.495,32.976-32.2,49.87-47.859
			l-0.979-0.697l1.943-0.196c7.76-7.203,15.407-14.285,23.005-21.432c-0.87,0.414-2.067,0.599-3.724,0.414
			c-11.04-6.469,10.591-11.924,5.298-1.898c28.284-26.654,56.196-54.275,79.208-85.722c-0.053-0.053-0.102-0.113-0.158-0.166
			l0.297-0.023c0.896-1.194,1.777-2.398,2.643-3.615c0.994,1.05,1.969,2.12,2.918,3.212l0.508-0.038
			c-0.082,0.113-0.165,0.226-0.245,0.339c12.034,13.912,18.86,31.3,30.005,45.796c13.845,18.005,32.697,31.951,50.653,45.57
			c34.628,26.266,71.004,49.987,106.747,74.664c-39.839-44.422-64.174-100.603-97.432-149.618
			c-18.02-26.563-38.19-48.56-61.26-70.473c-3.935-3.735-40.905-41.79-33.051-45.499c0.29-0.135,38.157,39.855,43.022,44.471
			c29.372,27.885,51.997,60.296,71.783,95.516c14.411,25.649,29.963,49.708,46.613,72.965c0.321-1.039,1.171-2.182,2.734-3.426
			c0.934-0.742,9.161,5.712,14.594,3.777c-16.778-26.236-34.896-52.016-51.249-78.463c15.746,25.411,40.804,49.546,54.871,78.342
			c0.749,0.207,1.653,1.834,1.292,2.515c2.707,5.155,4.763,10.697,7.474,15.818c2.335,4.405,5.057,8.702,7.73,12.969
			c0.079,0.124,0.155,0.249,0.233,0.373c0.744,1.188,1.485,2.375,2.21,3.561c-0.726-1.192-1.465-2.378-2.21-3.561
			c-0.078-0.124-0.155-0.249-0.233-0.373c-5.628-8.91-11.712-17.591-17.271-26.576c-3.369,2.298-11.719,2.084-16.608-0.029
			c15.91,21.913,32.792,43.163,50.642,64.395c-22.215-87.172-41.067-175.376-71.614-260.157c0.614-0.414,1.224-0.836,1.834-1.265
			c-23.604-0.041-46.53-4.706-67.597-16.179c-17.837-9.717-39.96-27.243-58.563-31.193c-0.697-0.131-1.39-0.276-2.09-0.393
			c0.691,0.109,1.389,0.244,2.09,0.393c44.287,8.335,81.184,43.678,126.337,47.252c12.399-8.558,23.89-18.216,34.674-28.725
			c-0.545,0.072-1.096,0.139-1.637,0.218c1.637-2.165,3.787-3.746,6.344-4.861c16.27-16.341,31.726-33.593,49.829-47.965
			c26.684-21.176,59.671-30.457,86.999-50.243c-3.938-0.222-7.858-0.554-11.763-0.987c-2.937-8.916-110.813,23.374-115.795,24.967
			c-44.196,14.12-92.15,19.244-135.269,35.965c6.239,0.203,13.125-2.259,19.263,0.715c1.148-0.019,2.278,0.087,3.396,0.324
			c1.288-0.26,2.602-1.065,0.565,0.166c2.184,0.783-2.368,5.467-5.768,1.589c-1.977,0.185-19.27-0.851-19.19-2.131
			c-14.489,5.505-28.737,12.015-43.485,16.827c-0.116,0.591-0.237,1.182-0.354,1.773c-1.984-0.26-15.689,2.278-10.196-1.657
			c-0.192-1.069-0.384-2.135-0.576-3.2c-3.596-2.673-14.134-3.392-5.874-7.414c3.004-3.118,6.676-4.469,11.017-4.059
			c1.672-1.193,3.596-1.502,5.84-0.659c1.759-0.309,3.52-0.614,5.279-0.923c2.538,3.208,2.538,3.208-1.163,5.927
			c-0.546,1.054-1.096,2.108-1.641,3.163c52.155-28.472,112.85-30.562,168.748-47.645c0.188-2.251,0.377-4.496,0.564-6.743
			c-3.652-1.122-7.304-2.248-10.956-3.374c0.919-1.382,1.74-2.794,2.681-4.168c-7.233-14.839,3.979-14.281,1.159-3.249
			c0.159,0.335,0.433,0.55,0.591,0.911c8.509-13.125,12.048-0.35,6.586,9.857c7.184-0.139,14.372-0.282,21.556-0.425
			c0.06,0.203,0.121,0.403,0.181,0.606c28.141-8.585,55.142-19.745,85.086-19.745c-29.964-5.369-59.903-12.811-89.865-17.919
			c0.356,0.33,0.577,0.698,0.615,1.104c0.271,2.907-16.111,0.12-14.779-1.721c0.419-0.581,1.456-0.977,2.792-1.201
			c-41.127-6.102-82.309-6.753-123.669,9.455c-1.152-10.573-2.398-21.134-3.747-31.684c-8.008,6.657-5.372,3.596-13.874,4.989
			c0.764,4.804,1.947,9.432,2.357,14.315c-0.124-1.476-2.971-11.021-3.716-14.105c-0.892,0.143-1.8,0.256-2.7,0.392
			c0.664-0.874,1.427-1.623,2.245-2.319c-3.446-13.743-4.142-28.126-6.785-42.02c-0.324,0.109-0.655,0.196-1.043,0.23
			c0.388-0.034,0.719-0.121,1.043-0.23c-4.937-25.78-5.015-51.704-8.814-77.492c-1.586-0.256-3.02-0.779-4.258-1.664
			c1.412,0.056,2.775,0.207,4.078,0.467c-0.485-3.106-0.945-6.216-1.446-9.323c0.509,3.065,1.171,6.333,1.943,9.439
			c1.224,0.237,2.379,0.629,3.475,1.178c-1.062-0.007-2.12-0.015-3.177-0.022c3.301,12.421,3.577,25.366,6.144,37.938
			c3.987-1.973,4.835-2.722,8.837,0.776c1.39,0.207,2.779,0.414,4.168,0.621c-0.448-2.59-0.911-5.162-1.367-7.741
			c-0.667,0.256-1.525-0.241-0.136-0.667c0,0,0.012,0.019,0.018,0.026c-0.948-5.328-1.897-10.652-2.895-15.923
			c-3.211-2.112-6.424-4.228-9.631-6.344c-3.11-4.296,12.523,0.388,8.197-0.915c-5.607-28.664-12.026-57.205-20.091-85.289
			c-0.459,0.542-1.171,1.001-2.123,1.378c-0.866-0.599-1.736-1.197-2.602-1.796c1.423-0.395,2.846-0.791,4.27-1.186
			c-2.319-7.997-4.665-15.987-7.391-23.856c-0.124,0.211-0.249,0.422-0.373,0.633c2.082,14.285-0.697,30.686-4.225,44.565
			c0.648-0.083,1.393-0.076,2.271,0.053l0.425-0.188c1.092,0.249,2.123,0.633,3.099,1.156c0.417-3.2,0.854-6.521,1.513-9.658
			c-0.749,3.441-0.143,6.796-0.433,10.253c0.204,0.124,0.411,0.245,0.602,0.373c-0.192-0.128-0.399-0.249-0.602-0.373
			c-0.354,4.048-1.668,7.884-2.15,11.909c2.289,0.139,4.733,1.118,6.371,2.395c0.09-4.417,0.121-8.837,0.21-13.253
			c-0.049,4.567,0.083,9.277,0.501,13.863c0.542,0.538,0.934,1.107,1.092,1.675c-0.309,0.335-0.52,0.772-0.866,1.062
			c1.963,27.57,2.154,55.148,3.088,82.741c1.001-1.189,2.002-2.381,3.004-3.57h0.004c-1.005,1.189-2.007,2.381-3.008,3.57
			c0.522,15.445,1.274,30.894,2.707,46.349c1.412,0.339,16.371,7.564,5.61,8.901c-1.405-0.772-3.05-1.495-4.699-2.285
			c0.843,4.458,1.517,8.942,2.026,13.453c-0.128-1.48-3.034-11.777-3.476-14.18c-1.943-1.502-3.889-3.005-5.836-4.507
			c-1.8-2.493,4.292-1.834,4.533-1.785c-6.393-33.808-8.954-71.754-6.427-106.047c-3.412-0.147-6.04,1.227-8.382,3.159
			c-0.079,1.672,0.618,3.151,2.617,4.315c-0.422,2.639-2.346,5.742-5.603,4.13c-0.433,2.029-0.73,4.074-0.9,6.137
			c2.015-0.712,5.291-0.945,6.537,1.404c0.546,0.211,1.096,0.422,1.642,0.633c-0.583-0.188-1.164-0.373-1.747-0.557
			c-2.177,0.704-4.402,0.994-6.676,0.87c-0.429,4.874-0.262,10.059-1.058,14.897c-0.039,0.272-0.08,0.53-0.121,0.759
			c0.047-0.25,0.079-0.506,0.121-0.759c0.894-6.168,1.22-22.98-0.215-29.37c0.256-0.117,0.512-0.233,0.768-0.35
			c3.016-14.628,7.354-31.616,9.251-46.154c-0.976-0.523-2.007-0.907-3.099-1.156l-0.425,0.188
			c-0.682,0.885-1.638,1.521-2.801,1.969c-15.984,59.799-18.16,115.769-16.571,177.115c3.743-3.81,1.901-6.288,8.554-3.686
			c-0.245-15.814,2.998-31.089,2.075-46.937c2.278,33.612,3.37,69.464-3.215,102.884c2.73-13.969,0.105-34.945,1.069-50.83
			c-2.567,1.559-5.365,2.481-8.4,2.771c0.286,20.995,1.484,45.028-5.109,65.33c1.551,0.222,1.638,1.043,0.256,2.462
			c-0.015,0.294-2.515,3.897-2.489,3.893c-1.521,4.499-11.314,31.534-16.146,28.747c0.233,0.135,13.672-47.43,14.515-53.319
			c4.861-33.966,0.761-68.316,1.751-102.402c1.627-55.966,19.587-108.92,23.861-164.464c-4.586,8.249-8.984,16.616-13.269,25.046
			c2.396,0.463,3.278,1.826,3.241,3.243c0.894-2.993,1.77-5.99,2.611-8.996c-7.836,29.519-12.945,60.601-26.029,88.708
			c-1.928-0.331-1.89-1.736,0.105-4.213c6.469-24.923,15.345-49.1,22.757-73.632c-1.103,1.911-3.631,3.11-5.681,0.866
			c-10.31,20.852-19.538,41.376-28.108,61.203c1.627,0.422,3.137,1.107,4.53,2.048c-1.393-0.941-2.903-1.627-4.53-2.048
			c-10.294,23.83-20.144,47.852-29.876,71.915c7.56,1.261,1.431,10.309-2.485,6.141c-4.041,9.978-8.013,19.797-11.914,29.444
			c3.016,0.493,4.891,1.661,5.847,3.37c5.522-12.21,12.173-27.175,19.971-38.413c0.344-0.505,0.683-0.993,1.013-1.445
			c-0.341,0.471-0.676,0.96-1.013,1.445c-8.089,11.89-19.764,38.078-25.572,53.499c-0.386,1.088-0.78,2.175-1.198,3.259
			c0.363-1.018,0.766-2.111,1.198-3.259c1.494-4.216,2.815-8.456,4.521-12.694c-2.884-0.392-4.838-1.337-5.986-2.756
			c-4.323,10.689-8.796,21.311-13.325,31.914c16.104,9.496,34.564,49.016,37.81,67.141c0.154,0.87-9.515-11.145-10.897-13.197
			c-0.399,0.309-0.817,0.614-1.208,0.926c-0.78-0.772-1.563-1.547-2.343-2.323c0.704-1.22,1.525-1.706,2.456-1.457
			c-1.473-9.695-20.17-42.351-26.232-50.115c-0.813,1.898-1.623,3.795-2.433,5.693c-79.886-8.502-167.446-24.523-246.248-1.227
			c42.212,37.287,87.971,71.132,133.879,103.697c7.612-2.355,47.903,38.433,63.555,44.617c2.244,0.717,3.947,0.909,4.891,0.398
			c0.112-0.068,0.223-0.138,0.322-0.224c-0.094,0.087-0.203,0.16-0.322,0.224c-1.072,0.647-2.751,0.448-4.891-0.398
			c-14.202-4.537-50.18-30.182-54.239-32.832c-3.931,1.724-7.903,3.355-11.913,4.891c0.147,2.188-2.595,3.961-4.62,3.268
			c16.044,10.166,28.503,26.466,46.493,33.367c-14.857,49.339-30.464,98.479-45.054,147.893
			c-15.524,52.592-34.696,137.065,16.653,177.255c32.418-52.103,67.725-95.516,113.942-136.564
			c-7.572-4.266,6.081-18.672,10.102-9.055c9.771-8.965,18.736-18.6,27.045-28.947l1.066-4.432l0.26,2.775
			c12.523-15.765,23.145-29.259,39.143-41.722c33.71,36.568,67.905,66.757,109.526,94.13c-0.015-1.574-0.038-3.133-0.038-4.699
			c2.398-0.053,4.473,0.84,6.216,2.681c-1.047,1.992-2.489,3.073-4.326,3.234c43.623,28.743,85.168,71.441,134.67,89.551
			c-5.151-41.575-18.164-83.685-22.143-124.685c-1.495-1.017-1.566-1.83-0.215-2.44c-0.176-2.124-0.331-4.319-0.482-6.604
			c-5.829-1.272-3.946-4.673-0.29-4.247c-2.677-37.787-21.036-79.592-34.595-114.959c-17.542,18.306-29.79-4.921-2.828-6.789
			c0.113,0.072,0.23,0.143,0.347,0.215c-11.981-32.23-0.219-43.755,25.25-66.557c26.834-24.033,59.343-43.624,87.853-65.955
			c-0.007-0.2-0.007-0.395-0.007-0.595c-4.285-2.124,5.177-3.167,6.02-5.068c-0.038,0.354,0.004,0.696,0.072,1.039
			c14.398-10.486,26.382-23.645,40.852-34.169c0.221-0.553,0.64-0.798,1.178-0.862c9.338-6.887,17.162-13.822,17.162-13.822
			s-43.917-7.466-77.921-14.353C784.45,389.014,784.084,389.326,783.493,389.647z M564.494,261.908
			c2.613,0.12-1.054,3.502-3.468,1.74C561.328,262.371,562.646,261.818,564.494,261.908z M455.849,230.604
			c0.599,0.523,0.448,0.794-0.456,0.806C454.799,230.883,454.949,230.612,455.849,230.604z M457.009,242.803
			c-2.233,5.399-3.86,6.322-7.798,2.052C450.359,240.017,458.271,239.75,457.009,242.803z M532.37,153.888
			c-1.088,0.056-1.758-0.535-2.011-1.766v-0.004C531.631,147.717,536.929,153.885,532.37,153.888z M558.621,244.686
			c0.007-0.053,0.015-0.109,0.023-0.166c-0.651-0.23-0.659-0.373,0.064-0.418c-0.019,0.139-0.042,0.279-0.064,0.418
			c0.09,0.03,0.147,0.056,0.256,0.09L558.621,244.686z M584.227,691.416c-0.452-0.305-0.9-0.61-1.347-0.922
			C584.442,689.846,585.986,689.583,584.227,691.416z M576.438,676.732c17.35,18.958,42.682,37.765,61.485,58.304
			C618.054,716.458,595.263,697.2,576.438,676.732z M618.017,694.161c2.278-1.22,4.744-1.182,7.342-0.279
			c-0.609,1.996-2.093,3.204-4.454,3.622c5.539,6.909,8.942,15.211,15.023,21.578c-11.401-12.418-25.336-25.34-34.09-40.039
			c-0.881-1.491,4.507,2.85,4.078,2.489C610.434,685.365,614.019,689.816,618.017,694.161z M566.23,655.571
			c3.118-14.006,9.172,2.451,4.981,1.246c3.2,0.919,4.371,9.53,12.131,2.613c-3.961-10.535,11.917-10.592,16.974-4.865
			c8.017,9.07-8.352,12.632-14.673,7.937C580.669,668.125,564.144,665.35,566.23,655.571z M566.403,683.644
			c3.806,3.85,7.683,7.598,11.612,11.233C574.143,691.366,569.867,687.654,566.403,683.644
			c-24.37-24.654-45.738-53.667-57.901-86.403c10.37,27.671,37.471,61.422,56.938,85.267
			C565.749,682.89,566.078,683.266,566.403,683.644z M511.619,580.139c2.293,6.807,17.941,24.47,23.077,31.891
			C526.277,603.42,515.663,592.034,511.619,580.139z M543.582,636.369l1.823-0.553l-0.128,1.337L543.582,636.369z M562.69,637.943
			c-0.132,3.543-23.999,1.676-9.39-19.007c10.652-15.083-1.148,19.15-2.636,16.239C552.458,638.346,562.781,635.412,562.69,637.943z
			 M561.053,613.932c-23.013-17.118-35.211-39.637-52.542-59.748c-0.629-0.723-1.255-1.454-1.891-2.163
			c0.638,0.717,1.267,1.439,1.891,2.163C525.652,573.866,540.417,598.333,561.053,613.932z M663.011,717.019
			c0.599,0.527,0.448,0.795-0.452,0.806c-0.131-0.181-0.429-0.399-0.357-0.535C662.276,717.155,662.729,717.106,663.011,717.019z
			 M591.833,519.328c-1.671,0.004-3.343-2.764-0.414-3.129C593.26,515.969,595.211,519.328,591.833,519.328z M607.338,525.028
			c-0.275-0.004,14.579-6.687,17.411-7.331C620.43,520.325,612.945,525.137,607.338,525.028z M642.076,497.964
			c0.019,0.026-0.004,0.038-0.057,0.038c-5.617,3.043-10.016,6.029-16.117,7.713c-4.403,2.016-8.735,3.913-11.818,5.084
			c-1.212,0.528-2.422,0.95-3.632,1.153c0.755-0.127,2.027-0.543,3.632-1.153c3.448-1.503,6.914-3.891,10.435-4.71
			c0.479-0.111,0.925-0.248,1.384-0.375C632.483,502.701,639.204,499.433,642.076,497.964z M627.719,476.54
			c1.563-0.655,3.103-0.911,1.344,0.922C628.616,477.157,628.167,476.849,627.719,476.54z M632.648,525.966h-0.003
			c0.346-0.252,0.663-0.633,1.02-0.828C633.307,525.333,632.991,525.713,632.648,525.966z M649.806,524.245
			c1.043-1.246,2.093-2.489,3.14-3.731C651.899,521.756,650.849,522.998,649.806,524.245z M669.001,518.575
			c-1.969,1.054-3.946,2.101-5.915,3.148c-0.772-0.109-1.529-0.241-2.282-0.399c-0.85-0.866-1.698-1.732-2.553-2.59
			c3.727-3.268,7.041-3.404,10.749-0.166c2.677,0.403,5.362,0.806,8.039,1.205C674.363,519.373,671.678,518.97,669.001,518.575z
			 M670.842,511.059c0.068-0.135,0.535-0.188,0.825-0.275c0.139,0.188,0.282,0.376,0.421,0.561
			C671.486,511.793,671.072,511.699,670.842,511.059z M659.065,508.292c-4.871,2.82-25.72,15.302-21.68,12.037
			c-3.486,1.517-7.176,2.383-11.066,2.602c1.672-7.406,6.978-10.719,13.479-8.423c0.979,1.144,1.175,2.15,0.862,3.035
			c12.456-13.216,32.494-19.556,48.161-27.478C678.945,495.076,668.76,502.682,659.065,508.292z M652.009,494.699
			c0.462-0.776,1.837-0.971,1.118,0.26C652.754,494.873,652.381,494.786,652.009,494.699z M681.077,489.948
			c1.75-2.138,3.38-2.398,4.887-0.779C684.212,491.367,682.583,491.627,681.077,489.948z M704.409,479.695
			c-2.094,0.456-3.366-0.185-3.811-1.917C700.245,475.964,714.748,479.416,704.409,479.695z M789.951,417.78
			c-28.84,12.647-60.109,19.907-88.706,29.401c-1.904,0.635-3.801,1.279-5.688,1.933c1.883-0.656,3.78-1.299,5.688-1.933
			C730.584,437.395,761.746,429.724,789.951,417.78z M664.916,463.546c-0.053,0.198-0.093,0.382-0.136,0.57
			c-1.744,9.174,28.732-10.994,16.809-9.979c23.917-2.036-21.253,29.209-16.809,9.979
			C664.814,463.936,664.856,463.749,664.916,463.546z M695.135,473.682c22.309-10.362,45.827-21.258,65.594-35.905
			c-29.466,22.124-58.906,36.666-93.253,49.893c2.64,0.809,12.764,7.267,3.668,8.396c-3.215-1.77-7.644-3.276-10.558-5.96
			c-4.684,1.408-9.01,3.573-13.803,4.71c1.706-0.407,9.507-4.473,12.647-5.957c-2.319-2.914,3.886-2.188,4.729-2.014
			C674.739,482.971,684.932,478.445,695.135,473.682z M662.423,462.688c-1.706,1.359-3.509,1.405-5.403,0.169
			C658.824,462.797,660.627,462.74,662.423,462.688z M613.664,465.809c2.225-8.08,18.999-2.44,21.703-1.856
			c-1.054,1.781-2.591,3.099-4.48,4.082c8.509-0.621,18.927-2.862,27.045-4.353c-12.448,3.995-27.267,9.65-40.604,10.121
			c-0.512,0.019,4.273-3.219,5.497-3.536c-1.065,0.136-2.158,0.249-3.287,0.316C616.488,469.522,612.93,468.467,613.664,465.809z
			 M594.661,492.026c2.606,0.851,4.91,2.496,5.354,4.123c-0.347,0.828-0.9,1.288-1.66,1.389
			c16.593,12.286,10.196-18.954,7.526-17.406c7.576-4.462,9.187,14.997,4.571,19.489c-7.173,6.977-19.872,2.903-20.784-6.634
			C589.529,488.208,593.712,487.161,594.661,492.026z M579.371,506.514c2.945-0.459,4.846,1.28,7.636,1.868
			c0.064-0.011,0.016,0.004,0.016,0.004c-3.638,0.708-10.012,3.061-13.928,2.56C571.294,510.701,578.174,506.688,579.371,506.514z
			 M564.268,503.322c-0.106,0.113-0.249,0.23-0.342,0.343c-0.268-0.154-0.535-0.309-0.783-0.452
			c0.113-0.132,0.203-0.237,0.305-0.354c-0.434-0.408-0.935-0.711-1.477-0.95c-3.063-0.311-5.999-0.61-8.161-0.921
			c-1.061-0.077-2.05-0.237-2.9-0.576c-0.115-0.039-0.218-0.078-0.301-0.117c0.096,0.045,0.202,0.078,0.301,0.117
			c0.595,0.2,1.611,0.39,2.9,0.576c2.71,0.196,5.851-0.095,8.161,0.921c5.239,0.533,10.833,1.103,13.493,1.839
			C582.172,505.603,566.331,503.834,564.268,503.322z M574.758,485.478c0.011,0.03-0.015,0.038-0.076,0.023
			c-10.967,2.809-29.153,3.897-38.021,8.253C549.904,487.252,561.29,488.698,574.758,485.478z M743.217,413.77
			c0.954,0.052,1.961,0.002,2.981-0.093c1.353-0.179,2.701-0.348,4.042-0.505c0.362-0.047,0.72-0.091,1.069-0.128
			c-0.355,0.04-0.713,0.086-1.069,0.128c-1.308,0.168-2.685,0.378-4.042,0.505c-16.53,2.186-33.863,5.785-50.404,5.775
			C709.507,419.452,726.944,412.874,743.217,413.77z M706.898,402.369c10.769-0.93,20.664,1.25,30.815,2.402
			c-14.357,0.388-30.457,2.651-44.802,0.994C694.341,405.927,703.622,402.659,706.898,402.369z M541.402,278.784
			c1.182,0.395,1.04,0.907-0.426,1.54c-0.482-0.301-0.964-0.599-1.453-0.904C540.164,279.19,540.751,278.927,541.402,278.784z
			 M533.077,268.655c-0.372-0.087-0.742-0.173-1.114-0.26C532.426,267.627,533.796,267.424,533.077,268.655z M350.94,613.834
			c15.076-32.802,40.272-53.376,66.772-76.257c-23.442,20.372-41.791,43.667-59.305,68.517c0.508-0.332,1.017-0.663,1.524-0.996
			c1.506,0.158,2.632,0.794,3.374,1.905c0.263,2.826-5.304,3.536-6.807,1.808c-2.248,3.214-4.486,6.449-6.721,9.71
			C347.735,617.769,348.123,616.202,350.94,613.834z M446.565,510.405c0.957-0.058,1.916-0.126,2.883-0.219
			C448.492,510.283,447.531,510.355,446.565,510.405c-34.19,2.074-61.81-18.073-92.057-27.332
			C382.641,491.121,416.806,511.924,446.565,510.405z M343.722,465.752c-1.483-3.468,4.078-4.759,5.384,1.932
			c1.973,12.21,8.822,3.283,12.433,5.343c0.132,0.072,4.221-5.03,4.454-4.808c2.09,1.984,2.323,7.368-2.677,7.703
			C351.259,476.732,349.531,479.319,343.722,465.752z M389.148,484.115c1.875,2.372,4.568,3.596,6.94,3.069
			c2.899,0.057,2.206-3.588,4.107-3.968c6.326-1.273,0.986,7.734-2.523,6.683c-3.626-1.084-8.738,3.449-12.662-2.248
			C382.891,484.575,387.617,479.578,389.148,484.115z M403.272,455.278c21.119,14.688,43.288,36.029,67.28,45.228
			c-35.121-13.562-79.019-44.587-105.523-71.712c7.805,7.858,24.128,15.475,34.135,23.258c0.207-1.295,0.957-2.335,2.251-3.118
			c2.222,2.436,2.241,2.681-1.657,3.585C400.919,453.455,402.052,454.427,403.272,455.278z M432.223,514.677
			c-1.77,0.203-3.54,0.403-5.309,0.606C427.697,511.978,433.063,510.129,432.223,514.677z M455.86,512
			c-0.764-0.791-1.483-1.6-2.221-2.402c-0.098,0-0.192-0.011-0.29-0.007l0.173-0.12c0.042,0.041,0.075,0.087,0.117,0.128
			c1.333-0.022,15.113,0.539,15.595,3.178c1.073,5.934-11.649,0.971-13.178-0.576c-8.411,3.863-18.867,8.027-26.658,13.201
			c2.696,0.689-1.385,1.333-2.052,1.212c-12.938,6.977-39.983,17.124-55.401,15.042c3.28,0.437,24.76-9.293,30.528-11.815
			C421.082,521.278,436.816,518.311,455.86,512z M461.132,526.041c-0.61,3.091-9.68,10.723-12.561,11.45
			C446.937,537.898,462.732,518.134,461.132,526.041z M445.762,527.475c-53.511,49.848-97.274,118.969-129.112,182.71
			C350.544,640.367,388.817,580.625,445.762,527.475z M430.393,567.168c0.23,0.23,0.429,0.328,0.584,0.583
			c-0.162,4.198,4.078,2.267,3.37,7.165c-0.256,1.766-7.508-6.973-7.101-10.464c0.855-7.399,11.134-11.42,9.36-4.089
			C436.515,560.737,427.58,564.205,430.393,567.168z M414.014,578.795c-0.003,1.48-0.395-19.583,4.544-18.009
			c6.13,1.947,3.502,30.679-1.046,29.267C415.155,586.834,413.988,583.08,414.014,578.795z M416.055,592.286
			c-0.817,4.055-9.869,14.119-13.415,15.998C401.465,608.917,417.945,583.178,416.055,592.286z M378.064,632.69
			c0.256-7.335,3.118-8.246,7.169-13.83c5.447-7.501-0.729,13.163-3.831,13.261c1.94,1.032,7.375,4.062,6.688,5.271
			C385.485,640.752,377.928,636.659,378.064,632.69z M384.653,642.826l-0.651,1.186l-1.375-0.975L384.653,642.826z M358.904,670.971
			c2.868-4.153,5.744-8.212,8.606-12.146C364.586,662.907,361.717,666.95,358.904,670.971
			c-23.252,33.67-45.965,73.931-56.325,110.934C314.412,739.242,334.442,705.939,358.904,670.971z M364.731,702.599
			c-0.275-0.265-0.55-0.531-0.825-0.796c-22.256,42.602-60.431,117.326-60.54,117.287c-6.453-2.327,31.451-81.983,34.417-87.673
			c2.542-4.868,54.467-94.559,60.447-91.257c17.719-25.498,38.454-47.464,53.556-75.131c1.743-3.197,21.929-50.958,21.179-51.131
			c7.112,1.615-8.558,39.23-10.26,42.445c3.987,0.324,6.028,1.005,6.871,1.946c6.796-10.313,11.838-21.044,16.01-32.629
			c-1.744,5-2.471,10.362-4.421,15.294c1.8-1.453,5.407,1.22,1.646,1.856c-1.291,0.196-1.962-0.135-2.006-0.994
			c-11.688,28.213-26.396,58.386-45.032,82.917c-0.44,0.6-0.883,1.19-1.329,1.762c0.449-0.579,0.884-1.177,1.329-1.762
			c11.817-16.109,21.266-41.977,30.667-60.537c-2.722,1.348-5.475,1.483-8.253,0.403c-17.715,27.734-39.73,52.246-57.502,79.645
			c0.78,2.617,1.235,6.269,1.235,10.573c7.365-0.693,11.92,2.003,18.238-3.532c4.066-3.562,2.03-15.776,7.459-17.802
			c5.746-2.15-4.721,20.294-5.802,21.176c-5.354,4.375-13.573,4.804-20.027,4.228c-0.256,4.274-2.342,7.828-3.811,11.74
			c-2.5-2.594-4.183-8.22-4.033-16.767c-4.895,6.386-9.642,12.866-14.579,19.218c-1.029,1.35-6.734,12.034-14.588,27.054
			C367.423,699.861,369.012,700.253,364.731,702.599z M382.846,684.1c-0.565-1.555-3.042-5.847-0.753-7.24
			c-0.305,0.203,7.647,6.77,11.145,5.934c4.311-1.032,3.001-9.959,6.423-10.079C415.136,672.169,387.5,696.894,382.846,684.1z
			 M374.476,736.305c35.283-59.95,88.896-114.861,108.238-185.372c-10.742,39.889-26.515,75.906-51.978,108.878
			C411.156,685.249,390.824,708.529,374.476,736.305z M430.524,695.742c-1.272-2.097-2.538-4.202-3.803-6.314
			c0.926-3.761,1.849-7.523,2.771-11.284c-0.286,0.858,2.779,9.134,2.613,11.503C431.94,692,431.402,694.059,430.524,695.742z
			 M435.107,682.707c24.335-26.097,39.637-80.316,47.732-115.452c-3.265,15.095-6.206,29.948-10.351,44.904
			C466.128,636.086,452.242,664.341,435.107,682.707z M473.956,610.069c2.199-2.237,4.183-2.274,5.949-0.105
			C477.736,612.159,475.756,612.192,473.956,610.069z M484.646,634.087c0.154-1.551,0.948-2.805,2.383-3.758
			C489.386,632.92,489.318,633.025,484.646,634.087z M482.285,622.961c-0.279,4.236-1.77,12.395-3.437,16.315
			c0.658-1.548,0.237-13.653,0.662-17.207c-0.539-0.531-0.316-1.224,0.229-1.679c1.476-7.35,4.763-13.818,6.552-20.678
			c-0.761,6.529-1.028,12.832-2.429,19.432c2.96-0.847,4.684-0.26,5.17,1.766C488.294,622.118,483.576,623.108,482.285,622.961z
			 M498.563,622.576c-0.36,0.886-0.77,1.742-1.251,2.557C497.768,624.324,498.178,623.463,498.563,622.576
			c8.84-21.771-17.372-64.241-9.087-89.099c-1.318,6.838,2.391,20.807,5.049,27.173
			C500.732,575.564,505.892,605.705,498.563,622.576z M561.231,552.051c-0.765,2.048-7.622,17.113-11.248,10.192
			c3.823,7.134,6.392-19.422,2.255-19.047c-0.098,0.02-0.194,0.049-0.287,0.082c-0.016,0.006-0.031,0.009-0.047,0.015
			c-0.082,0.032-0.159,0.074-0.237,0.116c-0.122,0.072-0.245,0.147-0.377,0.26c0.118-0.105,0.245-0.188,0.377-0.26
			c0.081-0.048,0.16-0.085,0.237-0.116c0.016-0.006,0.032-0.01,0.047-0.015c0.098-0.035,0.196-0.074,0.287-0.082
			C555.678,542.484,561.989,549.709,561.231,552.051z M599.047,596.827c-0.617,10.027-21.398,12.587-19.726,4.533
			c-0.214,1.242,12.576,1.115,15.344-4.146c0.9-1.713-8.837-13.54-6.333-14.372C594.36,580.452,599.465,593.517,599.047,596.827z
			 M597.056,582.436l1.231-1.069l0.873,1.152L597.056,582.436z M626.368,652.985c-0.874,0.516-6.582,3.411-6.285,0.026
			c0.719-8.434,10.034-6.134,5.798-18.498c-0.889-2.587-18.577-12.753-12.018-17.873
			C616.484,614.583,642.584,642.258,626.368,652.985z M630.487,617.644c0.105,0.06-10.964-4.902-5.757-7.741
			C629.23,607.448,638.229,613.601,630.487,617.644z M655.759,691.732c-0.162-0.844,7.455-0.851,7.245,1.047
			C662.815,694.481,656.154,693.826,655.759,691.732z M654.271,654.412c2.828,0.169,5.512,0.866,8.05,2.082
			c2.507,2.432-2.926,4.33-4.225,4.518c11.322,16.138,17.79,34.531,28.303,50.804l2.383-1.988c-1.679-1.532-5.41-4.541,0.17-0.143
			l-0.17,0.143l0.023,0.015l-2.391,1.996l-0.015-0.023l-0.169,0.139c-3.726-4.316-7.2-9.092-10.468-14.114
			c0.113,1.436-3.508,2.638-3.719,0.45c0.003-1.047,0.678-1.672,2.022-1.875c0.509,0.18,0.88,0.378,1.149,0.583
			c-7.354-11.448-13.637-24.133-19.26-35.713c-6.292,0.663-8.381-0.764-15.106-8.076c3.904-0.606,7.376-0.06,10.731,0.633
			c-2.394-3.596-5.305-7.519-7.138-11.431c0.319,0.674,6.058,6.465,7.48,8.4C652.645,652.055,653.428,653.252,654.271,654.412z
			 M649.338,595.783c0.243,0.441,0.475,0.875,0.679,1.292C649.803,596.637,649.564,596.214,649.338,595.783
			c-3.701-6.712-11.771-16.044-19.26-24.639c-4.147-4.488-8.207-8.967-11.617-13.742c2.989,3.862,7.201,8.674,11.617,13.742
			C637.174,578.821,644.51,586.535,649.338,595.783z M627.272,591.559c3.219-4.277,14.33,1.205,5.323,5.313
			c-0.657,0-1.304-0.127-1.941-0.34c6.231,9.297,11.505,18.515,15.123,27.174c-3.976-9.515-10.43-18.261-15.445-27.268
			c0.106,0.042,0.215,0.058,0.322,0.093c-15.223-22.718-36.186-45.913-52.877-62.603
			C597.127,552.495,612.324,569.145,627.272,591.559z M591.197,576.457c-6.604-16.653-32.354-56.388-48.27-66.712
			C564.479,523.044,581.784,552.928,591.197,576.457z M540.558,530.538c4.052,3.207,8.086,6.254,12.034,8.802
			C548.355,536.65,544.411,533.648,540.558,530.538c-10.028-7.938-20.169-16.888-29.42-21.9
			C522.3,514.691,531.152,522.945,540.558,530.538z M504.093,516.639c15.215,10.862,27.998,26.567,43.567,36.33
			c-8.724-5.437-17.249-10.257-25.152-17.147C517.535,531.485,501.363,514.711,504.093,516.639z M502.631,495.969
			c0.258,0.013,0.517,0.029,0.776,0.033l-0.757-0.026C502.644,495.973,502.638,495.971,502.631,495.969
			c-2.9-0.149-5.721-0.875-8.452-2.192C496.16,493.736,498.533,494.475,502.631,495.969z M523.608,471.457
			c27.607-8.174,56.214-22.267,86.524-29C580.696,449.336,552.513,462.883,523.608,471.457z M648.621,436.199
			c-0.291,2.613-8.593-6.608-12.083-7.177c-3.984-0.648-10.817,7.312-14.466,4.051C616.706,428.274,651.282,417.505,648.621,436.199
			z M678.595,397.851c-22.583,4.974-44.343,12.96-66.264,20.189c-0.064,1.329-0.317,2.677-0.361,4.01
			c-3.159,0.211-5.686-0.203-7.824-1.002c-24.361,9.04-45.126,21.307-67.785,33.74c20.091-11.006,40.518-26.691,63.64-36.086
			c-1.05-0.836-2-1.773-2.877-2.779c2.921-3.027,11.183-7.828,14.368-1.845c5.196-2.093,10.411-3.848,15.754-5.561
			C643.669,403.246,661.75,401.616,678.595,397.851z M538.732,367.752c0.144,0.188,0.283,0.373,0.426,0.561
			C538.33,368.561,537.219,368.211,538.732,367.752z M528.521,362.051c1.178,0.395,1.039,0.907-0.425,1.54
			c-0.482-0.298-0.965-0.599-1.458-0.904C527.279,362.458,527.871,362.198,528.521,362.051z M521.458,349.585
			c0.663-7.417,1.593-13.939,1.423-21.42c0.591,15.516,2.426,31.232,3.747,46.892c0.408-0.201,0.814-0.404,1.223-0.602
			c3.923-2.402,4.285-2.357,8.216,1.081c1.05,0.158,2.101,0.313,3.151,0.471c0.09-0.697,0.956-0.226,1.133,0.169
			c1.254,0.188,2.504,0.376,3.758,0.565c-1.253-0.188-2.504-0.373-3.758-0.561c3.935,8.758-0.41,16.729,1.258,25.069
			c-0.022,0.007-0.03-0.008-0.019-0.049c-1.999-7.971-3.46-16.627-2.372-25.189c-1.05-0.154-2.101-0.313-3.151-0.467
			c-1.969,1.054-3.942,2.101-5.915,3.148c-0.768-0.109-1.528-0.241-2.278-0.399c-0.356-0.362-0.712-0.722-1.068-1.084
			c0.663,8.165,1.167,16.311,1.256,24.402C527.889,386.231,519.839,367.323,521.458,349.585z M507.29,262.074
			c0.851,0.248,0.927,0.61,0.229,1.088c-0.267-0.154-0.535-0.305-0.783-0.448C506.943,262.473,507.116,262.273,507.29,262.074z
			 M512.896,299.406c-0.098,0.09-0.196,0.185-0.297,0.26C512.7,299.59,512.798,299.496,512.896,299.406
			c-1.856-1.178-1.461-2.617-3.792-3.298c-0.957,0.166-1.905,0.331-2.835,0.523c0.105-0.471,0.328-0.908,0.614-1.329
			c-9.04-2.749-5.166-9.202,3.615-3.607c4.288-4.307,1.864-6.1,9.251-3.49c3.298,3.855-2.865,6.171-5.377,6.838
			c1.295,5.234,5.023,15.494-3.983,16.861C506.175,312.588,516.521,301.725,512.896,299.406z M519.078,351.663
			c0.463-0.768,1.841-0.971,1.118,0.264C519.82,351.84,519.451,351.75,519.078,351.663z M520.016,377.481
			c-1.05,1.242-2.097,2.485-3.144,3.727c1.046-1.242,2.093-2.485,3.14-3.731L520.016,377.481z M505.983,449.28
			c17.407-28.07,45.484-39.576,74.807-50.134c-17.747,6.256-33.357,18.777-48.193,31.652c0.924,0.22,1.628,0.88,2.111,1.986
			c-0.838-0.543-1.68-1.086-2.523-1.629c-9.181,7.979-18.07,16.072-26.989,22.876C502.824,452.905,503.087,451.32,505.983,449.28z
			 M532.498,437.122c-0.885,0-1.773,0-2.658,0c0.753-0.565,1.506-1.129,2.259-1.694
			C532.234,435.992,532.362,436.557,532.498,437.122z M500.734,382.105c-0.358,0.196-0.674,0.576-1.017,0.828h-0.004
			C500.06,382.681,500.376,382.301,500.734,382.105z M493.272,473.193c2.161,0.109,1.74,0.712,0.893,1.98
			C492.18,475.026,491.882,474.367,493.272,473.193z M477.371,493.75c1.001,0.414,2.064,0.764,3.11,1.137
			c32.761-49.708,82.525-76.547,137.279-95.358c-29.779,10.181-59.268,26.797-84.943,44.934
			c-8.886,6.277-54.012,51.007-53.021,51.508c-1.932,1.453-4.59,1.382-7.545,0.678C470.5,492.512,473.493,492.158,477.371,493.75z
			 M479.021,373.979c-0.245,22.516-2.35,48.428-8.284,70.236c10.842-39.384-5.099-87.845,9.778-127.717
			c0.247-0.703,0.504-1.403,0.787-2.093c-0.279,0.693-0.526,1.395-0.787,2.093C474.319,334.184,479.219,355.895,479.021,373.979z
			 M461.241,460.974c0.41-1.815,0.753-3.664,1.092-5.49c-1.634,8.355-0.396,17.663-0.297,26.123
			c-1.45-6.809-2.524-13.784-3.226-20.841l-0.656-0.056c0.04-1.576,0.128-3.164,0.243-4.759
			c-1.582-21.324,0.356-43.237,6.521-63.565c0.282-0.926,0.523,5.241,0.466,5.749c0.956-0.825,2.462-1.476,4.921-1.822
			c-0.512,3.377-2.236,5.923-5.169,7.632c-0.614,3.984-0.881,7.918-1.261,11.894c-1.277,13.171-4.527,26.922-5.477,40.111
			c0.12,1.609,0.254,3.214,0.414,4.815L461.241,460.974z M455.518,370.926c-0.03-3.765,12.226-20.908,15.724-10.561
			c-0.641-1.905-11.613,11.484-11.985,12.836c0.956,0.113,1.901,1.51,1.246,2.428c3.208,1.167,11.778-2.101,12.877-1.081
			C475.474,376.498,455.299,387.7,455.518,370.926z M456.911,349.479c1.487,1.213,8.513-2.417,10.173,3.637
			C463.692,356.859,460.002,351.987,456.911,349.479z M481.197,280.294c-2.199,1.623-4.183,3.332-4.213,6.506
			c0.828,7.538-4.461,5.52-3.321,1.773C477.744,275.199,478.049,282.609,481.197,280.294z M470.846,265.135
			c3.757-0.181,8.464,2.308,9.123,4.714C476.25,273.934,467.759,265.278,470.846,265.135z M469.777,291.258
			c0.437-1.529,3.543-2.116,3.867-0.015C474.216,295.042,469.362,291.247,469.777,291.258z M472.943,305.457
			c0.022,0,0.022,0.015-0.004,0.045c-1.066,6.149-2.402,16.029-6.533,21.33c-0.071,0.09,0.147-10.215,1.028-12.504
			C468.783,310.807,472.345,309.35,472.943,305.457z M467.179,289.451c0.022,0.004,0.019,0.022-0.011,0.049
			c-1.92,5.689-11.409,20.972-11.476,21.541C456.824,301.499,463.801,297.327,467.179,289.451z M431.496,400.234
			c4.815-24.191,13.867-43.917,27.211-64.863c-0.572-0.222-1.169-0.429-1.824-0.594l-0.428,0.188
			c-1.247,1.627-3.359,2.466-6.123,2.711c1.043-1.811,2.523-3.23,6.123-2.711l0.425-0.188c0.001,0,0.001,0.001,0.002,0.001
			l0.001-0.001c0.652,0.166,1.25,0.373,1.822,0.595c1.626-2.568,2.256-1.811,1.148,0.497c0.64,0.313,1.246,0.655,1.811,1.035
			c-0.565-0.38-1.171-0.723-1.811-1.035c-7.101,14.805-13.777,29.711-20.859,44.524
			C435.664,387.301,433.074,392.692,431.496,400.234z M448.79,410.479c-2.041,5.746-5.351,10.931-7.259,16.416
			c1.973-12.177,5.064-27.783,12.53-38.27C451.978,391.518,450.695,405.272,448.79,410.479z M419.455,431.18
			c-0.019,0.023-0.038,0.008-0.049-0.053c-6.597-7.64-15.471-22.701-22.599-27.697C408.298,411.394,411.413,420.886,419.455,431.18z
			 M393.486,412.663c-1.943,0.516-4.01,0.81-6.103,0.874L393.486,412.663z M392.123,427.031c1.363,0.038,2.335,0.618,2.165,1.483
			c27.483,20.078,54.37,43.203,76.603,69.108c0.947,1.084,1.88,2.171,2.783,3.263c-0.915-1.095-1.852-2.177-2.783-3.263
			c-18.683-21.382-45.594-41.275-67.464-58.257c-0.41,2.82-10.177,3.279-9.869,0.376c2.244-2.255,5.023-2.786,8.34-1.585
			c-3.238-2.764-6.4-5.486-9.767-8.065c-1.495,0.403-2.756-0.071-3.784-1.423c0.181-0.399,0.489-0.697,0.852-0.945
			c-10.002-8.386-21.9-18.515-32.091-25.456c-1.004-0.67-2.004-1.347-3.02-2c0.985,0.627,1.998,1.303,3.02,2
			C369.034,410.224,380.191,419.224,392.123,427.031z M319.813,415.841c0.162-0.817,0.591-1.634,1.453-2.444
			c0.012-0.045,0.038-0.079,0.053-0.124c-2.793-2.79,17.192-5.486,20.938-2.993c3.63,2.417,13.035,17.271,4.093,18.698
			c-0.979,0.147,0.354-20.965-14.361-16.153c1.849,2.161-0.256,7.361-0.527,8.649c7.707,5.32-1.374,10.618-5.067,4.541
			c-0.524-0.064-0.972,0.023-1.352,0.256C320.246,425.958,318.928,420.337,319.813,415.841z M310.441,402.964
			c5.798,2.959,5.798,3.701,0,6.747C310.441,407.46,310.441,405.212,310.441,402.964z M308.441,407.622
			c-21.171-3.615-47.927-11.055-68.015-11.111C264.788,396.51,285.033,403.525,308.441,407.622z M192.948,401.254
			c2.94-23.755,244.219,70.729,234.369,84.503c-0.918,1.284-99.265-48.375-112.104-52.671
			c-36.998-12.372-75.831-15.599-112.798-27.132C198.708,405.332,195.554,403.766,192.948,401.254z M322.433,467.033h-0.004
			c-0.068-0.004-0.135-0.008-0.2-0.011c1.047,5.143-6.265,5.143-5.535,2.169c0.557-2.293,3.859-2.297,5.535-2.169
			c-0.007-0.038-0.007-0.075-0.014-0.117l0.538-0.305l-0.324,0.433H322.433z M321.496,478.712c-1.401,0.03-2.801,0.056-4.202,0.086
			c0.565-0.666,1.021-1.382,1.721-1.98C321.397,474.785,324.12,476.86,321.496,478.712z M262.261,426.779
			c-1.529,2.688-4.736,2.075-6.954,1.34c-1.28-1.766,4.759-2.557,4.8-2.564c-2.61-1.501-10.175-4.783-15.795-7.13
			c-2.458-0.707-4.924-1.384-7.406-1.997c0,0,0.027,0,0.049,0c0.35-0.199,0.651-0.369,0.949-0.538
			c-1.021-0.496,2.131,0.749,6.408,2.536c28.316,8.14,55.026,22.408,78.162,41.22c-3.242-2.636-13.894-6.48-18.815-9.537
			C290.18,441.787,276.181,434.426,262.261,426.779z M279.864,448.583c3.125-19.94,6.555,8.558,7.752,9.575
			c7.139,6.058,12.949-1.792,15.52,0.136C305.245,459.819,277.033,475.787,279.864,448.583z M276.117,455.078
			c4.127-3.464,3.769,9.074-2.315,4.658C273.651,458.004,274.495,456.437,276.117,455.078z M273.76,440.646
			c-0.026,0.023-0.53-0.23-0.821-0.354c0.52-1.009,1.167-1.205,1.947-0.591C274.521,440.021,274.171,440.352,273.76,440.646z
			 M253.458,438.997c-6.164-4.356-15.159-8.321-20.626-13.585C234.907,427.445,248.944,435.465,253.458,438.997z M220.438,427.415
			l-0.723,0.057l0.275-0.463L220.438,427.415z M268.825,478.227c-0.347,1.762-5.321,1.871-4.843,0.06
			C264.683,475.613,269.205,476.352,268.825,478.227z M287.88,488.396c-0.599-0.109-1.201-0.215-1.804-0.324
			c0.61,0.102,1.216,0.203,1.826,0.305L287.88,488.396z M362.818,519.813c-53.71-3.886-91.517-50.966-131.42-80.937
			c-2.768-0.49-5.72-0.636-8.853-0.456c-0.497,1.145-5.403,5.226-5.512,0.821c2.643-1.887,5.49-3.377,8.539-4.477
			c-3.927-2.466-12.696-8.743-14.741-9.816c5.689,3.008,11.111,6.19,16.661,9.421c4.496-0.606,15.693,2.809,14.899,9.255
			c-1.71-1.337-3.57-2.368-5.543-3.178c10.616,7.861,23.18,22.732,35.271,27.958c0.407-0.153,12.164-2.177,12.923,0.435
			c0.81,2.771-7.334,3.43-8.633,3.223c6.321,5.197,12.75,10.292,19.439,15.006c0.061-0.5,5.194-7.113,6.328-7.327
			c-1.761-1.147-3.619-2.112-5.574-2.89c-0.689-0.794,5.2-9.812,9.624-2.459c27.322,14.049,55.599,31.985,84.924,41.818
			c1.643,0.536,3.289,1.068,4.952,1.584c-1.654-0.499-3.304-1.032-4.952-1.584c-29.584-9.656-56.006-22.562-82.777-39.174
			c0.998,1.205-3.185,7.583-2.768,10.302c-3.196-0.053-6.396-0.105-9.594-0.154c23.841,16.868,47.762,32.415,77.759,32.87
			C370.165,519.99,366.444,519.964,362.818,519.813z M371.095,565.963c-1.965,2.157-15.407,12.606-11.684,6.63
			C362.322,567.887,367.85,569.205,371.095,565.963z M532.136,690.998c2.839-1.792,5.264-1.442,7.271,1.058
			C536.907,694.082,534.482,693.732,532.136,690.998z M721.744,798.841l0.339,1.303l-1.894-0.418L721.744,798.841z M700.644,637.984
			c-5.399,0.953-10.035,1.853-14.737,2.56c-2.507,0.915-4.269,0.26-5.294-1.958C681.675,629.215,697.914,635.785,700.644,637.984z
			 M707.398,503.871c-0.599-0.527-0.448-0.798,0.452-0.806C708.45,503.589,708.299,503.86,707.398,503.871z M781.641,451.215
			l0.121,0.493l-0.934-0.185L781.641,451.215z M770.534,462.838c-1.766,0.203-3.535,0.403-5.305,0.606
			c0.127-0.553,0.188-1.118,0.402-1.657C767.484,457.149,770.94,460.632,770.534,462.838z M784.077,457.827
			c-2.237,1.103-3.355,0.181-5.042-0.678c-0.049,0.105-0.067,0.207-0.106,0.309c0.015-0.169,0.057-0.328,0.034-0.523
			c-1.303-1.156-1.141-2.248,0.486-3.272C780.801,453.312,786.49,456.637,784.077,457.827z M796.83,445.771
			c-1.476,1.115-2.952,2.229-4.432,3.34c-2.53,2.873-5.99,0.147-2.44-0.843C788.817,450.774,797.293,440.036,796.83,445.771z
			 M810.577,439.185l6.103-0.874C814.737,438.828,812.67,439.121,810.577,439.185z M834.813,404.609
			c-0.354-0.301-0.705-0.601-1.055-0.901c-0.046-0.003-0.074-0.014-0.056-0.048c0.019,0.016,0.037,0.032,0.056,0.048
			C834.248,403.741,837.94,402.299,834.813,404.609z"/>
		<path style="fill:#C2A584;" d="M699.451,770.599c0.078,0.124,0.155,0.248,0.233,0.373
			C699.606,770.848,699.529,770.723,699.451,770.599z"/>
		<path style="fill:#C2A584;" d="M381.04,702.066c0.856-1.338,1.699-2.679,2.513-4.027
			C382.731,699.382,381.887,700.724,381.04,702.066z"/>
		<path style="fill:#C2A584;" d="M645.777,623.706c-3.618-8.659-8.892-17.877-15.123-27.174c-0.107-0.036-0.216-0.052-0.322-0.093
			C635.348,605.445,641.801,614.192,645.777,623.706z"/>
		<path style="fill:#C2A584;" d="M498.563,622.576c-0.385,0.887-0.795,1.748-1.251,2.557
			C497.793,624.319,498.203,623.463,498.563,622.576z"/>
		<path style="fill:#C2A584;" d="M526.806,377.207c-0.058-0.717-0.117-1.434-0.177-2.151c-0.436,0.215-0.874,0.426-1.308,0.644
			C525.816,376.199,526.311,376.704,526.806,377.207z"/>
		<path style="fill:#C2A584;" d="M480.515,316.499c0.26-0.698,0.507-1.4,0.787-2.093
			C481.02,315.096,480.762,315.796,480.515,316.499z"/>
		<path style="fill:#C2A584;" d="M362.525,700.471c0.457,0.448,0.92,0.889,1.381,1.332c0.293-0.561,0.584-1.119,0.872-1.669
			c-0.705,0.073-1.481,0.19-2.246,0.334L362.525,700.471z"/>
		<path style="fill:#C2A584;" d="M531.523,430.728c0.221,0.142,0.44,0.285,0.662,0.427c0.137-0.119,0.275-0.238,0.412-0.357
			C532.267,430.72,531.91,430.694,531.523,430.728z"/>
		<path style="fill:#C2A584;" d="M381.402,632.122c-0.326-0.173-0.564-0.297-0.646-0.339
			C380.949,632.032,381.168,632.129,381.402,632.122z"/>
		<path style="fill:#C2A584;" d="M358.904,670.971c2.813-4.021,5.682-8.064,8.606-12.146
			C364.648,662.758,361.772,666.818,358.904,670.971z"/>
		<path style="fill:#C2A584;" d="M435.773,624.734c-0.445,0.585-0.88,1.183-1.329,1.762
			C434.891,625.925,435.333,625.334,435.773,624.734z"/>
		<path style="fill:#C2A584;" d="M675.214,697c0.181,0.282,0.365,0.561,0.548,0.842C675.74,697.562,675.572,697.274,675.214,697z"/>
		<path style="fill:#C2A584;" d="M630.079,571.143c-4.416-5.068-8.628-9.88-11.617-13.742
			C621.872,562.176,625.931,566.656,630.079,571.143z"/>
		<path style="fill:#C2A584;" d="M649.338,595.783c0.226,0.431,0.464,0.854,0.679,1.292
			C649.813,596.658,649.581,596.224,649.338,595.783z"/>
		<path style="fill:#C2A584;" d="M551.903,543.294c-0.077,0.031-0.156,0.068-0.237,0.116
			C551.744,543.367,551.822,543.325,551.903,543.294z"/>
		<path style="fill:#C2A584;" d="M540.558,530.538c3.853,3.11,7.797,6.112,12.034,8.802
			C548.644,536.792,544.61,533.745,540.558,530.538z"/>
		<path style="fill:#C2A584;" d="M503.408,496.002c-0.26-0.004-0.518-0.02-0.776-0.033c0.007,0.002,0.013,0.004,0.02,0.007
			L503.408,496.002z"/>
		<path style="fill:#C2A584;" d="M551.951,543.278c0.093-0.034,0.189-0.062,0.287-0.082
			C552.147,543.204,552.048,543.243,551.951,543.278z"/>
		<path style="fill:#C2A584;" d="M458.153,460.711l0.656,0.056c-0.16-1.601-0.294-3.206-0.414-4.815
			C458.281,457.547,458.193,459.135,458.153,460.711z"/>
		<path style="fill:#C2A584;" d="M357.107,402.268c-1.023-0.697-2.035-1.373-3.02-2
			C355.103,400.922,356.103,401.598,357.107,402.268z"/>
		<path style="fill:#C2A584;" d="M701.245,447.181c-1.908,0.634-3.805,1.277-5.688,1.933
			C697.444,448.459,699.341,447.816,701.245,447.181z"/>
		<path style="fill:#C2A584;" d="M237.904,415.89c-0.297,0.169-0.599,0.339-0.949,0.538c-0.022,0-0.049,0-0.049,0
			c2.482,0.613,4.948,1.291,7.406,1.997C240.035,416.639,236.883,415.394,237.904,415.89z"/>
		<path style="fill:#C2A584;" d="M614.084,510.799c3.083-1.171,7.415-3.068,11.818-5.084c-0.459,0.127-0.904,0.263-1.384,0.375
			C620.998,506.908,617.532,509.295,614.084,510.799z"/>
		<path style="fill:#C2A584;" d="M391.151,516.211c1.647,0.552,3.297,1.085,4.952,1.584
			C394.44,517.279,392.794,516.747,391.151,516.211z"/>
		<path style="fill:#C2A584;" d="M664.78,464.116c0.043-0.188,0.083-0.372,0.136-0.57
			C664.856,463.749,664.814,463.936,664.78,464.116z"/>
		<path style="fill:#C2A584;" d="M508.51,554.184c-0.624-0.724-1.253-1.446-1.891-2.163
			C507.255,552.73,507.881,553.461,508.51,554.184z"/>
		<path style="fill:#C2A584;" d="M746.198,413.677c1.356-0.127,2.733-0.337,4.042-0.505
			C748.899,413.329,747.551,413.498,746.198,413.677z"/>
		<path style="fill:#C2A584;" d="M302.178,479.742c0.07,0.046,0.143,0.087,0.213,0.134
			C302.366,479.758,302.29,479.721,302.178,479.742z"/>
		<path style="fill:#C2A584;" d="M356.497,608.812c0.635-0.908,1.272-1.813,1.909-2.717c-0.759,0.496-1.517,0.992-2.275,1.486
			C356.058,608.083,356.213,608.486,356.497,608.812z"/>
		<path style="fill:#C2A584;" d="M446.565,510.405c0.966-0.049,1.927-0.122,2.883-0.219
			C448.481,510.279,447.522,510.347,446.565,510.405z"/>
		<path style="fill:#C2A584;" d="M470.891,497.623c0.931,1.086,1.868,2.168,2.783,3.263
			C472.771,499.794,471.838,498.707,470.891,497.623z"/>
		<path style="fill:#C2A584;" d="M550.909,500.412c-0.1-0.04-0.205-0.072-0.301-0.117
			C550.691,500.334,550.794,500.373,550.909,500.412z"/>
		<path style="fill:#C2A584;" d="M456.883,334.777c0.655,0.166,1.252,0.372,1.824,0.594c-0.572-0.222-1.17-0.429-1.822-0.595
			L456.883,334.777z"/>
		<path style="fill:#C2A584;" d="M561.97,501.909c-2.31-1.017-5.451-0.725-8.161-0.921
			C555.972,501.299,558.907,501.597,561.97,501.909z"/>
		<path style="fill:#C2A584;" d="M519.142,211.631c-1.799,10.031-3.117,20.087-5.094,30.069c3.332-1.57,6.763-2.911,10.283-4.021
			c0.56-7.47,1.332-14.786,1.46-22.275C523.065,215.513,520.852,214.256,519.142,211.631z"/>
	</g>
</g>
</svg>
