<svg width="363" height="101" viewBox="0 0 363 101" fill="none" xmlns="http://www.w3.org/2000/svg" xmlns:xlink="http://www.w3.org/1999/xlink">
<rect width="362.727" height="100.483" fill="url(#pattern0_19_25)"/>
<path d="M136.941 62.3983C135.4 62.3983 134.023 62.1083 132.809 61.5283C131.612 60.9664 130.67 60.1961 129.981 59.2173C129.31 58.2386 128.975 57.1601 128.975 55.982C128.975 54.822 129.301 52.2211 129.954 48.1792L133.38 48.3695C133.162 49.747 132.963 51.1789 132.781 52.6651C132.6 54.1514 132.51 55.1301 132.51 55.6014C132.51 56.2358 132.691 56.8158 133.053 57.3414C133.416 57.8851 133.923 58.3111 134.576 58.6192C135.246 58.9273 135.99 59.0814 136.805 59.0814C137.621 59.0814 138.337 58.9273 138.953 58.6192C139.587 58.3111 140.068 57.8942 140.394 57.3686C140.738 56.8429 140.91 56.272 140.91 55.6558V42.062H144.554V56.0364C144.554 57.1964 144.236 58.2567 143.602 59.2173C142.986 60.1961 142.098 60.9664 140.938 61.5283C139.796 62.1083 138.464 62.3983 136.941 62.3983ZM135.283 38.5276H138.627V42.062H135.283V38.5276ZM161.518 36.6245V55.6558H147.136V52.3389H150.561V40.2948H154.204V52.3389H157.875V36.6245H161.518ZM154.286 38.4189C154.068 38.4189 153.76 38.3555 153.361 38.2286C152.981 38.0836 152.627 37.9476 152.301 37.8208C151.486 37.4401 150.987 37.2498 150.806 37.2498C150.643 37.2498 150.434 37.3586 150.181 37.5761C149.927 37.7755 149.773 37.8933 149.718 37.9295L149.311 38.3101L148.685 36.2439C149.011 35.8995 149.365 35.6095 149.746 35.3739C150.126 35.1383 150.507 35.0205 150.887 35.0205C151.25 35.0205 151.911 35.2289 152.872 35.6458C153.706 36.0083 154.177 36.1895 154.286 36.1895C154.467 36.1895 154.811 35.972 155.319 35.537L155.7 35.1564L156.352 37.2498C155.627 38.0292 154.938 38.4189 154.286 38.4189ZM165.56 36.6245H169.203V55.6558H165.56V36.6245ZM197.273 36.6245V55.6558H186.479C184.903 55.6558 183.561 55.5379 182.456 55.3023C181.368 55.0667 180.471 54.5683 179.764 53.807C179.057 53.0458 178.704 51.913 178.704 50.4086C178.704 49.1398 178.921 47.5992 179.356 45.7867L182.401 45.9498L182.265 47.0645C182.102 48.3695 182.021 49.2033 182.021 49.5658C182.021 51.4145 183.362 52.3389 186.044 52.3389H193.63V36.6245H197.273ZM190.993 45.1886L185.038 46.3576L184.739 45.0798L185.99 44.7536C185.283 44.1555 184.93 43.4214 184.93 42.5514C184.93 41.8083 185.193 41.1648 185.718 40.6211C186.262 40.0773 186.951 39.8055 187.784 39.8055C188.491 39.8055 189.198 40.023 189.905 40.458L189.552 42.0892C189.443 41.9986 189.289 41.917 189.089 41.8445C188.89 41.7539 188.663 41.7086 188.41 41.7086C187.993 41.7086 187.648 41.8445 187.377 42.1164C187.123 42.3883 186.996 42.7145 186.996 43.0951C186.996 43.6026 187.213 44.0105 187.648 44.3186L190.612 43.5301L190.993 45.1886ZM215.726 52.3389V55.6558H200.528V52.3389H209.255V51.3601C209.255 49.0039 208.811 47.3273 207.923 46.3305C207.035 45.3155 205.975 44.808 204.742 44.808H201.996L201.724 41.9533C202.286 41.8264 202.921 41.7086 203.628 41.5998C204.353 41.4911 205.014 41.4367 205.612 41.4367C207.062 41.4367 208.331 41.7992 209.418 42.5242C210.524 43.2311 211.376 44.3005 211.974 45.7323C212.59 47.1642 212.898 48.9223 212.898 51.0067V52.3389H215.726ZM230.588 52.3389V55.6558H215.716V52.3389H219.549C218.951 51.2514 218.652 49.9555 218.652 48.4511C218.652 46.8561 218.988 45.5601 219.658 44.5633C220.347 43.5483 221.19 42.8233 222.187 42.3883C223.183 41.9533 224.171 41.7358 225.15 41.7358C225.821 41.7358 226.591 41.8355 227.461 42.0348C228.349 42.2161 229.119 42.4698 229.772 42.7961L229.609 46.2217C229.047 45.9498 228.367 45.687 227.57 45.4333C226.79 45.1795 226.093 45.0526 225.476 45.0526C224.643 45.0526 223.899 45.3245 223.247 45.8683C222.613 46.412 222.295 47.3273 222.295 48.6142C222.295 49.448 222.431 50.182 222.703 50.8164C222.993 51.4326 223.338 51.9401 223.736 52.3389H230.588ZM248.399 55.6558H244.974C244.575 60.1508 242.69 62.3983 239.319 62.3983C238.34 62.3983 236.763 62.2261 234.588 61.8817V58.592C236.763 58.9183 238.231 59.0814 238.992 59.0814C239.572 59.0814 240.026 58.9817 240.352 58.7823C240.678 58.5829 240.914 58.2386 241.059 57.7492C241.222 57.2598 241.303 56.562 241.303 55.6558H238.15C234.398 55.6558 232.522 53.5351 232.522 49.2939C232.522 47.137 232.757 45.4967 233.229 44.373C233.718 43.2492 234.398 42.497 235.268 42.1164C236.156 41.7176 237.316 41.5183 238.748 41.5183C239.799 41.5183 240.914 41.5908 242.092 41.7358C243.27 41.8626 244.258 42.0167 245.055 42.198V52.3389H248.399V55.6558ZM236.165 49.0764C236.165 50.0008 236.364 50.7801 236.763 51.4145C237.162 52.0308 237.959 52.3389 239.156 52.3389H241.412V44.9711C240.723 44.8805 240.062 44.8351 239.427 44.8351C238.666 44.8351 238.059 44.9439 237.606 45.1614C237.153 45.3608 236.799 45.7686 236.546 46.3848C236.292 46.983 236.165 47.8801 236.165 49.0764ZM258.622 41.8173C260.489 41.8173 261.921 42.0892 262.917 42.633C263.932 43.1767 264.612 43.947 264.957 44.9439C265.319 45.9408 265.5 47.2458 265.5 48.8589V55.6558H248.399V52.3389H252.641C252.387 51.0339 252.26 49.883 252.26 48.8861C252.26 47.8892 252.36 46.8198 252.559 45.678C252.758 44.5361 252.985 43.5483 253.239 42.7145C253.728 42.4789 254.453 42.2705 255.414 42.0892C256.374 41.908 257.444 41.8173 258.622 41.8173ZM255.794 48.8861C255.794 49.5023 255.831 50.1367 255.903 50.7892C255.994 51.4236 256.084 51.9401 256.175 52.3389H261.857V48.7773C261.857 47.5086 261.603 46.5751 261.096 45.977C260.607 45.3789 259.655 45.0798 258.241 45.0798C257.552 45.0798 256.864 45.1523 256.175 45.2973C255.921 46.6567 255.794 47.853 255.794 48.8861ZM284.924 55.6558H280.438C280.42 57.7945 280.03 59.4529 279.269 60.6311C278.526 61.8092 277.402 62.3983 275.898 62.3983C275.662 62.3983 275.001 62.362 273.913 62.2895V59.027L274.837 59.0814C275.49 59.0814 275.979 58.8186 276.306 58.2929C276.632 57.7854 276.795 57.0604 276.795 56.1179V42.062H280.438V52.3389H284.924V55.6558ZM276.931 35.9992H280.275V39.5336H276.931V35.9992ZM301.626 52.3389V55.6558H284.933V52.3389H295.182V47.2276C295.182 46.4483 295.01 45.8683 294.666 45.4876C294.339 45.0889 293.768 44.8895 292.953 44.8895C291.285 44.9439 289.835 44.9983 288.603 45.0526L287.216 45.107L287.108 42.6873C288.05 42.4336 289.192 42.2251 290.533 42.062C291.874 41.8808 293.007 41.7901 293.932 41.7901C295.635 41.7901 296.868 42.1526 297.629 42.8776C298.408 43.5845 298.807 44.7173 298.825 46.2761V52.3389H301.626ZM291.648 57.8308H294.992V61.3651H291.648V57.8308ZM310.632 41.7901C312.335 41.7901 313.568 42.1526 314.329 42.8776C315.109 43.5845 315.507 44.7173 315.525 46.2761V55.6558H301.633V52.3389H311.882V47.2276C311.882 46.4483 311.71 45.8683 311.366 45.4876C311.04 45.0889 310.469 44.8895 309.653 44.8895C307.985 44.9439 306.535 44.9983 305.303 45.0526L303.916 45.107L303.808 42.6873C304.75 42.4336 305.892 42.2251 307.233 42.062C308.575 41.8808 309.707 41.7901 310.632 41.7901ZM319.34 36.6245H322.983V55.6558H319.34V36.6245Z" fill="white"/>
<defs>
<pattern id="pattern0_19_25" patternContentUnits="objectBoundingBox" width="1" height="1">
<use xlink:href="#image0_19_25" transform="scale(0.000486855 0.00175747)"/>
</pattern>
<image id="image0_19_25" width="2054" height="569" preserveAspectRatio="none"/>
</defs>
</svg>
