<svg xmlns="http://www.w3.org/2000/svg" width="512" height="512"><path d="M192 0h128v43h-42v43l12 1c28.92 4.911 57.724 14.62 81.775 31.736 3.297 2.527 3.297 2.527 7.23 3.063 2.277-.912 3.484-1.925 5.203-3.666.6-.601 1.2-1.202 1.82-1.82l1.925-1.973 2-2.014c2.107-2.122 4.202-4.255 6.297-6.388q2.139-2.163 4.281-4.323Q405.777 96.32 411 91c4.505 3.771 8.802 7.66 12.934 11.836l1.584 1.588q2.461 2.473 4.92 4.951l3.373 3.387q4.098 4.115 8.189 8.238c-1.652 4.29-4.89 7.143-8.102 10.297l-1.807 1.799c-1.9 1.89-3.808 3.772-5.716 5.654l-3.875 3.848q-4.743 4.708-9.5 9.402 1.397 1.893 2.8 3.781l1.576 2.127c1.522 1.96 3.119 3.779 4.812 5.592 36.105 40.867 50.69 98.347 47.539 151.813C465.966 366.526 443.474 413.32 408 450l-2.258 2.414c-6.329 6.61-13.449 12.098-20.742 17.586l-1.708 1.302c-23.2 17.608-49.972 29.167-78.167 36.01l-3.021.735c-15.255 3.549-29.878 4.36-45.479 4.328l-3.1-.002c-15.23-.037-29.684-.678-44.525-4.373l-2.74-.633C157.95 496.119 114.813 467.533 85 428l-2.156-2.812c-33.74-44.986-46.369-102.394-38.88-157.668 3.551-23.591 10.639-46.622 22.015-67.63a397 397 0 0 0 3.033-5.761C76.952 179.145 87.179 165.165 99 153c-5.527-6.74-11.694-12.807-17.875-18.937l-3.242-3.229A5954 5954 0 0 0 70 123c1.28-2.81 2.607-4.854 4.797-7.024l1.699-1.698 1.824-1.794 1.875-1.866q2.959-2.939 5.93-5.868l4.02-3.992Q95.065 95.87 100 91a158 158 0 0 1 13.012 12.09q1.646 1.688 3.295 3.373 2.557 2.621 5.095 5.26a656 656 0 0 0 4.985 5.117l1.528 1.616c1.573 1.643 1.573 1.643 4.085 3.544 4.031-.127 7.336-2.903 10.688-5 26.85-16.333 59.269-31 91.312-31V43h-42zm-59.305 180.951C109.164 205.291 94.622 236.021 88 269l-.75 3.645C83.96 292.272 84.825 313.578 89 333l.504 2.362c6.394 28.856 19.992 55.688 40.254 77.243a124 124 0 0 1 5.367 6.145c25.321 29.67 67.74 45.693 105.438 50 42.052 2.728 83.64-8.004 117.437-33.75l2.633-1.96c36.347-28.32 59.086-69.627 64.93-115.145 1.874-17.848 1.171-36.347-2.563-53.895l-.472-2.298C418.05 240.612 409.146 220.76 397 203l-1.183-1.731C390.226 193.22 383.745 186.073 377 179l-2.36-2.555c-28.985-30.445-72.268-46.798-113.728-48.421-48.775-1.03-94.1 18.458-128.217 52.927"/><path d="M256 170c30.566 0 59.635 10.276 83 30l1.55 1.292c23.793 20.05 39.605 49.829 43.45 80.708.322 5.336.39 10.657.375 16v2.207c-.034 11.685-1.021 22.565-4.375 33.793l-1.027 3.805C372.979 357.982 361.286 374.808 347 390l-1.594 1.79c-19.685 21.19-50.894 33.862-79.428 35.37-38.171 1.383-71.223-9.82-99.728-35.652-21.349-20.44-34.127-47.416-38.25-76.508v-17h128z"/></svg>