<svg width="363" height="101" viewBox="0 0 363 101" fill="none" xmlns="http://www.w3.org/2000/svg" xmlns:xlink="http://www.w3.org/1999/xlink">
<rect width="362.727" height="100.483" fill="url(#pattern0_25_37)"/>
<path d="M168.322 67.3454C166.661 67.3454 165.171 67.0399 163.853 66.4288C162.555 65.8368 161.533 65.0061 160.788 63.9367C160.044 62.8672 159.671 61.6546 159.671 60.2987C159.671 59.9168 159.7 59.4107 159.757 58.7806C159.814 58.1504 159.891 57.4438 159.986 56.6608C160.101 55.8779 160.215 55.0853 160.33 54.2833C160.464 53.4621 160.588 52.6696 160.702 51.9058L164.483 52.4214C164.273 53.7008 164.092 54.8753 163.939 55.9447C163.806 56.995 163.701 57.8926 163.624 58.6373C163.548 59.3821 163.51 59.9264 163.51 60.2701C163.51 61.034 163.701 61.6928 164.082 62.2466C164.464 62.8004 165.009 63.2301 165.715 63.5356C166.441 63.8603 167.31 64.0226 168.322 64.0226C169.372 64.0226 170.222 63.8698 170.871 63.5643C171.521 63.2587 171.988 62.8386 172.275 62.3039C172.58 61.7692 172.733 61.1676 172.733 60.4993V45.8616H176.572V60.4993C176.572 61.8742 176.209 63.0773 175.483 64.1085C174.777 65.1398 173.803 65.9323 172.561 66.4861C171.32 67.059 169.907 67.3454 168.322 67.3454ZM166.231 44.8304V41.5649H170.069V44.8304H166.231ZM179.7 60.2415V56.9186H194.252L192.419 58.8092V39.9894H196.257V60.2415H179.7ZM183.682 56.9186V43.9997H187.492V56.9186H183.682ZM182.536 41.88L181.018 40.7342L182.536 38.4712H184.742C185.009 38.6813 185.324 38.8436 185.687 38.9582C186.05 39.0728 186.422 39.1301 186.804 39.1301C187.186 39.1301 187.549 39.0728 187.893 38.9582C188.256 38.8436 188.561 38.6813 188.809 38.4712L190.012 39.3306C189.783 39.7125 189.487 40.0754 189.124 40.4191C188.781 40.7437 188.37 41.0111 187.893 41.2212C187.415 41.4121 186.862 41.5076 186.231 41.5076C185.773 41.5076 185.334 41.4503 184.914 41.3357C184.494 41.2021 184.112 41.0111 183.768 40.7628L182.536 41.88ZM200.938 60.2415V39.9894H204.748V60.2415H200.938ZM220.223 60.2415V56.9186H223.918V60.2415H220.223ZM214.666 67.3454C214.418 67.3454 214.15 67.3359 213.864 67.3168C213.578 67.2977 213.282 67.269 212.976 67.2308L213.119 63.9653C213.425 63.9844 213.711 64.0035 213.979 64.0226C214.265 64.0417 214.475 64.0512 214.609 64.0512C215.353 64.0512 215.945 63.7552 216.385 63.1632C216.843 62.5713 217.072 61.7405 217.072 60.6711V45.8616H220.911V60.6711C220.911 61.9697 220.643 63.1251 220.109 64.1372C219.593 65.1493 218.867 65.9323 217.932 66.4861C216.996 67.059 215.907 67.3454 214.666 67.3454ZM223.918 60.2415V56.9186C224.033 56.9186 224.119 56.9568 224.176 57.0332C224.253 57.1096 224.31 57.2242 224.348 57.377C224.405 57.5297 224.444 57.7111 224.463 57.9212C224.482 58.1122 224.491 58.3318 224.491 58.58C224.491 58.8283 224.482 59.0575 224.463 59.2675C224.444 59.4776 224.405 59.659 224.348 59.8118C224.31 59.9455 224.253 60.0505 224.176 60.1269C224.119 60.2033 224.033 60.2415 223.918 60.2415ZM217.072 43.2263V39.9608H220.911V43.2263H217.072ZM223.928 60.2415V56.9186H231.089V60.2415H223.928ZM231.089 60.2415V56.9186C231.204 56.9186 231.29 56.9568 231.347 57.0332C231.423 57.1096 231.48 57.2242 231.519 57.377C231.576 57.5297 231.614 57.7111 231.633 57.9212C231.652 58.1122 231.662 58.3318 231.662 58.58C231.662 58.8283 231.652 59.0575 231.633 59.2675C231.614 59.4776 231.576 59.659 231.519 59.8118C231.48 59.9455 231.423 60.0505 231.347 60.1269C231.29 60.2033 231.204 60.2415 231.089 60.2415ZM223.928 60.2415C223.813 60.2415 223.727 60.2033 223.67 60.1269C223.594 60.0505 223.536 59.9455 223.498 59.8118C223.441 59.659 223.403 59.4776 223.384 59.2675C223.364 59.0575 223.355 58.8283 223.355 58.58C223.355 58.2363 223.374 57.9499 223.412 57.7207C223.45 57.4724 223.517 57.2815 223.613 57.1478C223.689 56.995 223.794 56.9186 223.928 56.9186V60.2415ZM231.089 60.2415V56.9186H238.25V60.2415H231.089ZM238.25 60.2415V56.9186C238.365 56.9186 238.451 56.9568 238.508 57.0332C238.584 57.1096 238.642 57.2242 238.68 57.377C238.737 57.5297 238.775 57.7111 238.795 57.9212C238.814 58.1122 238.823 58.3318 238.823 58.58C238.823 58.8283 238.814 59.0575 238.795 59.2675C238.775 59.4776 238.737 59.659 238.68 59.8118C238.642 59.9455 238.584 60.0505 238.508 60.1269C238.451 60.2033 238.365 60.2415 238.25 60.2415ZM231.089 60.2415C230.974 60.2415 230.889 60.2033 230.831 60.1269C230.755 60.0505 230.698 59.9455 230.659 59.8118C230.602 59.659 230.564 59.4776 230.545 59.2675C230.526 59.0575 230.516 58.8283 230.516 58.58C230.516 58.2363 230.535 57.9499 230.573 57.7207C230.612 57.4724 230.678 57.2815 230.774 57.1478C230.85 56.995 230.955 56.9186 231.089 56.9186V60.2415ZM238.25 60.2415V56.9186H245.412V60.2415H238.25ZM245.412 60.2415V56.9186C245.526 56.9186 245.612 56.9568 245.669 57.0332C245.746 57.1096 245.803 57.2242 245.841 57.377C245.898 57.5297 245.937 57.7111 245.956 57.9212C245.975 58.1122 245.984 58.3318 245.984 58.58C245.984 58.8283 245.975 59.0575 245.956 59.2675C245.937 59.4776 245.898 59.659 245.841 59.8118C245.803 59.9455 245.746 60.0505 245.669 60.1269C245.612 60.2033 245.526 60.2415 245.412 60.2415ZM238.25 60.2415C238.136 60.2415 238.05 60.2033 237.992 60.1269C237.916 60.0505 237.859 59.9455 237.821 59.8118C237.763 59.659 237.725 59.4776 237.706 59.2675C237.687 59.0575 237.677 58.8283 237.677 58.58C237.677 58.2363 237.696 57.9499 237.735 57.7207C237.773 57.4724 237.84 57.2815 237.935 57.1478C238.012 56.995 238.117 56.9186 238.25 56.9186V60.2415ZM260.25 60.2415V56.9186H263.286V60.2415H260.25ZM245.412 60.2415C245.297 60.2415 245.211 60.2033 245.154 60.1269C245.077 60.0505 245.02 59.9455 244.982 59.8118C244.925 59.659 244.886 59.4776 244.867 59.2675C244.848 59.0575 244.839 58.8283 244.839 58.58C244.839 58.2363 244.858 57.9499 244.896 57.7207C244.934 57.4724 245.001 57.2815 245.096 57.1478C245.173 56.995 245.278 56.9186 245.412 56.9186V60.2415ZM245.412 60.2415V56.9186H257.729L256.44 57.9785V52.6792C256.44 51.5334 256.077 50.6645 255.351 50.0725C254.645 49.4805 253.518 49.1845 251.971 49.1845C251.532 49.1845 250.93 49.2227 250.167 49.2991C249.403 49.3563 248.572 49.4518 247.674 49.5855L247.302 46.5491C248.123 46.3582 248.954 46.1958 249.794 46.0622C250.654 45.9285 251.494 45.8616 252.315 45.8616C253.881 45.8616 255.256 46.1385 256.44 46.6924C257.624 47.2271 258.55 48.0005 259.218 49.0126C259.906 50.0247 260.25 51.2469 260.25 52.6792V60.2415H245.412ZM263.286 60.2415V56.9186C263.382 56.9186 263.467 56.9568 263.544 57.0332C263.62 57.1096 263.678 57.2242 263.716 57.377C263.754 57.5297 263.783 57.7111 263.802 57.9212C263.84 58.1122 263.859 58.3318 263.859 58.58C263.859 58.8283 263.84 59.0575 263.802 59.2675C263.783 59.4776 263.754 59.659 263.716 59.8118C263.678 59.9455 263.62 60.0505 263.544 60.1269C263.467 60.2033 263.382 60.2415 263.286 60.2415ZM250.94 66.3428V63.0773H254.778V66.3428H250.94ZM263.287 60.2415V56.9186H275.604L274.315 57.9785V52.6792C274.315 51.5334 273.952 50.6645 273.227 50.0725C272.52 49.4805 271.393 49.1845 269.846 49.1845C269.407 49.1845 268.806 49.2227 268.042 49.2991C267.278 49.3563 266.447 49.4518 265.55 49.5855L265.177 46.5491C265.998 46.3582 266.829 46.1958 267.669 46.0622C268.529 45.9285 269.369 45.8616 270.19 45.8616C271.756 45.8616 273.131 46.1385 274.315 46.6924C275.499 47.2271 276.425 48.0005 277.094 49.0126C277.781 50.0247 278.125 51.2469 278.125 52.6792V60.2415H263.287ZM263.287 60.2415C263.172 60.2415 263.086 60.2033 263.029 60.1269C262.953 60.0505 262.895 59.9455 262.857 59.8118C262.8 59.659 262.762 59.4776 262.742 59.2675C262.723 59.0575 262.714 58.8283 262.714 58.58C262.714 58.2363 262.733 57.9499 262.771 57.7207C262.809 57.4724 262.876 57.2815 262.972 57.1478C263.048 56.995 263.153 56.9186 263.287 56.9186V60.2415ZM282.425 60.2415V39.9894H286.235V60.2415H282.425Z" fill="white"/>
<defs>
<pattern id="pattern0_25_37" patternContentUnits="objectBoundingBox" width="1" height="1">
<use xlink:href="#image0_25_37" transform="scale(0.000486855 0.00175747)"/>
</pattern>
<image id="image0_25_37" width="2054" height="569" preserveAspectRatio="none"/>
</defs>
</svg>
