<svg width="1583" height="408" viewBox="0 0 1583 408" fill="none" xmlns="http://www.w3.org/2000/svg" xmlns:xlink="http://www.w3.org/1999/xlink">
<rect width="1582.89" height="407.992" rx="55" fill="url(#pattern0_251_6)"/>
<rect width="97" height="97" transform="translate(14.9453 11.9961)" fill="url(#pattern1_251_6)"/>
<path d="M826.468 200.242L819.283 207.501L811.949 200.092V199.119L819.283 191.784L826.468 198.969V200.242ZM848.102 200.242L840.917 207.501L833.583 200.092V199.119L840.917 191.784L848.102 198.969V200.242ZM869.737 200.242L862.552 207.501L855.217 200.092V199.119L862.552 191.784L869.737 198.969V200.242ZM927.221 171.203L933.657 180.633L932.086 184.375C932.235 187.144 931.786 189.913 930.738 192.683L926.996 202.861C920.859 204.283 907.836 207.127 897.508 207.127C884.86 207.127 877.75 202.936 877.75 190.138C877.75 186.022 878.423 181.306 880.07 175.544H881.417C881.117 178.088 880.893 180.408 880.893 182.13C880.893 192.308 886.806 194.853 900.128 194.853C911.055 194.853 924.302 193.132 929.915 192.009C928.044 188.716 924.227 184.525 921.458 181.83L926.023 171.203H927.221ZM914.048 169.855L908.211 175.768L902.972 170.529L897.733 175.768L891.82 169.781V168.957L897.733 163.045L902.972 168.284L908.211 163.045L914.048 168.882C914.123 168.957 914.123 169.855 914.048 169.855ZM958.092 157.132H958.766C959.739 158.554 960.487 160.799 960.487 162.82C960.487 166.637 957.718 169.855 954.874 169.855C952.329 169.855 950.758 167.161 950.907 165.14C950.309 167.684 948.438 170.603 945.369 170.603C942.375 170.603 940.953 167.834 942.226 163.344L942.974 160.724H943.722C943.124 164.391 944.321 165.739 946.492 165.739C949.86 165.739 951.356 162.595 952.18 159.976H952.853C952.629 163.194 953.078 165.065 956.146 165.215C956.595 165.29 958.616 165.364 959.365 165.364C958.841 163.942 957.494 162.146 956.221 160.724L958.092 157.132ZM967.682 206.154H963.341C961.246 213.863 956.905 219.925 951.591 226.063L936.173 219.102V217.755C946.951 216.483 956.456 212.74 961.919 206.154H948.373C942.385 206.154 938.269 201.963 938.269 193.955C938.269 182.205 944.855 175.394 951.441 175.394C957.878 175.394 964.165 180.857 964.688 193.88H971.349V202.487C971.349 204.882 970.077 206.154 967.682 206.154ZM939.466 190.063C939.466 192.608 943.283 193.88 948.373 193.88H961.695C959 188.716 953.088 186.62 947.849 186.62C943.283 186.62 939.466 187.967 939.466 190.063ZM1003.51 206.154C997.222 206.154 989.438 204.433 983.451 200.99L974.844 205.181C972.374 205.855 970.503 206.154 967.584 206.154V197.547C967.584 195.003 968.781 193.88 971.326 193.88C972.823 193.88 974.32 193.88 975.817 193.88C974.769 192.009 974.17 189.988 974.17 187.668C974.17 179.51 981.879 170.454 991.159 170.454C997.297 170.454 1001.64 174.421 1001.64 181.681C1001.64 186.62 999.617 190.437 996.324 193.581C999.467 193.805 1003.06 193.88 1007.18 193.88V202.487C1007.18 204.882 1005.9 206.154 1003.51 206.154ZM995.126 157.506L988.615 164.018L982.029 157.432V156.459L988.615 149.872L995.126 156.384C995.201 156.459 995.201 157.432 995.126 157.506ZM975.592 185.198C977.613 189.015 981.505 191.41 989.064 192.757L997.671 190.587C998.045 184.674 993.405 181.306 986.893 181.306C982.253 181.306 977.837 183.028 975.592 185.198ZM1011.54 141.146C1007.72 139.649 1007.72 137.628 1008.69 135.383C1010.04 131.866 1012.28 130.144 1014.16 130.144C1016.48 130.144 1018.2 132.988 1016.78 138.527L1020.07 139.649L1018.42 143.691L1015.35 142.568C1014.01 145.412 1011.99 148.106 1009.89 149.753L1003.98 150.576L1003.6 149.678C1007.34 147.583 1010.86 145.262 1014.08 142.119L1011.54 141.146ZM1015.88 138.152C1015.65 135.832 1013.63 133.886 1011.76 133.886C1010.79 133.886 1009.81 134.41 1009.22 135.683L1015.88 138.152ZM1017.91 172.026C1018.06 172.176 1018.14 172.325 1018.21 172.4L1024.35 181.456L1022.7 185.273C1022.78 188.117 1022.25 190.961 1021.2 193.88L1017.99 202.487C1013.8 204.807 1008.41 206.154 1003.69 206.154V197.547C1003.69 195.152 1004.96 193.88 1007.36 193.88C1011.7 193.88 1016.56 193.356 1020.53 192.533C1018.96 189.988 1015.44 185.872 1012.15 182.728L1016.64 172.026H1017.91ZM1024.8 161.024L1018.96 166.937L1013.72 161.698L1008.48 166.937L1002.57 160.949V160.126L1008.48 154.213L1013.72 159.452L1018.96 154.213L1024.8 160.051C1024.87 160.126 1024.87 161.024 1024.8 161.024ZM1047.08 156.833C1072.83 168.209 1086.08 181.232 1082.48 194.778L1080.16 202.712C1075.82 204.433 1067.07 206.154 1055.62 206.154H1053.97L1053.52 205.256L1057.79 193.88H1060.41C1069.24 193.88 1076.87 193.73 1081.74 192.907C1079.19 184.899 1068.86 177.714 1056.89 172.101L1055.09 173.672L1048.88 172.101C1045.21 171.128 1043.72 168.733 1044.46 164.991L1045.89 157.432L1047.08 156.833ZM1081.48 149.723L1085 164.167L1082.38 167.386C1080.96 182.055 1073.85 186.77 1061.28 196.2L1060.08 195.152C1067.64 188.641 1072.88 186.171 1076.77 179.136L1075.2 156.982L1080.14 149.723L1080.21 149.798V149.723H1081.48ZM1158.25 171.203L1164.69 180.633L1163.12 184.375C1163.27 187.144 1162.82 189.913 1161.77 192.683L1158.03 202.861C1151.89 204.283 1138.87 207.127 1128.54 207.127C1115.89 207.127 1108.78 202.936 1108.78 190.138C1108.78 186.022 1109.46 181.306 1111.1 175.544H1112.45C1112.15 178.088 1111.93 180.408 1111.93 182.13C1111.93 192.308 1117.84 194.853 1131.16 194.853C1142.09 194.853 1155.34 193.132 1160.95 192.009C1159.08 188.716 1155.26 184.525 1152.49 181.83L1157.06 171.203H1158.25ZM1145.08 169.855L1139.24 175.768L1134.01 170.529L1128.77 175.768L1122.85 169.781V168.957L1128.77 163.045L1134.01 168.284L1139.24 163.045L1145.08 168.882C1145.16 168.957 1145.16 169.855 1145.08 169.855ZM1183 206.154C1176.19 206.154 1173.04 201.065 1172.3 189.614L1170.5 159.303L1177.16 149.947H1178.51V189.614C1178.51 193.281 1180.68 193.88 1186.67 193.88V202.487C1186.67 204.882 1185.39 206.154 1183 206.154ZM1198.69 187.518C1198.92 190.737 1200.56 192.533 1204.83 193.356C1212.84 181.531 1220.02 173.523 1229.98 173.523C1241.58 173.523 1247.12 184.3 1243 192.009L1242.33 193.356C1244.87 193.805 1247.72 193.88 1251.08 193.88V202.487C1251.08 204.882 1249.81 206.154 1247.42 206.154C1242.63 206.154 1238.81 204.807 1235.07 202.786C1227.28 205.106 1218.08 206.154 1209.77 206.154H1209.55C1200.42 206.079 1195.7 202.113 1195.63 194.479L1192.56 203.235C1190.01 205.032 1186.27 206.154 1183.05 206.154V197.547C1183.05 195.078 1184.25 193.88 1186.72 193.88C1189.94 193.88 1193.31 193.431 1195.63 192.832C1195.7 192.009 1195.77 191.186 1195.92 190.288L1196.97 183.477H1198.39L1198.69 187.518ZM1206.33 193.581C1208.05 193.805 1210.14 193.88 1212.69 193.88H1213.66C1224.74 193.88 1235.37 192.683 1242.25 191.261C1239.26 188.417 1233.05 184.001 1225.11 184.001C1218.15 184.001 1211.72 187.369 1206.33 193.581ZM1218.23 164.766L1211.72 171.277L1205.13 164.691V163.718L1211.72 157.132L1218.23 163.643C1218.3 163.718 1218.3 164.691 1218.23 164.766ZM1251.11 193.88C1254.55 193.88 1258.89 193.356 1261.06 192.982C1261.21 191.485 1261.44 189.839 1261.89 188.042L1263.31 181.306H1264.65L1264.88 186.171C1265.18 192.084 1269.67 193.88 1275.58 193.88V202.487C1275.58 204.882 1274.31 206.154 1271.91 206.154C1265.93 206.154 1260.84 203.535 1260.99 194.778L1258.74 203.235C1255.82 205.181 1251.26 206.154 1247.52 206.154V197.473C1247.52 195.078 1248.71 193.88 1251.11 193.88ZM1269.74 218.952L1263.91 224.865L1258.67 219.626L1253.43 224.865L1247.52 218.878V218.054L1253.43 212.142L1258.67 217.381L1263.91 212.142L1269.74 217.979C1269.82 218.054 1269.82 218.952 1269.74 218.952ZM1307.85 206.154C1301.56 206.154 1293.78 204.433 1287.79 200.99L1279.19 205.181C1276.72 205.855 1274.84 206.154 1271.93 206.154V197.547C1271.93 195.003 1273.12 193.88 1275.67 193.88C1277.16 193.88 1278.66 193.88 1280.16 193.88C1279.11 192.009 1278.51 189.988 1278.51 187.668C1278.51 179.51 1286.22 170.454 1295.5 170.454C1301.64 170.454 1305.98 174.421 1305.98 181.681C1305.98 186.62 1303.96 190.437 1300.67 193.581C1303.81 193.805 1307.4 193.88 1311.52 193.88V202.487C1311.52 204.882 1310.25 206.154 1307.85 206.154ZM1299.47 157.506L1292.96 164.018L1286.37 157.432V156.459L1292.96 149.872L1299.47 156.384C1299.54 156.459 1299.54 157.432 1299.47 157.506ZM1279.93 185.198C1281.95 189.015 1285.85 191.41 1293.41 192.757L1302.01 190.587C1302.39 184.674 1297.75 181.306 1291.24 181.306C1286.6 181.306 1282.18 183.028 1279.93 185.198ZM1356.83 206.154C1345.6 206.154 1343.21 201.664 1343.21 193.356V190.961H1342.01C1335.13 190.961 1332.21 193.73 1328.32 197.547C1321.73 203.909 1316.86 206.154 1308.03 206.154V197.547C1308.03 195.152 1309.31 193.88 1311.7 193.88H1315.22C1326.67 193.88 1333.11 191.934 1338.05 189.09C1330.34 186.994 1324.12 183.851 1318.81 183.851C1316.64 183.851 1313.72 184.375 1312.07 184.6L1311.48 184.001L1314.4 176.367C1316.34 174.645 1319.78 172.55 1323.53 172.55C1331.53 172.55 1338.64 182.055 1351.82 182.055H1355.18L1355.56 182.878L1352.64 190.886H1350.92V190.961H1345.68C1346.95 193.506 1350.69 193.88 1360.5 193.88V202.487C1360.5 204.882 1359.23 206.154 1356.83 206.154ZM1328.24 159.602L1321.73 166.113L1315.14 159.527V158.554L1321.73 151.968L1328.24 158.479C1328.32 158.554 1328.32 159.527 1328.24 159.602ZM1371.08 172.026C1371.23 172.176 1371.3 172.325 1371.38 172.4L1377.51 181.456L1375.87 185.273C1375.94 188.117 1375.42 190.961 1374.37 193.88L1371.15 202.487C1366.96 204.807 1361.57 206.154 1356.86 206.154V197.547C1356.86 195.152 1358.13 193.88 1360.52 193.88C1364.87 193.88 1369.73 193.356 1373.7 192.533C1372.12 189.988 1368.61 185.872 1365.31 182.728L1369.8 172.026H1371.08ZM1377.96 161.024L1372.12 166.937L1366.89 161.698L1361.65 166.937L1355.73 160.949V160.126L1361.65 154.213L1366.89 159.452L1372.12 154.213L1377.96 160.051C1378.04 160.126 1378.04 161.024 1377.96 161.024Z" fill="white"/>
<rect x="1127.04" y="239.09" width="252.329" height="56.748" rx="24" fill="#58324F"/>
<path d="M1159.06 276.149L1156.19 278.99L1153.35 276.149V275.768L1153.55 275.563C1156.66 272.224 1156.33 269.939 1152.99 260.567L1155.4 256.612H1155.87C1156.89 259.366 1157.62 262.617 1157.62 265.956C1157.62 269.529 1156.77 271.609 1156.1 272.868L1159.06 275.768V276.149ZM1175.24 266.893L1178.58 271.199L1177.85 272.898C1178.06 274.362 1177.91 275.768 1177.44 277.145L1175.98 281.245C1174.34 282.329 1171.11 283.413 1168.27 283.413C1163.21 283.413 1161.36 280.015 1161.36 276.09C1161.36 273.952 1162.12 271.668 1162.68 269.793H1163.09C1162.88 270.994 1162.5 272.663 1162.5 274.069C1162.5 276.793 1163.91 278.785 1168.62 278.785C1171.82 278.785 1175.45 277.877 1177 277.145C1176.15 275.212 1174.75 273.161 1173.05 270.935L1174.75 266.893H1175.24ZM1171.14 265.253L1168.6 267.801L1166.02 265.224V264.843L1168.6 262.265L1171.14 264.814C1171.17 264.843 1171.17 265.224 1171.14 265.253ZM1180.48 259.161C1190.56 263.613 1195.74 268.709 1194.34 274.011L1193.43 277.116C1191.73 277.789 1188.3 278.463 1183.82 278.463H1183.18L1183 278.111L1184.67 273.659H1185.7C1189.15 273.659 1192.14 273.601 1194.04 273.279C1193.05 270.144 1189.01 267.333 1184.32 265.136L1183.62 265.751L1181.19 265.136C1179.75 264.755 1179.16 263.818 1179.46 262.353L1180.01 259.395L1180.48 259.161ZM1179.22 255.763L1180.57 254.005C1180.95 253.508 1181.33 253.332 1181.74 253.332C1182.8 253.332 1183.94 254.562 1184.96 254.562C1185.67 254.562 1186.19 254.035 1186.75 253.039L1187.13 253.273C1186.37 255.587 1185.7 256.642 1184.47 256.642C1183.29 256.642 1181.74 255.382 1180.89 255.382L1179.52 256.085L1179.22 255.763ZM1193.95 256.378L1195.32 262.031L1194.3 263.291C1193.74 269.031 1190.96 270.877 1186.04 274.567L1185.57 274.157C1188.53 271.609 1190.58 270.642 1192.1 267.889L1191.48 259.219L1193.42 256.378L1193.45 256.407V256.378H1193.95ZM1201.51 256.378L1202.89 262.031L1201.98 263.173V271.287C1201.98 272.312 1201.84 273.308 1201.54 274.304L1200.2 278.932H1199.67L1198.79 259.219L1201.02 256.407V256.378H1201.51ZM1220.14 276.5C1218.79 277.028 1217.48 277.321 1216.33 277.321C1213.96 277.321 1212.44 275.827 1212.44 273.337C1212.44 271.14 1213.58 268.533 1217.24 266.659L1220.2 265.077L1221.69 261.621H1222.19L1223.54 271.257C1223.83 273.396 1224.65 273.659 1226.76 273.659V277.057C1226.76 277.994 1226.29 278.463 1225.35 278.463C1222.98 278.463 1222.19 276.325 1221.49 272.634L1220.14 276.5ZM1221.66 258.282L1219.38 260.596L1217.33 258.545L1215.28 260.596L1212.96 258.253V257.93L1215.28 255.616L1217.33 257.667L1219.38 255.616L1221.66 257.901C1221.69 257.93 1221.69 258.282 1221.66 258.282ZM1217.18 272.868C1218.53 272.868 1220.08 272.663 1221.43 272.312C1221.43 272.253 1221.4 272.165 1221.4 272.107L1220.73 268.299L1213.2 271.17V271.199C1213.87 272.283 1215.25 272.868 1217.18 272.868ZM1231.46 271.17C1231.55 272.429 1232.2 273.132 1233.87 273.454C1237 268.826 1239.81 265.692 1243.71 265.692C1248.25 265.692 1250.41 269.91 1248.8 272.927L1246.75 276.793C1243.44 277.965 1239.37 278.463 1235.71 278.463C1232.14 278.434 1230.29 276.881 1230.26 273.894L1229.06 277.321C1228.07 278.024 1226.6 278.463 1225.34 278.463V275.095C1225.34 274.128 1225.81 273.659 1226.78 273.659C1228.04 273.659 1229.35 273.484 1230.26 273.249C1230.29 272.927 1230.32 272.605 1230.38 272.253L1230.79 269.588H1231.35L1231.46 271.17ZM1234.45 273.542C1235.12 273.63 1235.94 273.659 1236.94 273.659H1237.32C1241.66 273.659 1245.82 273.191 1248.51 272.634C1247.34 271.521 1244.91 269.793 1241.8 269.793C1239.08 269.793 1236.56 271.111 1234.45 273.542ZM1252.77 272.458L1254.41 268.797H1254.91L1256.64 271.99C1257.54 273.689 1258.22 273.659 1260.33 273.659V277.028C1260.33 277.965 1259.83 278.463 1258.89 278.463C1257.9 278.463 1257.19 278.111 1256.34 277.174C1255.96 280.513 1254.62 283.413 1252.54 285.991L1246.59 283.149V282.739C1251.66 282.153 1254.64 279.547 1255.9 277.086L1252.77 272.458ZM1272.95 278.463C1270.49 278.463 1267.45 277.789 1265.1 276.442L1261.73 278.082C1260.77 278.346 1260.04 278.463 1258.89 278.463V275.095C1258.89 274.099 1259.36 273.659 1260.36 273.659C1260.94 273.659 1261.53 273.659 1262.12 273.659C1261.71 272.927 1261.47 272.136 1261.47 271.228C1261.47 268.036 1264.49 264.491 1268.12 264.491C1270.52 264.491 1272.22 266.044 1272.22 268.885C1272.22 270.818 1271.43 272.312 1270.14 273.542C1271.37 273.63 1272.78 273.659 1274.39 273.659V277.028C1274.39 277.965 1273.89 278.463 1272.95 278.463ZM1269.67 259.424L1267.12 261.972L1264.55 259.395V259.014L1267.12 256.437L1269.67 258.985C1269.7 259.014 1269.7 259.395 1269.67 259.424ZM1262.03 270.262C1262.82 271.755 1264.34 272.693 1267.3 273.22L1270.67 272.371C1270.81 270.057 1269 268.739 1266.45 268.739C1264.63 268.739 1262.91 269.412 1262.03 270.262ZM1278.38 256.378L1279.76 262.031L1278.82 263.203V265.809C1278.82 269.09 1277.42 274.655 1276.36 277.291C1275.78 277.731 1274.43 278.463 1273.02 278.463V275.065C1273.02 274.333 1273.7 273.659 1274.43 273.659C1275.02 273.659 1275.81 273.601 1276.45 273.513L1275.69 259.248L1277.89 256.378V256.407V256.378H1278.38ZM1285.64 256.378L1287.01 262.031L1286.11 263.173V271.287C1286.11 272.312 1285.96 273.308 1285.67 274.304L1284.32 278.932H1283.79L1282.91 259.219L1285.14 256.407V256.378H1285.64ZM1301.51 272.312L1301.92 271.58C1302.13 271.17 1302.39 270.73 1302.65 270.32C1301.31 270.525 1299.93 270.906 1298.64 271.375L1299.49 279.957C1299.61 281.128 1299.49 282.271 1299.11 283.384L1297.73 287.221H1297.32L1296.3 278.053C1295.95 275.212 1296.74 272.751 1298.7 270.672C1301.25 267.977 1303.83 266.454 1307.55 266.454C1307.57 266.454 1307.6 266.454 1307.6 266.454C1311.97 266.454 1311.29 273.659 1315.28 273.659V277.35C1315.22 278.053 1314.6 278.287 1313.87 278.463C1312.26 278.463 1311.38 276.823 1310.56 275.007L1309.04 278.873C1306.61 278.463 1304.76 277.819 1302.92 276.911C1300.93 275.944 1300.43 274.333 1301.51 272.312ZM1302.24 271.99C1304.65 272.956 1307.16 273.835 1310.39 274.684C1309.36 272.458 1308.31 270.086 1305.85 270.086C1304.47 270.086 1303.24 270.877 1302.24 271.99ZM1315.31 273.659C1316.36 273.659 1317.3 273.63 1318.21 273.513C1318.18 273.161 1318.12 272.781 1318.09 272.371L1317.91 269.559L1320.08 266.747H1320.61V271.785C1320.61 273.161 1321.22 273.659 1323.92 273.659V277.028C1323.92 277.994 1323.45 278.463 1322.48 278.463C1320.23 278.463 1318.88 277.35 1318.32 274.304L1317.06 277.672C1316.57 278.082 1314.95 278.463 1313.87 278.463V275.095C1313.87 274.157 1314.37 273.659 1315.31 273.659ZM1320.99 261.533L1318.44 264.081L1315.86 261.504V261.123L1318.44 258.545L1320.99 261.094C1321.02 261.123 1321.02 261.504 1320.99 261.533ZM1323.91 273.659C1325.26 273.659 1326.96 273.454 1327.81 273.308C1327.87 272.722 1327.96 272.078 1328.13 271.375L1328.69 268.739H1329.22L1329.3 270.642C1329.42 272.956 1331.18 273.659 1333.49 273.659V277.028C1333.49 277.965 1332.99 278.463 1332.06 278.463C1329.71 278.463 1327.72 277.438 1327.78 274.011L1326.9 277.321C1325.76 278.082 1323.97 278.463 1322.51 278.463V275.065C1322.51 274.128 1322.98 273.659 1323.91 273.659ZM1332.29 264.111L1330.01 266.425L1327.96 264.345L1325.88 266.425L1323.56 264.081V263.759L1325.88 261.445L1327.96 263.525L1330.01 261.445L1332.29 263.73C1332.32 263.759 1332.32 264.111 1332.29 264.111ZM1333.53 273.659C1334.08 273.659 1334.61 273.659 1335.14 273.659C1334.61 272.868 1334.32 271.902 1334.32 270.701C1334.32 267.713 1336.34 263.993 1340.12 263.993C1344.1 263.993 1344.89 268.153 1345.15 269.793L1344.8 269.998C1343.72 269.178 1341.84 268.416 1339.38 268.416C1336.34 268.416 1334.73 269.617 1334.73 270.496C1334.73 271.228 1335.9 273.132 1341.11 273.132C1342.87 273.132 1345.1 272.927 1347.88 272.371L1348.11 272.81L1346.33 276.149C1342.64 277.584 1336.48 278.463 1332.09 278.463V274.948C1332.09 273.981 1332.62 273.659 1333.53 273.659ZM1342.64 258.926L1340.09 261.475L1337.51 258.897V258.516L1340.09 255.939L1342.64 258.487C1342.66 258.516 1342.66 258.897 1342.64 258.926ZM1353.66 256.378L1355.03 262.031L1354.13 263.173V271.287C1354.13 272.312 1353.98 273.308 1353.69 274.304L1352.34 278.932H1351.81L1350.93 259.219L1353.16 256.407V256.378H1353.66Z" fill="white"/>
<defs>
<pattern id="pattern0_251_6" patternContentUnits="objectBoundingBox" width="1" height="1">
<use xlink:href="#image0_251_6" transform="scale(0.000631743 0.00245098)"/>
</pattern>
<pattern id="pattern1_251_6" patternContentUnits="objectBoundingBox" width="1" height="1">
<use xlink:href="#image1_251_6" transform="scale(0.00357143 0.00352113)"/>
</pattern>
<image id="image0_251_6" width="1583" height="408" preserveAspectRatio="none" xlink:/>
<image id="image1_251_6" width="280" height="284" preserveAspectRatio="none" xlink:/>
</defs>
</svg>
