<svg width="58" height="58" viewBox="0 0 58 58" fill="none" xmlns="http://www.w3.org/2000/svg">
<path d="M57.1429 28.5714C57.1429 12.7919 44.351 0 28.5714 0C12.7919 0 0 12.7919 0 28.5714C0 44.351 12.7919 57.1429 28.5714 57.1429C44.351 57.1429 57.1429 44.351 57.1429 28.5714Z" fill="white"/>
<path d="M16.0271 29.3294L25.67 38.9722C25.871 39.1733 26.1437 39.2862 26.428 39.2862C26.7123 39.2862 26.985 39.1733 27.186 38.9722C27.3871 38.7712 27.5 38.4985 27.5 38.2142C27.5 37.9299 27.3871 37.6572 27.186 37.4562L19.3713 29.6428H40.3566C40.6407 29.6428 40.9133 29.5299 41.1142 29.3289C41.3151 29.128 41.428 28.8555 41.428 28.5713C41.428 28.2872 41.3151 28.0146 41.1142 27.8137C40.9133 27.6128 40.6407 27.4999 40.3566 27.4999H19.3713L27.186 19.6865C27.3871 19.4855 27.5 19.2128 27.5 18.9285C27.5 18.6442 27.3871 18.3715 27.186 18.1704C26.985 17.9694 26.7123 17.8564 26.428 17.8564C26.1437 17.8564 25.871 17.9694 25.67 18.1704L16.0271 27.8133C15.9275 27.9128 15.8485 28.031 15.7946 28.161C15.7406 28.2911 15.7129 28.4305 15.7129 28.5713C15.7129 28.7121 15.7406 28.8516 15.7946 28.9816C15.8485 29.1117 15.9275 29.2299 16.0271 29.3294Z" fill="#102F5D"/>
</svg>
