<svg width="126" height="127" viewBox="0 0 126 127" fill="none" xmlns="http://www.w3.org/2000/svg">
<path d="M55.4801 72.0731L54.3764 78.538C54.3143 78.9022 54.3547 79.2765 54.4931 79.6187C54.6314 79.9609 54.8622 80.2574 55.1592 80.4746C55.4563 80.6917 55.8078 80.8209 56.1741 80.8476C56.5403 80.8742 56.9067 80.7972 57.2317 80.6253L63.0037 77.5747L68.7757 80.6252C69.1012 80.7917 69.4661 80.8644 69.8301 80.8354C70.194 80.8064 70.543 80.6768 70.8384 80.4608C71.1337 80.2449 71.3641 79.951 71.5039 79.6117C71.6438 79.2724 71.6877 78.9008 71.6309 78.5379L70.5273 72.073L75.1976 67.4942C75.4606 67.2362 75.6466 66.9093 75.7345 66.5505C75.8225 66.1917 75.8089 65.8153 75.6952 65.4638C75.5816 65.1124 75.3725 64.8 75.0915 64.5619C74.8106 64.3238 74.469 64.1696 74.1055 64.1166L67.6548 63.1727L64.7688 57.292C64.5879 56.9827 64.3299 56.7263 64.0204 56.5482C63.7108 56.3701 63.3603 56.2764 63.0037 56.2764C62.647 56.2764 62.2966 56.3701 61.987 56.5482C61.6774 56.7263 61.4194 56.9827 61.2386 57.292L58.3527 63.1727L51.9019 64.1167C51.5384 64.1697 51.1968 64.3239 50.9159 64.562C50.6349 64.8 50.4258 65.1125 50.3122 65.4639C50.1986 65.8153 50.1849 66.1918 50.2729 66.5506C50.3608 66.9094 50.5468 67.2363 50.8098 67.4943L55.4801 72.0731ZM59.9427 66.943C61.504 66.8372 62.1087 64.157 63.0038 62.6427C63.9004 64.159 64.5013 66.8358 66.0646 66.943L69.5909 67.4594L67.0375 69.9646C65.8378 70.9753 66.9144 73.4981 67.0759 75.2515C66.401 74.9764 63.729 73.2584 63.0037 73.3557C62.2909 73.2548 59.5846 74.9852 58.9313 75.2514C59.0927 73.4943 60.1703 70.9783 58.9698 69.9646L56.4164 67.4595L59.9427 66.943Z" fill="url(#paint0_linear_1_60)"/>
<path d="M103.287 28.3453H83.9575V16.3556C83.9553 14.1199 83.0716 11.9764 81.5003 10.3956C79.929 8.81469 77.7985 7.92558 75.5764 7.92334H50.431C48.2089 7.92558 46.0784 8.81469 44.5071 10.3956C42.9358 11.9764 42.0521 14.1199 42.0499 16.3556V28.3453H22.7207C20.0426 28.3485 17.4751 29.4203 15.5816 31.3257C13.6881 33.2312 12.6232 35.8145 12.6206 38.5089V60.3178C12.6208 60.7042 12.7332 61.0822 12.9439 61.4052C13.1547 61.7283 13.4546 61.9824 13.8069 62.1363C15.7909 63.0001 17.7699 63.8033 19.725 64.5621V106.839C19.7288 110.024 20.9879 113.078 23.2264 115.33C25.4648 117.582 28.4996 118.848 31.6652 118.852H94.3152C97.4806 118.848 100.515 117.581 102.753 115.329C104.991 113.077 106.25 110.024 106.253 106.839V64.568C108.106 63.8517 110.042 63.0682 112.195 62.1381C112.548 61.985 112.85 61.731 113.062 61.4075C113.273 61.084 113.386 60.7052 113.387 60.3178V38.5089C113.384 35.8145 112.319 33.2312 110.426 31.3258C108.532 29.4204 105.965 28.3485 103.287 28.3453ZM45.9876 16.3556C45.9891 15.1704 46.4577 14.0342 47.2907 13.1962C48.1237 12.3581 49.253 11.8866 50.431 11.8851H75.5764C76.7544 11.8866 77.8837 12.3581 78.7167 13.1962C79.5496 14.0342 80.0183 15.1704 80.0198 16.3556V28.3453H73.9498V20.6733C73.9499 20.4131 73.8991 20.1554 73.8002 19.915C73.7013 19.6746 73.5563 19.4562 73.3734 19.2722C73.1906 19.0883 72.9735 18.9424 72.7345 18.8429C72.4956 18.7434 72.2395 18.6922 71.9809 18.6924H54.0265C53.7679 18.6922 53.5118 18.7434 53.2729 18.8429C53.0339 18.9424 52.8168 19.0883 52.634 19.2722C52.4511 19.4562 52.3061 19.6746 52.2072 19.915C52.1083 20.1554 52.0575 20.4131 52.0576 20.6733V28.3453H45.9876L45.9876 16.3556ZM55.9953 28.3453V22.6541H70.012V28.3453H55.9953ZM94.3152 114.89H31.6652C29.5436 114.888 27.5095 114.039 26.0093 112.53C24.5091 111.02 23.6652 108.974 23.6628 106.839V65.9992C28.966 67.8452 34.374 69.371 39.858 70.5683C39.8038 73.4175 42.7678 74.9001 43.9688 76.7896C44.1828 78.7957 42.8058 81.5172 43.927 83.6644L35.5453 103.174C35.388 103.559 35.3548 103.985 35.4505 104.39C35.5461 104.796 35.7657 105.161 36.0784 105.434C36.391 105.707 36.781 105.875 37.1935 105.914C37.6059 105.953 38.02 105.86 38.3775 105.65L46.7278 100.527L48.7217 110.165C48.8137 110.571 49.0304 110.939 49.3411 111.215C49.6519 111.492 50.041 111.663 50.4536 111.705C50.8663 111.747 51.2816 111.658 51.6412 111.45C52.0007 111.242 52.2862 110.926 52.4576 110.546L60.5028 91.7966C61.2738 91.3012 62.117 90.9299 63.0018 90.6962C63.8869 90.9311 64.7308 91.3016 65.5038 91.7948L73.5498 110.546C73.7158 110.932 73.9997 111.255 74.3605 111.468C74.7213 111.681 75.1401 111.773 75.5564 111.731C75.9726 111.689 76.3646 111.514 76.6755 111.232C76.9865 110.951 77.2002 110.577 77.2857 110.165L79.2795 100.527L87.6299 105.65C87.9874 105.86 88.4016 105.953 88.8141 105.914C89.2266 105.876 89.6167 105.708 89.9295 105.435C90.2422 105.161 90.4618 104.796 90.5573 104.39C90.6529 103.985 90.6195 103.559 90.462 103.174L82.0789 83.6608C83.1937 81.5184 81.8275 78.7872 82.0347 76.7898C82.4136 76.1906 82.8841 75.6553 83.4287 75.2035C84.1745 74.6609 84.8008 73.969 85.2683 73.1714C85.7358 72.3738 86.0345 71.4876 86.1456 70.5684C91.6185 69.3618 97.0175 67.8379 102.316 66.0043V106.839C102.313 108.974 101.47 111.02 99.97 112.529C98.4702 114.038 96.4365 114.888 94.3152 114.89ZM47.6527 61.4069C47.4713 60.6922 47.4051 59.9529 47.4566 59.2171C48.1447 58.9192 48.8794 58.7451 49.6273 58.7026C51.0176 58.6292 52.3683 58.2112 53.5593 57.4858C54.6006 56.5751 55.4029 55.4204 55.8954 54.1237C56.1665 53.4188 56.5547 52.7654 57.0432 52.1912C58.8804 52.61 60.8449 54.48 63.0018 54.4022C65.1006 54.4718 67.1834 52.633 68.9333 52.1833C69.4391 52.7528 69.8372 53.4104 70.1081 54.1237C70.6006 55.4204 71.4029 56.5751 72.4442 57.4858C73.6357 58.2114 74.9871 58.6294 76.378 58.7026C77.1188 58.7476 77.8471 58.9156 78.5334 59.1998C78.5981 59.9406 78.5364 60.687 78.3509 61.4069C77.9909 62.7684 77.9698 64.1982 78.2893 65.5698C78.8209 66.8337 79.6551 67.9456 80.7177 68.8062C81.2022 69.2685 82.2078 70.2299 82.2078 70.5684C82.2078 70.907 81.2022 71.8684 80.7177 72.3307C79.6551 73.1913 78.8209 74.3031 78.2893 75.5671C77.9698 76.9387 77.9909 78.3685 78.3509 79.73C78.5327 80.4446 78.5983 81.1841 78.545 81.9198C77.8582 82.2175 77.1248 82.3916 76.3781 82.4343C74.9872 82.5074 73.6359 82.9254 72.4443 83.6511C71.403 84.5618 70.6007 85.7165 70.1082 87.0132C69.8371 87.718 69.4489 88.3715 68.9604 88.9457C67.0556 88.5164 65.1946 86.657 63.0018 86.7347C60.9144 86.6651 58.8031 88.5063 57.0684 88.9516C56.5638 88.3817 56.1663 87.7242 55.8955 87.0112C55.403 85.7151 54.6006 84.561 53.5594 83.6511C52.3684 82.9257 51.0177 82.5077 49.6274 82.4343C48.8859 82.3897 48.157 82.2217 47.4701 81.9371C47.4054 81.1963 47.4672 80.4498 47.6527 79.73C48.0126 78.3685 48.0338 76.9387 47.7142 75.5671C47.1825 74.3022 46.3475 73.1896 45.2839 72.3288C44.8013 71.8665 43.7957 70.907 43.7957 70.5684C43.7957 70.2299 44.8013 69.2685 45.2858 68.8062C46.3484 67.9456 47.1827 66.8337 47.7142 65.5698C48.0338 64.1982 48.0126 62.7684 47.6527 61.4069ZM78.807 86.0296L84.3882 99.0222L78.945 95.6833C78.6751 95.5212 78.3707 95.4259 78.057 95.4054C77.7433 95.3849 77.4293 95.4398 77.1408 95.5654C76.8523 95.6911 76.5977 95.884 76.3979 96.1282C76.1981 96.3723 76.0588 96.6608 75.9917 96.9698L74.6977 103.226L70.1839 92.7069C72.861 91.8649 73.3309 88.5671 74.7629 86.8544C76.0887 86.4789 77.4405 86.2032 78.807 86.0296ZM47.2001 86.0301C48.5657 86.2019 49.9163 86.4774 51.2405 86.8545C52.6727 88.5702 53.1435 91.8655 55.8234 92.7074L51.3097 103.226L50.0157 96.9698C49.9485 96.6609 49.8093 96.3724 49.6095 96.1282C49.4097 95.884 49.155 95.6912 48.8666 95.5655C48.5781 95.4399 48.264 95.385 47.9503 95.4055C47.6366 95.426 47.3323 95.5213 47.0624 95.6834L41.6192 99.0223L47.2001 86.0301ZM109.449 59.0082C101.38 62.5042 92.9647 65.1293 84.3451 66.8395C83.4905 66.0923 82.7162 65.257 82.0348 64.3473C81.8239 62.1225 83.4256 59.1283 81.7251 56.8803C80.1134 54.561 76.8244 55.1457 74.763 54.2825C74.2973 53.7246 73.9252 53.094 73.6613 52.4156C71.9912 48.2228 69.0031 47.0635 65.1051 49.5528C64.46 49.9684 63.7484 50.2687 63.0017 50.4405C62.2547 50.2695 61.5429 49.9691 60.8983 49.5526C57.0107 47.0602 53.9981 48.2309 52.3422 52.4158C52.0783 53.0941 51.7061 53.7246 51.2404 54.2823C50.5595 54.5638 49.8371 54.7305 49.1024 54.7756C44.6071 55.0564 42.644 57.6795 43.7785 62.1131C43.9677 62.8415 44.032 63.5971 43.9687 64.3472C43.2823 65.2627 42.5027 66.1034 41.6425 66.8556C33.0321 65.1285 24.625 62.4996 16.5584 59.012V38.5089C16.56 36.8649 17.2097 35.2887 18.3649 34.126C19.5202 32.9633 21.0866 32.3092 22.7207 32.307C29.5942 32.3058 47.4595 32.308 54.055 32.307C60.4922 32.3082 75.7535 32.3063 82.0172 32.307H103.287C104.921 32.3092 106.487 32.9633 107.642 34.126C108.798 35.2886 109.447 36.8649 109.449 38.5089L109.449 59.0082Z" fill="url(#paint1_linear_1_60)"/>
<defs>
<linearGradient id="paint0_linear_1_60" x1="63.0037" y1="56.2764" x2="63.0037" y2="80.8527" gradientUnits="userSpaceOnUse">
<stop stop-color="#FEBB74"/>
<stop offset="1" stop-color="#EA906C"/>
</linearGradient>
<linearGradient id="paint1_linear_1_60" x1="63.0036" y1="7.92334" x2="63.0036" y2="118.852" gradientUnits="userSpaceOnUse">
<stop stop-color="#FEBB74"/>
<stop offset="1" stop-color="#EA906C"/>
</linearGradient>
</defs>
</svg>
