<svg width="57" height="57" viewBox="0 0 57 57" fill="none" xmlns="http://www.w3.org/2000/svg">
<path d="M23.7039 35.5566H8.29623C7.19175 35.5566 6.63952 35.5566 6.20391 35.737C5.62308 35.9776 5.16161 36.4391 4.92104 37.0199C4.7406 37.4556 4.7406 38.0079 4.7406 39.1123C4.7406 40.2166 4.7406 40.7689 4.92104 41.2046C5.16161 41.7854 5.62308 42.2469 6.20391 42.4875C6.63952 42.6679 7.19175 42.6679 8.29623 42.6679H23.7039V35.5566Z" stroke="black" stroke-width="3.55562" stroke-linecap="round" stroke-linejoin="round"/>
<path d="M30.8153 28.4453H16.5928C14.3579 28.4453 13.2405 28.4453 12.5462 29.1396C11.8519 29.8339 11.8519 30.9513 11.8519 33.1861V35.5566H30.8153V28.4453Z" stroke="black" stroke-width="3.55562" stroke-linecap="round" stroke-linejoin="round"/>
<path d="M23.704 42.6677H42.6673C47.137 42.6677 49.3718 42.6677 50.7604 41.2791C52.149 39.8905 52.149 37.6556 52.149 33.186V18.9635C52.149 16.7286 52.149 15.6112 51.4547 14.9169C50.7604 14.2227 49.643 14.2227 47.4081 14.2227H45.0377" stroke="black" stroke-width="3.55562" stroke-linecap="round" stroke-linejoin="round"/>
<path d="M37.9265 21.334H23.704C21.4691 21.334 20.3517 21.334 19.6574 22.0283C18.9631 22.7225 18.9631 23.84 18.9631 26.0748V28.4452H37.9265V21.334Z" stroke="black" stroke-width="3.55562" stroke-linecap="round" stroke-linejoin="round"/>
<path d="M45.0378 14.2227H30.8153C28.5805 14.2227 27.4631 14.2227 26.7688 14.9169C26.0745 15.6112 26.0745 16.7286 26.0745 18.9635V21.3339H45.0378V14.2227Z" stroke="black" stroke-width="3.55562" stroke-linecap="round" stroke-linejoin="round"/>
</svg>
