<svg width="33" height="33" viewBox="0 0 33 33" fill="none" xmlns="http://www.w3.org/2000/svg">
<path d="M12.0313 13.75C12.0312 12.5648 12.5021 11.4282 13.3401 10.5901C14.1782 9.75206 15.3148 9.28125 16.5 9.28125C17.6852 9.28125 18.8218 9.75206 19.6599 10.5901C20.4979 11.4282 20.9688 12.5648 20.9688 13.75C20.9688 14.9352 20.4979 16.0718 19.6599 16.9099C18.8218 17.7479 17.6852 18.2188 16.5 18.2188C15.3148 18.2188 14.1782 17.7479 13.3401 16.9099C12.5021 16.0718 12.0313 14.9352 12.0313 13.75Z" fill="#B52C28"/>
<path fill-rule="evenodd" clip-rule="evenodd" d="M5.1892 12.2059C5.41791 9.44178 6.67726 6.86465 8.7174 4.98573C10.7575 3.10681 13.4294 2.0634 16.203 2.0625H16.7969C19.5705 2.0634 22.2424 3.10681 24.2825 4.98573C26.3226 6.86465 27.582 9.44178 27.8107 12.2059C28.0645 15.2919 27.1118 18.3562 25.1528 20.7542L18.5624 28.8145C18.3127 29.1202 17.998 29.3666 17.6413 29.5358C17.2846 29.705 16.8947 29.7927 16.4999 29.7927C16.1052 29.7927 15.7153 29.705 15.3586 29.5358C15.0019 29.3666 14.6872 29.1202 14.4374 28.8145L7.84845 20.7542C5.88902 18.3564 4.93578 15.2921 5.1892 12.2059ZM16.4999 7.21875C14.7678 7.21875 13.1065 7.90686 11.8817 9.13171C10.6568 10.3566 9.9687 12.0178 9.9687 13.75C9.9687 15.4822 10.6568 17.1434 11.8817 18.3683C13.1065 19.5931 14.7678 20.2812 16.4999 20.2812C18.2321 20.2812 19.8934 19.5931 21.1182 18.3683C22.3431 17.1434 23.0312 15.4822 23.0312 13.75C23.0312 12.0178 22.3431 10.3566 21.1182 9.13171C19.8934 7.90686 18.2321 7.21875 16.4999 7.21875Z" fill="#B52C28"/>
</svg>
