<?xml version="1.0" standalone="no"?>
<!DOCTYPE svg PUBLIC "-//W3C//DTD SVG 20010904//EN"
 "http://www.w3.org/TR/2001/REC-SVG-20010904/DTD/svg10.dtd">
<svg version="1.0" xmlns="http://www.w3.org/2000/svg"
 width="600.000000pt" height="600.000000pt" viewBox="0 0 600.000000 600.000000"
 preserveAspectRatio="xMidYMid meet">

<g transform="translate(0.000000,600.000000) scale(0.100000,-0.100000)"
fill="#000000" stroke="none">
<path d="M2840 5799 c-995 -51 -1897 -645 -2348 -1545 -220 -439 -317 -906
-291 -1404 51 -1007 640 -1905 1545 -2358 439 -220 906 -317 1404 -291 1098
56 2056 749 2463 1779 221 561 251 1211 81 1800 -96 335 -285 698 -510 980
-87 109 -315 337 -424 424 -547 436 -1218 651 -1920 615z m406 -200 c609 -60
1169 -324 1599 -754 434 -434 696 -993 756 -1615 14 -151 6 -450 -16 -600 -76
-513 -312 -1012 -652 -1380 -371 -401 -801 -658 -1313 -784 -200 -49 -324 -66
-540 -73 -724 -23 -1412 249 -1925 762 -1020 1019 -1020 2671 0 3690 424 425
989 693 1585 754 124 12 380 13 506 0z"/>
<path d="M2840 4734 c-566 -72 -1033 -447 -1211 -972 -65 -193 -72 -246 -78
-620 l-6 -343 -50 -17 c-124 -42 -222 -128 -280 -245 -94 -190 -59 -406 89
-552 117 -115 205 -145 433 -145 181 0 233 14 302 82 83 82 86 95 86 403 l0
270 -27 51 c-54 102 -141 153 -276 162 l-84 5 5 316 c4 274 8 329 26 414 56
256 176 473 360 650 242 232 534 350 871 350 337 0 629 -118 871 -350 184
-177 304 -394 360 -650 18 -85 22 -140 26 -414 l5 -316 -84 -5 c-135 -9 -222
-60 -276 -162 l-27 -51 0 -270 c0 -254 1 -273 21 -315 51 -108 156 -170 289
-170 l75 0 0 -55 c0 -61 -19 -108 -49 -125 -13 -6 -199 -10 -531 -10 l-511 0
-30 34 c-114 130 -333 45 -333 -129 0 -172 219 -260 331 -132 l28 32 535 0
535 0 51 27 c64 34 128 105 148 165 9 26 16 79 16 118 l0 71 54 17 c118 38
231 137 286 253 124 260 -9 572 -285 666 l-50 17 -6 348 c-6 379 -12 431 -78
625 -143 421 -486 763 -906 901 -156 52 -250 68 -425 71 -91 3 -181 2 -200 0z
m-945 -2140 c39 -25 45 -64 45 -273 0 -289 -4 -294 -225 -288 -120 3 -147 6
-187 26 -185 89 -227 324 -83 467 71 71 108 82 283 83 114 1 148 -2 167 -15z
m2561 -1 c66 -22 145 -101 167 -167 50 -148 -12 -300 -151 -367 -40 -20 -67
-23 -187 -26 -221 -6 -225 -1 -225 289 0 289 -1 287 206 288 106 0 153 -4 190
-17z"/>
</g>
</svg>
