<?xml version="1.0" standalone="no"?>
<!DOCTYPE svg PUBLIC "-//W3C//DTD SVG 20010904//EN"
 "http://www.w3.org/TR/2001/REC-SVG-20010904/DTD/svg10.dtd">
<svg version="1.0" xmlns="http://www.w3.org/2000/svg"
 width="600.000000pt" height="600.000000pt" viewBox="0 0 600.000000 600.000000"
 preserveAspectRatio="xMidYMid meet">

<g transform="translate(0.000000,600.000000) scale(0.100000,-0.100000)"
fill="#000000" stroke="none">
<path d="M1545 5371 c-40 -24 -61 -49 -80 -94 -13 -32 -15 -143 -15 -879 1
-891 1 -889 47 -940 10 -11 36 -29 58 -39 38 -18 108 -19 1628 -19 1311 0
1593 2 1620 14 37 15 94 76 102 109 3 12 4 414 3 893 l-3 871 -27 35 c-56 73
48 68 -1368 68 -822 0 -1278 -4 -1290 -10 -28 -15 -44 -71 -28 -104 26 -59
-43 -56 1308 -56 l1240 0 0 -825 0 -825 -1557 2 -1558 3 -3 822 -2 822 161 3
161 3 24 28 c31 37 31 81 -1 112 -24 25 -26 25 -207 25 -161 0 -187 -2 -213
-19z"/>
<path d="M2930 4984 c-129 -46 -254 -91 -278 -100 -68 -25 -72 -42 -72 -271 1
-225 13 -314 58 -421 74 -177 249 -349 454 -447 40 -19 80 -35 90 -35 30 0
125 47 214 105 167 108 291 260 352 427 26 71 27 81 30 333 l3 260 -23 21
c-21 20 -553 215 -581 213 -6 0 -118 -38 -247 -85z m426 -154 c93 -33 189 -67
212 -76 l44 -16 -4 -197 c-4 -176 -6 -202 -28 -256 -59 -152 -190 -288 -359
-374 l-43 -22 -81 48 c-122 72 -233 186 -285 293 -51 104 -62 168 -62 361 l0
147 213 75 c116 42 215 76 218 76 3 1 82 -26 175 -59z"/>
<path d="M3334 4572 c-11 -1 -56 -39 -99 -82 -44 -44 -84 -80 -90 -80 -6 0
-26 16 -45 35 -38 39 -79 52 -112 34 -34 -18 -47 -40 -48 -78 0 -30 11 -46 83
-118 75 -75 87 -83 122 -83 35 0 47 9 156 116 65 64 123 130 130 146 24 58
-32 121 -97 110z"/>
<path d="M1983 4867 l-163 -163 0 -309 0 -308 148 -150 c81 -82 161 -156 179
-163 45 -19 291 -19 337 0 70 29 70 123 0 152 -22 9 -75 14 -156 14 l-123 0
-108 108 -107 107 0 240 0 240 113 113 112 112 75 0 c78 1 98 9 118 47 19 35
14 63 -17 94 -29 28 -31 29 -137 29 l-108 0 -163 -163z"/>
<path d="M3975 5005 c-17 -16 -25 -35 -25 -60 0 -25 8 -44 25 -60 21 -22 33
-25 103 -25 l78 0 112 -113 112 -114 0 -234 0 -234 -112 -112 -113 -112 -138
-3 c-138 -3 -139 -3 -163 -31 -31 -36 -31 -78 0 -114 l24 -28 171 0 171 0 165
166 165 165 0 293 c0 233 -3 297 -14 319 -8 15 -81 93 -163 175 l-150 147
-112 0 c-106 0 -113 -1 -136 -25z"/>
<path d="M5560 3676 c-57 -12 -81 -23 -138 -60 -19 -11 -169 -188 -333 -392
-208 -258 -309 -377 -332 -387 -17 -8 -79 -25 -137 -38 -120 -27 -150 -47
-150 -101 0 -43 23 -75 59 -83 37 -8 242 38 306 70 66 32 81 48 370 410 270
338 306 380 347 401 36 19 128 18 155 -1 33 -23 48 -78 30 -114 -30 -60 -603
-878 -651 -929 -27 -29 -76 -70 -107 -91 -73 -49 -1074 -450 -1215 -487 -95
-26 -113 -27 -484 -34 -488 -10 -561 -21 -899 -146 -96 -35 -180 -64 -186 -64
-16 0 -300 769 -289 780 19 18 775 293 874 318 l105 26 578 3 577 4 30 -30
c35 -34 39 -79 15 -138 -20 -48 -41 -71 -87 -94 -35 -18 -66 -19 -523 -19
-534 0 -533 0 -553 -60 -13 -35 -8 -56 21 -87 l20 -23 513 0 c590 0 577 -2
679 91 72 67 107 138 113 235 8 124 -47 221 -153 270 l-50 24 -555 0 c-748 0
-689 10 -1291 -216 -212 -79 -389 -144 -392 -144 -4 0 -27 15 -51 34 -51 39
-130 61 -190 53 -40 -6 -558 -192 -615 -221 -68 -36 -141 -152 -141 -226 0
-13 -80 -47 -347 -145 -192 -70 -356 -133 -365 -139 -40 -25 -45 -88 -11 -128
34 -39 57 -33 419 100 231 86 351 126 355 118 6 -9 261 -695 304 -817 l13 -37
-536 -197 c-296 -109 -545 -204 -554 -212 -25 -23 -32 -67 -14 -101 17 -33 34
-42 75 -42 16 0 266 88 556 195 291 107 532 195 537 195 4 0 28 -16 53 -35 25
-19 62 -39 83 -45 87 -24 123 -16 432 97 295 108 295 108 350 163 66 66 83
112 78 214 l-3 70 155 58 c344 129 400 138 890 148 401 8 442 13 600 63 102
33 1041 412 1114 449 150 79 204 142 553 645 171 246 319 464 329 483 28 55
25 162 -9 226 -59 116 -190 172 -327 140z m-3899 -1201 c16 -9 35 -28 41 -43
84 -213 388 -1052 388 -1073 0 -57 -30 -73 -315 -179 -148 -55 -280 -100 -292
-100 -30 0 -67 18 -80 39 -28 45 -396 1059 -396 1090 1 20 9 42 22 55 21 20
547 224 584 225 10 1 31 -6 48 -14z"/>
</g>
</svg>
