<svg width="25" height="28" viewBox="0 0 25 28" fill="none" xmlns="http://www.w3.org/2000/svg">
<path d="M9.42975 21.6191C8.94207 22.156 8.59019 22.8019 8.40358 23.5027C8.21697 24.2036 8.20109 24.9389 8.35725 25.6472C3.069 24.9006 0 21.1695 0 17.5312V16.5C0 15.6795 0.325948 14.8926 0.906138 14.3124C1.48633 13.7322 2.27324 13.4062 3.09375 13.4062H15.5162C15.5574 14.4024 15.9699 15.3677 16.7166 16.0978L17.7849 17.1414C17.5731 18.0569 17.055 18.8726 16.3164 19.4535L14.6974 19.0699C13.9537 18.8951 13.1767 18.9231 12.4475 19.1509C11.7184 19.3788 11.0637 19.7981 10.5518 20.3651L9.42975 21.6191ZM10.3125 0C11.8168 0 13.2594 0.597571 14.3231 1.66125C15.3868 2.72494 15.9844 4.1676 15.9844 5.67188C15.9844 7.17615 15.3868 8.61881 14.3231 9.6825C13.2594 10.7462 11.8168 11.3438 10.3125 11.3438C8.80823 11.3438 7.36556 10.7462 6.30188 9.6825C5.2382 8.61881 4.64062 7.17615 4.64062 5.67188C4.64062 4.1676 5.2382 2.72494 6.30188 1.66125C7.36556 0.597571 8.80823 0 10.3125 0ZM17.7045 12.5421L18.2882 10.9952C18.8203 9.59269 20.4786 8.89969 21.8769 9.49575L22.6772 9.83813C23.6528 10.2548 24.4613 11.0096 24.6304 12.0244C25.5729 17.6447 20.6951 25.6389 15.081 27.6788C14.0662 28.0459 12.969 27.7612 12.1007 27.1714L11.3871 26.6867C11.0941 26.4893 10.8474 26.2308 10.664 25.9288C10.4807 25.6269 10.365 25.2888 10.325 24.9378C10.285 24.5868 10.3216 24.2314 10.4324 23.8959C10.5431 23.5605 10.7252 23.253 10.9663 22.9948L12.0904 21.7429C12.3544 21.4521 12.6913 21.2371 13.0662 21.12C13.441 21.0028 13.8404 20.9879 14.223 21.0767L16.7496 21.6748C18.7529 20.4236 19.8268 18.6636 19.9712 16.3948L18.1603 14.6211C17.8899 14.3567 17.7026 14.0191 17.6216 13.6497C17.5406 13.2803 17.5694 12.8953 17.7045 12.5421Z" fill="#B52C28"/>
</svg>
