<?xml version="1.0" standalone="no"?>
<!DOCTYPE svg PUBLIC "-//W3C//DTD SVG 20010904//EN"
 "http://www.w3.org/TR/2001/REC-SVG-20010904/DTD/svg10.dtd">
<svg version="1.0" xmlns="http://www.w3.org/2000/svg"
 width="600.000000pt" height="600.000000pt" viewBox="0 0 600.000000 600.000000"
 preserveAspectRatio="xMidYMid meet">

<g transform="translate(0.000000,600.000000) scale(0.100000,-0.100000)"
fill="#000000" stroke="none">
<path d="M2790 5951 c-52 -16 -107 -51 -174 -110 -112 -99 -219 -141 -361
-141 -44 0 -107 7 -140 15 -118 28 -212 13 -299 -49 -66 -47 -111 -114 -141
-211 -56 -183 -182 -307 -379 -371 -156 -50 -235 -138 -260 -291 -5 -28 0 -79
14 -155 20 -100 21 -122 11 -193 -15 -109 -69 -219 -151 -309 -87 -96 -105
-139 -105 -251 0 -112 17 -153 104 -250 81 -91 137 -205 152 -306 11 -76 8
-117 -21 -254 -26 -124 30 -263 137 -337 24 -16 84 -42 132 -58 69 -23 161
-64 161 -74 0 0 -184 -462 -410 -1026 -310 -774 -410 -1035 -410 -1066 0 -35
6 -47 35 -73 22 -19 47 -31 64 -31 17 0 188 79 422 195 216 107 393 194 395
193 1 -2 63 -165 139 -363 151 -396 161 -415 233 -415 44 0 76 20 96 58 7 15
154 426 326 914 l312 887 37 -24 c58 -37 106 -48 195 -43 97 5 153 31 235 108
48 44 71 59 71 46 0 -3 640 -1822 682 -1939 l10 -28 101 3 101 3 133 345 c72
190 134 349 135 354 2 5 178 -77 391 -182 214 -105 396 -192 405 -193 44 -4
66 3 93 30 22 23 29 39 29 69 0 28 -122 343 -439 1138 l-439 1099 67 21 c119
36 199 110 237 216 18 50 21 170 5 212 -22 55 -25 168 -7 249 23 101 64 181
134 258 73 81 87 103 108 174 34 120 0 234 -106 350 -109 121 -157 251 -147
400 3 44 11 95 18 113 7 20 10 66 7 115 -6 99 -34 162 -101 224 -54 50 -64 56
-174 94 -48 17 -110 46 -138 64 -103 66 -194 189 -225 305 -53 198 -226 302
-428 256 -39 -9 -106 -16 -149 -16 -147 0 -254 43 -382 155 -90 79 -154 105
-249 104 -37 0 -78 -4 -92 -8z m208 -90 c23 -12 69 -46 102 -75 77 -69 127
-98 226 -132 98 -34 237 -38 354 -11 87 21 146 13 216 -28 58 -34 91 -82 124
-181 40 -116 82 -187 160 -264 68 -69 165 -126 256 -153 115 -34 179 -87 209
-176 19 -57 19 -108 -1 -185 -22 -85 -15 -258 16 -343 26 -74 83 -166 145
-232 61 -65 85 -121 85 -201 0 -83 -20 -125 -100 -215 -138 -155 -191 -358
-145 -550 27 -111 15 -189 -40 -260 -39 -52 -89 -81 -183 -108 -187 -55 -348
-219 -406 -416 -31 -104 -86 -169 -171 -201 -41 -16 -129 -14 -205 4 -189 45
-383 -10 -543 -153 -93 -83 -149 -106 -237 -98 -70 6 -106 24 -178 90 -79 72
-144 111 -235 142 -104 34 -218 42 -317 21 -206 -44 -318 12 -376 187 -40 125
-81 194 -159 272 -75 76 -174 135 -260 156 -68 16 -114 41 -152 81 -70 72 -88
167 -58 293 31 129 9 294 -57 417 -18 33 -59 90 -91 126 -75 83 -101 138 -101
217 0 78 25 131 101 217 33 37 74 94 92 127 65 122 87 288 56 416 -46 193 19
311 206 373 115 38 186 81 264 160 66 66 133 179 155 262 32 119 97 184 214
210 36 8 66 6 148 -11 218 -44 396 5 568 156 46 41 91 71 119 80 60 19 146 13
199 -14z m1783 -4318 c238 -599 434 -1099 434 -1113 0 -15 -6 -26 -17 -28 -10
-2 -201 87 -425 198 -224 110 -416 199 -427 198 -15 -2 -48 -77 -165 -383 -80
-209 -150 -386 -154 -392 -16 -25 -47 -14 -61 20 -7 17 -165 464 -351 992
-186 528 -339 965 -342 970 -7 19 118 57 203 62 58 4 104 1 160 -12 228 -51
393 40 455 249 35 119 95 209 188 282 31 24 59 44 62 44 3 0 201 -489 440
-1087z m-3177 923 c19 -28 48 -90 65 -138 40 -115 54 -141 101 -188 89 -89
208 -118 348 -86 166 38 343 1 466 -97 l28 -23 -285 -810 c-157 -445 -302
-857 -322 -916 -36 -103 -50 -123 -79 -112 -7 3 -78 174 -157 381 -79 207
-151 386 -160 397 -17 20 -22 18 -430 -182 -228 -111 -422 -202 -432 -202 -10
0 -20 7 -23 15 -4 11 776 1989 803 2038 7 12 39 -20 77 -77z"/>
<path d="M2720 5260 c-501 -51 -933 -372 -1124 -833 -207 -499 -90 -1082 293
-1466 540 -540 1415 -527 1943 28 187 196 306 436 354 711 24 141 15 389 -20
527 -114 455 -434 808 -868 961 -171 61 -403 89 -578 72z m385 -94 c461 -103
813 -417 959 -857 151 -453 29 -959 -314 -1299 -341 -340 -850 -458 -1310
-304 -521 174 -870 659 -870 1209 0 341 130 654 370 896 195 196 450 325 726
369 85 13 356 4 439 -14z"/>
<path d="M2695 5049 c-422 -61 -791 -366 -928 -769 -42 -124 -59 -225 -60
-360 -1 -143 13 -238 54 -361 134 -414 468 -703 904 -784 131 -25 345 -16 478
18 454 120 791 492 857 946 19 129 8 343 -24 460 -158 569 -706 933 -1281 850z
m370 -84 c205 -39 403 -144 555 -295 413 -408 425 -1070 27 -1497 -316 -339
-825 -437 -1243 -239 -119 57 -202 113 -292 200 -135 130 -218 261 -276 436
-45 137 -60 244 -53 389 12 270 121 517 311 707 258 257 613 367 971 299z"/>
<path d="M2863 4864 c-37 -19 -44 -34 -87 -191 l-32 -119 -123 -161 -123 -162
-33 35 -32 34 -202 0 -203 0 -29 -29 -29 -29 0 -467 0 -467 28 -28 c37 -37 82
-43 276 -39 l155 4 34 33 34 33 79 -40 c140 -71 158 -74 539 -79 186 -2 359
-1 382 3 48 7 104 49 129 96 20 39 18 118 -4 154 l-18 29 29 25 c34 28 67 93
67 131 0 14 -9 44 -19 67 l-19 41 30 29 c58 54 74 136 39 202 l-18 34 32 29
c44 38 58 77 53 141 -5 67 -33 108 -91 136 -41 20 -60 21 -340 21 -210 0 -297
3 -297 11 0 6 12 50 26 97 48 157 22 282 -78 379 -40 39 -83 63 -111 63 -7 0
-26 -7 -44 -16z m96 -100 c92 -83 104 -170 47 -359 -20 -66 -36 -121 -36 -122
0 -1 7 -9 16 -17 13 -14 58 -16 340 -16 362 0 373 -2 393 -63 23 -68 -19 -118
-104 -125 -30 -2 -60 -10 -66 -18 -20 -24 -1 -51 46 -63 75 -19 100 -91 51
-148 -20 -22 -34 -29 -81 -33 -40 -3 -61 -10 -69 -23 -16 -24 3 -50 44 -58 43
-9 69 -37 76 -81 5 -29 1 -41 -22 -67 -24 -27 -38 -33 -86 -38 -32 -3 -63 -12
-70 -20 -17 -21 1 -45 43 -56 54 -14 79 -43 79 -93 0 -35 -5 -47 -31 -69 l-32
-26 -361 3 c-407 4 -414 5 -563 88 l-73 41 0 353 0 353 159 207 159 208 32
127 c33 124 44 151 61 151 5 0 27 -16 48 -36z m-551 -542 c10 -7 12 -104 10
-453 l-3 -444 -179 -3 c-137 -2 -181 1 -188 10 -13 22 -10 872 4 886 14 14
334 17 356 4z"/>
<path d="M2154 3647 c-30 -27 -37 -41 -38 -74 -1 -50 16 -84 54 -106 56 -34
136 -13 165 43 42 82 -14 170 -110 170 -26 0 -45 -9 -71 -33z m112 -62 c26
-39 -31 -86 -64 -53 -18 18 -15 55 6 67 23 14 42 10 58 -14z"/>
</g>
</svg>
