<svg width="16" height="16" viewBox="0 0 16 16" fill="none" xmlns="http://www.w3.org/2000/svg">
<path d="M3.95185 0.221226C4.85672 0.880685 5.56131 1.78081 6.16297 2.64214L6.51289 3.15198L6.84302 3.63885C7.00815 3.8801 7.07875 4.17366 7.04137 4.46361C7.004 4.75355 6.86126 5.01962 6.64035 5.2111L5.09581 6.35823C5.02119 6.41211 4.96866 6.49125 4.94799 6.58094C4.92731 6.67063 4.93989 6.76478 4.98339 6.84589C5.33331 7.4816 5.95556 8.42843 6.66806 9.14093C7.38056 9.85343 8.37252 10.5169 9.05256 10.9064C9.13782 10.9542 9.23818 10.9676 9.33301 10.9437C9.42784 10.9199 9.50992 10.8606 9.56239 10.7781L10.5678 9.24781C10.7527 9.00227 11.0253 8.83778 11.3287 8.78879C11.6321 8.73979 11.9427 8.8101 12.1955 8.98498L12.7204 9.34835C13.7012 10.0292 14.7549 10.8026 15.5609 11.8342C15.6887 11.9987 15.77 12.1945 15.7963 12.4011C15.8226 12.6078 15.793 12.8177 15.7105 13.009C15.0478 14.5551 13.3711 15.8717 11.6271 15.8076L11.3896 15.7941L11.2051 15.7783L11.0008 15.7545L10.7784 15.7244L10.5369 15.6849L10.4103 15.6611L10.1443 15.6041L10.0049 15.5724L9.71518 15.498L9.41039 15.4109L9.09214 15.308C7.63073 14.8124 5.77585 13.8387 3.87268 11.9355C1.96952 10.0324 0.996559 8.17827 0.500975 6.71685L0.398059 6.3986L0.310975 6.09381L0.236559 5.80406L0.174809 5.53014C0.156994 5.44435 0.140368 5.35831 0.124934 5.27206L0.0853505 5.0306L0.0536838 4.80814L0.0307255 4.60389L0.0148921 4.41943L0.00222552 4.18193C-0.0618995 2.44343 1.26889 0.75481 2.80789 0.0953516C2.99312 0.015367 3.19597 -0.0150855 3.39652 0.00698218C3.59707 0.0290499 3.78844 0.10288 3.95185 0.221226ZM10.3921 3.06727L10.4839 3.07756C11.0602 3.17921 11.5894 3.46068 11.9959 3.88164C12.4023 4.3026 12.6651 4.84142 12.7465 5.42089C12.7755 5.62133 12.7266 5.82526 12.6098 5.99074C12.4931 6.15621 12.3173 6.27065 12.1188 6.31051C11.9202 6.35036 11.7139 6.3126 11.5423 6.205C11.3708 6.09739 11.247 5.92812 11.1964 5.73202L11.1782 5.64098C11.1463 5.41385 11.0494 5.2008 10.8991 5.02758C10.7487 4.85436 10.5515 4.72838 10.3311 4.66485L10.2084 4.63714C10.0096 4.60191 9.83178 4.49206 9.71131 4.33006C9.59083 4.16806 9.53679 3.96615 9.56025 3.76563C9.58371 3.56511 9.68289 3.38113 9.83751 3.25132C9.99213 3.1215 10.1905 3.05566 10.3921 3.06727ZM10.3984 0.660601C11.6582 0.660601 12.8664 1.16105 13.7571 2.05184C14.6479 2.94264 15.1484 4.15082 15.1484 5.4106C15.1482 5.61238 15.0709 5.80646 14.9324 5.95318C14.7939 6.09991 14.6046 6.1882 14.4031 6.20003C14.2017 6.21185 14.0033 6.14632 13.8486 6.01681C13.6939 5.8873 13.5944 5.70359 13.5706 5.50323L13.5651 5.4106C13.565 4.60671 13.2592 3.83294 12.7096 3.24621C12.1601 2.65948 11.408 2.30371 10.6058 2.25106L10.3984 2.24393C10.1884 2.24393 9.98707 2.16053 9.8386 2.01206C9.69013 1.86359 9.60672 1.66223 9.60672 1.45227C9.60672 1.24231 9.69013 1.04094 9.8386 0.892475C9.98707 0.744009 10.1884 0.660601 10.3984 0.660601Z" fill="black"/>
</svg>
