<svg width="100" height="100" viewBox="0 0 100 100" fill="none" xmlns="http://www.w3.org/2000/svg">
<path d="M68.5555 8.36414H31.0299C30.3568 16.5846 24.0852 23.4406 15.4177 25.4169C15.1143 55.2624 27.7805 71.3167 38.7739 79.6109H59.4339C70.9342 70.515 84.2354 53.8413 84.1583 25.4146C75.4955 23.4355 69.2282 16.5814 68.5555 8.36414ZM49.7854 67.8731C38.3371 67.8731 29.0233 58.5949 29.0233 47.1906C29.0233 35.7864 38.3371 26.5082 49.7854 26.5082C61.2337 26.5082 70.5476 35.7864 70.5476 47.1906C70.5476 58.5949 61.2337 67.8731 49.7854 67.8731Z" fill="#252525"/>
<path d="M49.7854 30.1917C40.3724 30.1917 32.7145 37.8173 32.7145 47.1904C32.7145 56.5634 40.3726 64.1891 49.7854 64.1891C59.1982 64.1891 66.8564 56.5634 66.8564 47.1904C66.8564 37.8173 59.1985 30.1917 49.7854 30.1917ZM60.4296 40.7669L47.6521 54.1938C46.8972 54.9865 45.6136 54.9551 44.9019 54.1113L40.0504 48.3587C39.394 47.5805 39.4942 46.4186 40.2739 45.7637C41.0538 45.109 42.2179 45.2085 42.8743 45.9867L46.397 50.1637L57.7534 38.2301C58.4555 37.4929 59.6237 37.4628 60.3626 38.163C61.1014 38.8632 61.1316 40.0293 60.4296 40.7669Z" fill="#252525"/>
<path d="M19.9208 100H79.7135V83.2947H19.9208V100Z" fill="#252525"/>
<path d="M83.4043 93.9946H98.065L91.2565 85.5591C90.7122 84.8846 90.7122 83.9228 91.2565 83.2482L98.065 74.813H83.402L83.4043 93.9946Z" fill="#252525"/>
<path d="M1.50598 93.9946H16.2248L16.1739 74.8127H1.5062L8.31453 83.248C8.85897 83.9226 8.85897 84.8843 8.31453 85.5589L1.50598 93.9946Z" fill="#252525"/>
<path d="M91.4112 6.00983C90.4632 6.00983 89.6946 5.24274 89.6946 4.29658V1.71325C89.6946 0.767094 90.4632 0 91.4112 0C92.3593 0 93.1279 0.767094 93.1279 1.71325V4.29658C93.1279 5.24274 92.3593 6.00983 91.4112 6.00983Z" fill="#252525"/>
<path d="M91.4112 17.1607C90.4632 17.1607 89.6946 16.3936 89.6946 15.4474V12.8639C89.6946 11.9177 90.4632 11.1506 91.4112 11.1506C92.3593 11.1506 93.1279 11.9177 93.1279 12.8639V15.4474C93.1279 16.3936 92.3593 17.1607 91.4112 17.1607Z" fill="#252525"/>
<path d="M98.2832 10.2936H95.698C94.7499 10.2936 93.9813 9.52647 93.9813 8.58031C93.9813 7.63416 94.7499 6.86707 95.698 6.86707H98.2832C99.2313 6.86707 99.9999 7.63416 99.9999 8.58031C99.9999 9.52647 99.2313 10.2936 98.2832 10.2936Z" fill="#252525"/>
<path d="M87.1243 10.2936H84.5391C83.591 10.2936 82.8224 9.52647 82.8224 8.58031C82.8224 7.63416 83.591 6.86707 84.5391 6.86707H87.1243C88.0724 6.86707 88.841 7.63416 88.841 8.58031C88.841 9.52647 88.0724 10.2936 87.1243 10.2936Z" fill="#252525"/>
<path d="M8.58886 6.00983C7.64078 6.00983 6.87219 5.24274 6.87219 4.29658V1.71325C6.87219 0.767094 7.21322 0 8.16151 0C9.1098 0 10.3055 0.767094 10.3055 1.71325V4.29658C10.3053 5.24274 9.53694 6.00983 8.58886 6.00983Z" fill="#252525"/>
<path d="M8.58886 17.1607C7.64078 17.1607 6.87219 16.3936 6.87219 15.4474V12.8639C6.87219 11.9177 7.64078 11.1506 8.58886 11.1506C9.53694 11.1506 10.3055 11.9177 10.3055 12.8639V15.4474C10.3053 16.3936 9.53694 17.1607 8.58886 17.1607Z" fill="#252525"/>
<path d="M15.4609 10.2936H12.8756C11.9275 10.2936 11.1589 9.52647 11.1589 8.58031C11.1589 7.63416 11.9275 6.86707 12.8756 6.86707H15.4609C16.4089 6.86707 17.1775 7.63416 17.1775 8.58031C17.1775 9.52647 16.4089 10.2936 15.4609 10.2936Z" fill="#252525"/>
<path d="M4.30192 10.2936H1.71667C0.76859 10.2936 0 9.52647 0 8.58031C0 7.63416 0.76859 6.86707 1.71667 6.86707H4.30192C5.25 6.86707 6.01859 7.63416 6.01859 8.58031C6.01859 9.52647 5.25 10.2936 4.30192 10.2936Z" fill="#252525"/>
</svg>
