<svg width="16" height="16" viewBox="0 0 16 16" fill="none" xmlns="http://www.w3.org/2000/svg">
<path d="M7.04792 14.8042V14.0958C5.57222 13.9306 4.30596 13.3197 3.24913 12.2634C2.19229 11.207 1.58147 9.94075 1.41667 8.46459H0.708336C0.507641 8.46459 0.33953 8.39659 0.204003 8.26059C0.0684747 8.12459 0.000474665 7.95647 2.44253e-06 7.75625C-0.00046978 7.55603 0.0675303 7.38792 0.204003 7.25192C0.340475 7.11592 0.508586 7.04792 0.708336 7.04792H1.41667C1.58195 5.57222 2.193 4.30596 3.24984 3.24913C4.30667 2.19229 5.5727 1.58147 7.04792 1.41667V0.708336C7.04792 0.507641 7.11592 0.33953 7.25192 0.204003C7.38792 0.0684747 7.55603 0.000474665 7.75625 2.44253e-06C7.95647 -0.00046978 8.12482 0.0675303 8.26129 0.204003C8.39777 0.340475 8.46553 0.508586 8.46459 0.708336V1.41667C9.94028 1.58195 11.2065 2.193 12.2634 3.24984C13.3202 4.30667 13.931 5.5727 14.0958 7.04792H14.8042C15.0049 7.04792 15.1732 7.11592 15.3092 7.25192C15.4452 7.38792 15.513 7.55603 15.5125 7.75625C15.512 7.95647 15.4443 8.12482 15.3092 8.26129C15.1742 8.39777 15.0058 8.46553 14.8042 8.46459H14.0958C13.9306 9.94028 13.3197 11.2065 12.2634 12.2634C11.207 13.3202 9.94075 13.931 8.46459 14.0958V14.8042C8.46459 15.0049 8.39659 15.1732 8.26059 15.3092C8.12459 15.4452 7.95647 15.513 7.75625 15.5125C7.55603 15.512 7.38792 15.4443 7.25192 15.3092C7.11592 15.1742 7.04792 15.0058 7.04792 14.8042ZM11.2625 11.2625C12.2306 10.2944 12.7146 9.1257 12.7146 7.75625C12.7146 6.38681 12.2306 5.21806 11.2625 4.25C10.2944 3.28195 9.1257 2.79792 7.75625 2.79792C6.38681 2.79792 5.21806 3.28195 4.25 4.25C3.28195 5.21806 2.79792 6.38681 2.79792 7.75625C2.79792 9.1257 3.28195 10.2944 4.25 11.2625C5.21806 12.2306 6.38681 12.7146 7.75625 12.7146C9.1257 12.7146 10.2944 12.2306 11.2625 11.2625ZM5.75521 9.75729C5.20035 9.20243 4.92292 8.53542 4.92292 7.75625C4.92292 6.97709 5.20035 6.31007 5.75521 5.75521C6.31007 5.20035 6.97709 4.92292 7.75625 4.92292C8.53542 4.92292 9.20243 5.20035 9.75729 5.75521C10.3122 6.31007 10.5896 6.97709 10.5896 7.75625C10.5896 8.53542 10.3122 9.20243 9.75729 9.75729C9.20243 10.3122 8.53542 10.5896 7.75625 10.5896C6.97709 10.5896 6.31007 10.3122 5.75521 9.75729Z" fill="black"/>
</svg>
