<svg width="100" height="100" viewBox="0 0 100 100" fill="none" xmlns="http://www.w3.org/2000/svg">
<path d="M93.7485 23.4383C93.7477 21.3666 92.9244 19.38 91.4595 17.9151C89.9946 16.4502 88.0079 15.6269 85.9362 15.6261H81.2489V23.4383C81.2431 23.8489 81.0759 24.2407 80.7835 24.529C80.4912 24.8172 80.0971 24.9788 79.6865 24.9788C79.2759 24.9788 78.8818 24.8172 78.5894 24.529C78.297 24.2407 78.1298 23.8489 78.124 23.4383V12.5013C78.1102 10.8528 77.4457 9.27649 76.2751 8.11569C75.1045 6.95489 73.5227 6.30358 71.8742 6.30359C70.2257 6.3036 68.6439 6.95494 67.4733 8.11576C66.3028 9.27657 65.6382 10.8529 65.6245 12.5013V15.6261H37.5005V23.4383C37.4941 23.8485 37.3267 24.2398 37.0344 24.5276C36.7421 24.8154 36.3483 24.9768 35.938 24.9768C35.5278 24.9768 35.134 24.8154 34.8417 24.5276C34.5494 24.2398 34.3819 23.8485 34.3756 23.4383V12.5013C34.3618 10.8528 33.6972 9.2765 32.5266 8.1157C31.3561 6.95491 29.7743 6.30361 28.1257 6.30364C26.4772 6.30366 24.8954 6.95501 23.7248 8.11584C22.5543 9.27666 21.8898 10.853 21.876 12.5014V15.6261H14.0638C11.9921 15.6269 10.0055 16.4502 8.54056 17.9151C7.07564 19.38 6.25233 21.3666 6.25159 23.4383V29.6882H93.7485V23.4383ZM25.0009 15.6261V12.5013C25.0009 11.6725 25.3301 10.8777 25.9161 10.2916C26.5022 9.7056 27.297 9.37638 28.1258 9.37638C28.9545 9.37638 29.7494 9.7056 30.3354 10.2916C30.9214 10.8777 31.2506 11.6725 31.2506 12.5013L31.2507 15.6261H25.0009ZM74.9992 15.6261H68.7493V12.5013C68.7552 11.6763 69.087 10.8871 69.6724 10.3058C70.2578 9.72456 71.0493 9.39835 71.8742 9.39835C72.6992 9.39835 73.4907 9.72456 74.0761 10.3058C74.6615 10.8871 74.9933 11.6763 74.9992 12.5013V15.6261Z" fill="#252525"/>
<path d="M90.6236 66.4681C89.6744 65.9166 88.5965 65.6255 87.4987 65.6243H79.6865V56.2497C79.6804 55.8393 79.5131 55.4478 79.2207 55.1597C78.9284 54.8717 78.5344 54.7102 78.124 54.7102C77.7135 54.7102 77.3196 54.8717 77.0272 55.1598C76.7349 55.4478 76.5676 55.8394 76.5615 56.2497V73.4366C76.5553 73.8468 76.3879 74.2382 76.0956 74.5261C75.8032 74.8141 75.4094 74.9755 74.999 74.9754C74.5887 74.9754 74.1949 74.814 73.9025 74.5261C73.6102 74.2381 73.4429 73.8468 73.4367 73.4365V68.7492H71.8743C71.0462 68.7516 70.2528 69.0816 69.6673 69.6671C69.0817 70.2526 68.7517 71.0461 68.7493 71.8741V79.3113L70.8586 83.5611C71.0119 83.8044 71.0932 84.0861 71.093 84.3736H91.5923C92.4261 82.8668 93.1469 81.3 93.7486 79.6864L93.7485 71.8741C93.7505 70.7775 93.4626 69.6998 92.9138 68.7504C92.365 67.801 91.5749 67.0136 90.6236 66.4681Z" fill="#252525"/>
<path d="M71.8743 92.1859C71.8743 92.6003 72.0389 92.9977 72.3319 93.2907C72.6249 93.5838 73.0224 93.7484 73.4368 93.7484H89.0611C89.4755 93.7484 89.8729 93.5838 90.1659 93.2907C90.459 92.9977 90.6236 92.6003 90.6236 92.1859V87.4985H71.8743V92.1859Z" fill="#252525"/>
<path d="M6.25049 32.8127V78.1247C6.25124 80.1965 7.07457 82.1831 8.53952 83.6481C10.0045 85.113 11.9911 85.9364 14.0629 85.9371H68.5779C67.8591 84.5152 66.4998 81.7652 65.7966 80.3902C65.4529 80.4059 65.6873 72.1559 65.6248 71.8747C65.6245 71.0539 65.786 70.2411 66.1 69.4827C66.414 68.7243 66.8744 68.0352 67.4548 67.4548C68.0352 66.8743 68.7243 66.414 69.4827 66.1C70.2411 65.786 71.0539 65.6245 71.8748 65.6247H73.4373V56.25C73.4481 55.014 73.9467 53.8322 74.8246 52.962C75.7025 52.0917 76.8886 51.6035 78.1247 51.6035C79.3608 51.6035 80.5469 52.0917 81.4248 52.962C82.3027 53.8322 82.8013 55.014 82.8122 56.25V62.5H87.4997C89.8084 62.5042 92.0342 63.3611 93.7496 64.9063V32.8127H6.25049ZM25.0007 78.124C15.6282 77.9673 17.3492 79.6713 17.1886 70.3118C17.1949 69.9015 17.3622 69.5102 17.6545 69.2222C17.9469 68.9343 18.3407 68.7729 18.7511 68.7729C19.1614 68.7729 19.5552 68.9343 19.8476 69.2222C20.1399 69.5102 20.3073 69.9015 20.3135 70.3118V74.9992H25.0008C25.4111 75.0054 25.8025 75.1728 26.0904 75.4651C26.3783 75.7575 26.5397 76.1513 26.5397 76.5617C26.5397 76.972 26.3783 77.3658 26.0903 77.6582C25.8024 77.9505 25.411 78.1178 25.0007 78.124ZM25.0007 62.4996C15.6282 62.3428 17.3492 64.0468 17.1886 54.6874C17.1949 54.2771 17.3622 53.8857 17.6545 53.5978C17.9469 53.3099 18.3407 53.1485 18.7511 53.1485C19.1614 53.1485 19.5552 53.3099 19.8476 53.5978C20.1399 53.8857 20.3073 54.2771 20.3135 54.6874V59.3746H25.0008C25.4111 59.3809 25.8025 59.5483 26.0904 59.8406C26.3784 60.133 26.5398 60.5268 26.5397 60.9372C26.5397 61.3475 26.3783 61.7414 26.0904 62.0337C25.8024 62.326 25.411 62.4934 25.0007 62.4996ZM25.0007 46.8751C15.6282 46.7184 17.3492 48.4223 17.1886 39.0629C17.1949 38.6526 17.3622 38.2612 17.6546 37.9733C17.9469 37.6854 18.3408 37.524 18.7511 37.524C19.1614 37.524 19.5553 37.6854 19.8476 37.9734C20.1399 38.2613 20.3073 38.6527 20.3135 39.063V43.7502H25.0008C25.4109 43.7567 25.802 43.9242 26.0897 44.2165C26.3775 44.5088 26.5387 44.9025 26.5387 45.3127C26.5387 45.7228 26.3774 46.1165 26.0897 46.4088C25.802 46.7011 25.4108 46.8686 25.0007 46.8751ZM40.6253 78.124C31.2527 77.9673 32.9737 79.6713 32.8131 70.3118C32.8191 69.9015 32.9864 69.5099 33.2788 69.2219C33.5711 68.9339 33.9651 68.7724 34.3755 68.7724C34.7859 68.7724 35.1798 68.9339 35.4722 69.2219C35.7645 69.5099 35.9318 69.9015 35.9379 70.3118V74.9992H40.6253C41.0355 75.0054 41.4269 75.1728 41.7149 75.4651C42.0028 75.7574 42.1642 76.1513 42.1642 76.5616C42.1642 76.9719 42.0028 77.3658 41.7149 77.6581C41.4269 77.9505 41.0355 78.1178 40.6253 78.124ZM40.6253 62.4996C31.2527 62.3428 32.9737 64.0468 32.8131 54.6874C32.8191 54.277 32.9864 53.8855 33.2788 53.5975C33.5711 53.3094 33.9651 53.148 34.3755 53.148C34.7859 53.148 35.1798 53.3094 35.4722 53.5975C35.7645 53.8855 35.9318 54.277 35.9379 54.6874V59.3746H40.6253C41.0356 59.3809 41.4269 59.5482 41.7149 59.8406C42.0028 60.1329 42.1642 60.5268 42.1642 60.9371C42.1642 61.3475 42.0028 61.7413 41.7149 62.0337C41.4269 62.326 41.0356 62.4934 40.6253 62.4996ZM40.6253 46.8751C31.2527 46.7184 32.9737 48.4223 32.8131 39.0629C32.8192 38.6525 32.9865 38.261 33.2788 37.973C33.5712 37.6849 33.9651 37.5235 34.3755 37.5235C34.786 37.5235 35.1799 37.685 35.4722 37.973C35.7646 38.2611 35.9319 38.6526 35.9379 39.063V43.7502H40.6253C41.0354 43.7567 41.4265 43.9242 41.7142 44.2165C42.0019 44.5088 42.1632 44.9025 42.1632 45.3126C42.1632 45.7228 42.0019 46.1165 41.7142 46.4088C41.4265 46.7011 41.0354 46.8686 40.6253 46.8751ZM56.2497 62.4996C46.8771 62.3428 48.5981 64.0469 48.4375 54.6874C48.4433 54.2768 48.6105 53.885 48.9028 53.5967C49.1952 53.3084 49.5894 53.1468 50 53.1468C50.4106 53.1468 50.8047 53.3084 51.0971 53.5967C51.3895 53.885 51.5567 54.2768 51.5625 54.6874V59.3746H56.2497C56.66 59.3809 57.0514 59.5482 57.3393 59.8406C57.6273 60.1329 57.7887 60.5268 57.7887 60.9371C57.7887 61.3475 57.6273 61.7413 57.3393 62.0337C57.0514 62.326 56.66 62.4934 56.2497 62.4996ZM56.2497 46.8751C46.8771 46.7184 48.5981 48.4223 48.4375 39.0629C48.4433 38.6523 48.6105 38.2605 48.9029 37.9722C49.1953 37.6839 49.5894 37.5223 50 37.5223C50.4107 37.5224 50.8048 37.684 51.0972 37.9723C51.3895 38.2606 51.5567 38.6524 51.5625 39.063V43.7502H56.2497C56.6598 43.7567 57.0509 43.9242 57.3387 44.2165C57.6264 44.5088 57.7876 44.9025 57.7876 45.3126C57.7876 45.7228 57.6264 46.1165 57.3386 46.4088C57.0509 46.7011 56.6598 46.8686 56.2497 46.8751ZM82.8113 43.7502H79.6865V46.8752C79.6865 47.2896 79.5218 47.687 79.2288 47.9801C78.9358 48.2731 78.5384 48.4377 78.124 48.4377C77.7096 48.4377 77.3121 48.2731 77.0191 47.9801C76.7261 47.687 76.5615 47.2896 76.5615 46.8752V43.7502H73.4366C73.0263 43.7441 72.6348 43.5768 72.3467 43.2845C72.0587 42.9921 71.8972 42.5982 71.8972 42.1878C71.8972 41.7774 72.0587 41.3834 72.3467 41.0911C72.6348 40.7987 73.0263 40.6314 73.4366 40.6253H76.5615V37.5005C76.5615 37.0861 76.7261 36.6886 77.0191 36.3956C77.3122 36.1026 77.7096 35.938 78.124 35.938C78.5384 35.938 78.9358 36.1026 79.2288 36.3956C79.5219 36.6886 79.6865 37.0861 79.6865 37.5005V40.6253H82.8113C83.2217 40.6314 83.6132 40.7987 83.9013 41.0911C84.1893 41.3834 84.3508 41.7774 84.3508 42.1878C84.3508 42.5982 84.1893 42.9921 83.9012 43.2845C83.6132 43.5768 83.2217 43.7441 82.8113 43.7502Z" fill="#252525"/>
</svg>
