<?xml version="1.0" standalone="no"?>
<!DOCTYPE svg PUBLIC "-//W3C//DTD SVG 20010904//EN"
 "http://www.w3.org/TR/2001/REC-SVG-20010904/DTD/svg10.dtd">
<svg version="1.0" xmlns="http://www.w3.org/2000/svg"
 width="600.000000pt" height="600.000000pt" viewBox="0 0 600.000000 600.000000"
 preserveAspectRatio="xMidYMid meet">

<g transform="translate(0.000000,600.000000) scale(0.100000,-0.100000)"
fill="#000000" stroke="none">
<path d="M60 5285 l0 -55 470 0 470 0 0 55 0 55 -470 0 -470 0 0 -55z"/>
<path d="M690 4970 l0 -50 1470 0 1470 0 0 -1735 0 -1735 -796 0 -796 0 -43
38 c-169 148 -424 205 -652 146 -84 -21 -188 -73 -266 -132 l-68 -52 -370 0
-369 0 0 680 0 680 995 0 995 0 0 -175 c0 -96 3 -175 7 -175 14 0 1082 715
1080 723 -1 4 -245 169 -542 367 l-540 360 -3 -180 -2 -180 -995 0 -995 0 -2
263 -3 262 -52 3 -53 3 0 -1370 0 -1371 105 0 105 0 0 -210 0 -210 265 0 265
0 0 43 c1 105 56 249 136 350 190 243 545 308 812 150 79 -47 170 -136 216
-211 43 -71 82 -187 92 -270 l7 -62 892 0 892 0 6 69 c17 202 147 392 338 491
107 55 190 73 314 67 167 -8 295 -63 410 -176 106 -104 166 -224 187 -372 l11
-79 302 0 c295 0 303 1 345 23 73 39 81 65 78 256 l-3 163 -47 43 -48 43 0
584 0 583 -104 515 -103 515 -111 193 c-61 106 -121 205 -133 220 -60 76 -208
178 -340 234 -64 27 -459 114 -1251 278 l-58 11 0 220 0 219 -1525 0 -1525 0
0 -50z m3642 -620 c315 -66 596 -128 623 -137 113 -36 313 -161 353 -220 l14
-23 -791 0 -791 0 0 250 c0 157 4 250 10 250 5 0 267 -54 582 -120z m1110
-585 l58 -100 -515 -3 -515 -2 0 -925 0 -925 114 0 c242 0 460 -92 632 -267
92 -94 92 -93 -29 -93 -97 0 -105 1 -127 25 -35 37 -138 101 -208 130 -34 14
-103 32 -154 41 -202 35 -400 -15 -571 -144 l-68 -52 -160 0 -159 0 0 890 0
890 260 0 260 0 0 55 0 55 -260 0 -260 0 0 105 0 105 260 0 260 0 0 55 0 55
-260 0 -260 0 0 105 0 105 822 -2 823 -3 57 -100z m-2649 -333 c202 -135 367
-248 367 -251 0 -3 -178 -124 -395 -269 l-395 -262 0 135 0 135 -1050 0 -1050
0 0 260 0 260 1048 2 1047 3 3 133 3 134 27 -18 c15 -10 192 -128 395 -262z
m2752 91 c6 -26 185 -914 185 -920 0 -2 -64 -3 -142 -3 l-143 -1 -432 152
-433 152 0 324 0 323 479 0 479 0 7 -27z m-550 -878 l409 -145 163 0 163 0 0
-105 0 -105 -106 0 -105 0 3 -52 3 -53 103 -3 102 -3 0 -49 0 -50 -106 0 -105
0 3 -52 3 -53 103 -3 102 -3 0 -49 0 -50 -106 0 -105 0 3 -52 3 -53 103 -3
102 -3 0 -49 0 -50 -105 0 -105 0 0 -55 0 -55 105 0 105 0 0 -50 0 -50 -153 0
-154 0 -37 54 c-110 160 -292 295 -491 363 -78 26 -216 53 -276 53 l-39 0 0
130 0 130 105 0 105 0 0 55 0 55 -105 0 -105 0 0 250 c0 138 1 250 3 250 1 0
186 -65 412 -145z m-4121 -1392 c-25 -49 -52 -118 -61 -155 l-16 -68 -158 0
-159 0 0 155 0 155 219 0 219 0 -44 -87z m3051 4 c-23 -45 -51 -115 -61 -155
l-18 -72 -794 2 -794 3 -18 71 c-10 39 -36 105 -57 145 -21 41 -39 77 -41 82
-2 4 408 7 911 7 l915 0 -43 -83z m1897 66 c10 -9 18 -30 18 -49 l0 -33 -157
-3 -158 -3 -3 -52 -3 -53 160 0 161 0 0 -34 c0 -66 -3 -67 -283 -64 l-250 3
-14 59 c-10 46 -48 136 -101 239 -2 4 135 7 304 7 272 0 310 -2 326 -17z"/>
<path d="M270 4760 l0 -50 785 0 785 0 0 50 0 50 -785 0 -785 0 0 -50z"/>
<path d="M60 4445 l0 -55 420 0 420 0 0 55 0 55 -420 0 -420 0 0 -55z"/>
<path d="M1431 1439 c-147 -25 -308 -148 -375 -288 -144 -300 18 -652 339
-737 69 -19 209 -18 276 2 89 26 164 72 232 143 103 107 147 216 147 366 0
247 -173 459 -415 510 -78 16 -123 17 -204 4z m276 -139 c170 -84 267 -269
234 -448 -33 -178 -171 -313 -350 -344 -180 -31 -363 68 -444 239 -30 63 -32
76 -32 173 0 97 2 110 32 172 53 113 136 187 258 231 39 14 71 17 142 14 80
-4 102 -9 160 -37z"/>
<path d="M1415 1156 c-93 -44 -147 -131 -147 -238 0 -272 366 -356 495 -113
29 55 30 173 3 229 -26 52 -79 104 -130 127 -60 27 -157 25 -221 -5z m181 -97
c63 -30 87 -75 82 -150 -4 -50 -9 -64 -37 -93 -77 -79 -202 -62 -251 34 -42
83 -9 178 75 216 43 19 82 17 131 -7z"/>
<path d="M4464 1435 c-94 -20 -180 -69 -256 -145 -208 -208 -208 -531 1 -739
105 -105 217 -151 372 -151 150 0 256 45 364 154 112 113 155 217 155 371 0
247 -173 459 -417 510 -82 18 -138 18 -219 0z m235 -114 c156 -48 262 -169
292 -332 22 -123 -19 -256 -111 -353 -202 -214 -547 -163 -677 100 -83 169
-46 365 92 493 110 101 262 136 404 92z"/>
<path d="M4465 1156 c-132 -61 -186 -217 -121 -349 95 -194 369 -195 468 -2
11 22 23 67 26 101 4 51 0 71 -20 115 -29 64 -78 115 -133 140 -59 27 -157 25
-220 -5z m181 -97 c128 -62 107 -251 -32 -288 -71 -19 -140 13 -174 79 -42 83
-9 178 75 216 43 19 82 17 131 -7z"/>
</g>
</svg>
