<svg width="100" height="100" viewBox="0 0 100 100" fill="none" xmlns="http://www.w3.org/2000/svg">
<path d="M25.5578 47.8063L27.4094 44.9266C25.3406 42.225 22.1797 40.625 18.75 40.625C15.3203 40.625 12.1594 42.225 10.0922 44.9266L11.9437 47.8063C13.2765 45.4016 15.8109 43.75 18.75 43.75C21.689 43.75 24.2234 45.4016 25.5578 47.8063Z" fill="#252525"/>
<path d="M18.75 37.5C22.7875 37.5 26.5328 39.225 29.1766 42.175L30.925 39.4547C27.7047 36.2141 23.3313 34.375 18.75 34.375C14.1688 34.375 9.79532 36.2141 6.57501 39.4547L8.32345 42.175C10.9672 39.225 14.7125 37.5 18.75 37.5Z" fill="#252525"/>
<path d="M25 25C31.0125 25 36.8281 27.5891 42.4547 30.0938C44.5094 31.0078 46.5125 31.8922 48.4562 32.6234C48.5578 30.1281 50.6047 28.125 53.125 28.125H62.5C65.0844 28.125 67.1875 30.2281 67.1875 32.8125V34.375H81.25C82.8766 34.375 84.4453 34.6172 85.9375 35.0406V14.0625H82.8125V10.9375H85.9375V4.6875H7.8125V10.9375H10.9375V14.0625H7.8125V34.4922C8.67188 33.9406 9.55781 33.4406 10.4875 33.025C13.625 28.0719 19.1234 25 25 25ZM76.5625 10.9375H79.6875V14.0625H76.5625V10.9375ZM70.3125 10.9375H73.4375V14.0625H70.3125V10.9375ZM64.0625 10.9375H67.1875V14.0625H64.0625V10.9375ZM57.8125 10.9375H60.9375V14.0625H57.8125V10.9375ZM51.5625 10.9375H54.6875V14.0625H51.5625V10.9375ZM45.3125 10.9375H48.4375V14.0625H45.3125V10.9375ZM39.0625 10.9375H42.1875V14.0625H39.0625V10.9375ZM32.8125 10.9375H35.9375V14.0625H32.8125V10.9375ZM26.5625 10.9375H29.6875V14.0625H26.5625V10.9375ZM20.3125 10.9375H23.4375V14.0625H20.3125V10.9375ZM14.0625 10.9375H17.1875V14.0625H14.0625V10.9375Z" fill="#252525"/>
<path d="M18.75 56.25C21.3388 56.25 23.4375 54.1513 23.4375 51.5625C23.4375 48.9737 21.3388 46.875 18.75 46.875C16.1612 46.875 14.0625 48.9737 14.0625 51.5625C14.0625 54.1513 16.1612 56.25 18.75 56.25Z" fill="#252525"/>
<path d="M53.125 31.25C52.2625 31.25 51.5625 31.95 51.5625 32.8125V33.6516C53.1812 34.0984 54.7484 34.375 56.25 34.375H64.0625V32.8125C64.0625 31.95 63.3625 31.25 62.5 31.25H53.125Z" fill="#252525"/>
<path d="M85.9375 85.9375H82.8125V79.6875H79.6875V89.0625H76.5625V79.6875H73.4375V85.9375H70.3125V79.6875H67.1875V89.0625H64.0625V79.6875H60.9375V85.9375H57.8125V79.6875H54.6875V89.0625H51.5625V79.6875H48.4375V85.9375H45.3125V79.6875H42.1875V89.0625H39.0625V79.6875H35.9375V85.9375H32.8125V79.6875H29.6875V89.0625H26.5625V79.6875H23.4375V85.9375H20.3125V79.6875H17.1875V89.0625H14.0625V79.6875H10.9375V85.9375H7.8125V79.6875H4.6875V95.3125H89.0625V79.6875H85.9375V85.9375Z" fill="#252525"/>
<path d="M81.25 37.5H56.25C51.4109 37.5 46.4437 35.2891 41.1828 32.9484C35.8562 30.5766 30.3469 28.125 25 28.125C21.6484 28.125 18.4578 29.3609 15.9515 31.4687C16.875 31.3391 17.8062 31.25 18.75 31.25C24.6219 31.25 30.2078 33.8047 34.075 38.2562L34.8422 39.1391L33.0031 41.9984C34.9203 44.8406 35.9375 48.1203 35.9375 51.5625C35.9375 54.025 35.4078 56.3625 34.4719 58.4813C35.5453 58.8594 36.6469 59.2562 37.8125 59.6812C45.0562 62.3297 54.0734 65.625 64.0625 65.625C80.8922 65.625 95.3125 57.8937 95.3125 51.5625C95.3125 43.8078 89.0047 37.5 81.25 37.5ZM43.75 45.3125C42.0234 45.3125 40.625 43.9141 40.625 42.1875C40.625 40.4609 42.0234 39.0625 43.75 39.0625C45.4765 39.0625 46.875 40.4609 46.875 42.1875C46.875 43.9141 45.4765 45.3125 43.75 45.3125ZM64.0625 56.25C57.8125 56.25 50 53.125 50 50C50 46.875 56.25 45.3125 56.25 45.3125H81.25C84.4312 45.3125 87.0672 47.7016 87.4515 50.7812C85.5109 53.0422 76.7578 56.25 64.0625 56.25Z" fill="#252525"/>
<path d="M18.75 65.625C26.5047 65.625 32.8125 59.3172 32.8125 51.5625C32.8125 49.2125 32.2359 46.9516 31.1313 44.9141L26.5078 52.1062C26.2219 56.1562 22.8719 59.375 18.75 59.375C14.6281 59.375 11.2781 56.1562 10.9922 52.1062L6.36875 44.9141C5.26406 46.9516 4.6875 49.2125 4.6875 51.5625C4.6875 59.3172 10.9953 65.625 18.75 65.625Z" fill="#252525"/>
<path d="M7.8125 64.8109V76.5625H85.9375V64.4796C79.8516 67.1031 72.1203 68.75 64.0625 68.75C53.5203 68.75 44.2156 65.3484 36.7391 62.6156C35.4016 62.1281 34.1453 61.675 32.9312 61.2546C29.8313 65.775 24.6328 68.75 18.75 68.75C14.5984 68.75 10.7859 67.2703 7.8125 64.8109Z" fill="#252525"/>
</svg>
