<svg width="90" height="94" viewBox="0 0 90 94" fill="none" xmlns="http://www.w3.org/2000/svg">
<g clip-path="url(#clip0_0_68)">
<path d="M9.73471 81.4933H25.033L9.73471 66.5149V81.4933Z" fill="#252525"/>
<path d="M25.4161 42.8554C25.4161 48.8774 34.777 59.0642 39.5711 63.6524C44.3702 59.0642 53.726 48.8774 53.726 42.8554C53.726 39.1111 52.2347 35.5201 49.5801 32.8724C46.9256 30.2247 43.3252 28.7373 39.5711 28.7373C35.817 28.7373 32.2166 30.2247 29.562 32.8724C26.9075 35.5201 25.4161 39.1111 25.4161 42.8554ZM49.9884 42.6637C49.9887 44.7187 49.378 46.7277 48.2335 48.4366C47.0891 50.1455 45.4622 51.4775 43.5588 52.2641C41.6553 53.0508 39.5607 53.2568 37.5398 52.8561C35.5189 52.4554 33.6626 51.4659 32.2055 50.0129C30.7485 48.5599 29.7562 46.7085 29.3541 44.693C28.952 42.6774 29.1582 40.5882 29.9466 38.6896C30.735 36.7909 32.0702 35.1681 33.7834 34.0263C35.4965 32.8846 37.5107 32.2752 39.5711 32.2752C42.3327 32.2783 44.9803 33.3737 46.9332 35.3212C48.8861 37.2687 49.9848 39.9093 49.9884 42.6637Z" fill="#252525"/>
<path d="M0.304108 26.2514H8.06358C8.50691 26.2514 8.93209 26.4271 9.24557 26.7397C9.55905 27.0524 9.73516 27.4765 9.73516 27.9186V61.8418L29.8075 81.4934H48.902C52.0511 76.9718 56.5938 73.5988 61.84 71.8868C58.9101 70.1865 56.6192 67.5759 55.3177 64.4541C54.0163 61.3323 53.7759 57.8712 54.6333 54.6003C55.4907 51.3293 57.3987 48.4285 60.0656 46.3415C62.7324 44.2545 66.0112 43.0962 69.4005 43.0437V27.9186C69.4005 27.4765 69.5767 27.0524 69.8901 26.7397C70.2036 26.4271 70.6288 26.2514 71.0721 26.2514H78.8316L39.5679 -0.105835L0.304108 26.2514ZM57.066 42.8553C57.066 48.2872 51.9359 55.2445 47.3908 60.3613C48.6496 60.8909 49.7383 61.7552 50.5383 62.8597C51.3383 63.9643 51.8188 65.2667 51.9275 66.625C51.9275 71.1566 46.4982 74.7061 39.5679 74.7061C32.6375 74.7061 27.2082 71.1566 27.2082 66.625C27.3168 65.2665 27.7975 63.9638 28.5979 62.8592C29.3982 61.7546 30.4874 60.8905 31.7465 60.3613C27.1998 55.2512 22.0698 48.2938 22.0698 42.8553C22.0698 38.2266 23.9133 33.7875 27.1948 30.5145C30.4764 27.2415 34.9271 25.4028 39.5679 25.4028C44.2086 25.4028 48.6594 27.2415 51.9409 30.5145C55.2224 33.7875 57.066 38.2266 57.066 42.8553Z" fill="#252525"/>
<path d="M39.5675 49.7177C43.4735 49.7177 46.64 46.5595 46.64 42.6637C46.64 38.7678 43.4735 35.6096 39.5675 35.6096C35.6615 35.6096 32.4951 38.7678 32.4951 42.6637C32.4951 46.5595 35.6615 49.7177 39.5675 49.7177Z" fill="#252525"/>
<path d="M69.6158 46.3616C66.3857 46.3395 63.2791 47.5981 60.9794 49.8606C58.6797 52.123 57.3752 55.204 57.3531 58.4257C57.3309 61.6474 58.5928 64.7459 60.8612 67.0396C63.1295 69.3334 66.2185 70.6344 69.4486 70.6565H69.6158C69.6158 70.6565 69.7144 70.6648 69.7629 70.6648C72.9718 70.6135 76.0306 69.3011 78.2748 67.0129C80.519 64.7247 81.7671 61.6456 81.748 58.4448C81.7288 55.2439 80.4439 52.1799 78.1725 49.9186C75.9011 47.6573 72.8267 46.3814 69.6175 46.3683L69.6158 46.3616Z" fill="#252525"/>
<path d="M85.1251 80.4063C83.112 78.3833 80.7191 76.7756 78.083 75.6751C75.4469 74.5746 72.6193 74.0028 69.7616 73.9925C69.7131 73.9925 69.6646 73.9925 69.6162 73.9925C69.5677 73.9925 69.5075 73.9925 69.449 73.9841C65.1966 74.0248 61.0477 75.2978 57.5076 77.6481C53.9676 79.9985 51.189 83.3248 49.5104 87.2219C55.3884 91.3677 62.4099 93.595 69.609 93.5973C76.8082 93.5997 83.8312 91.3771 89.7119 87.2353C88.6474 84.6806 87.0888 82.3601 85.1251 80.4063Z" fill="#252525"/>
<path d="M40.6926 67.1686C40.3848 67.4479 39.9837 67.6027 39.5676 67.6027C39.1515 67.6027 38.7504 67.4479 38.4426 67.1686C37.9412 66.7068 36.2228 65.1246 34.0965 62.9038C31.9134 63.8291 30.5528 65.2379 30.5528 66.6184C30.5528 68.8642 34.2553 71.365 39.5693 71.365C44.8832 71.365 48.5858 68.8642 48.5858 66.6184C48.5858 65.2296 47.2251 63.8291 45.042 62.9038C42.9124 65.1246 41.2007 66.7068 40.6926 67.1686Z" fill="#252525"/>
</g>
<defs>
<clipPath id="clip0_0_68">
<rect width="90" height="94" fill="white"/>
</clipPath>
</defs>
</svg>
