<svg width="31" height="32" viewBox="0 0 31 32" fill="none" xmlns="http://www.w3.org/2000/svg">
<path d="M8.63997 26.9501L9.10618 27.2313C11.0558 28.4251 13.296 29.0563 15.5726 29.0563H15.5786C22.5839 29.0563 28.2814 23.1751 28.2874 15.9438C28.2874 12.4376 26.9675 9.14385 24.5698 6.66885C22.1904 4.2001 18.9572 2.8126 15.5847 2.8251C8.57336 2.8251 2.8759 8.70635 2.86985 15.9376C2.86379 18.4063 3.54192 20.8251 4.8134 22.9188L5.11614 23.4126L3.83254 28.2501L8.63997 26.9501ZM0.157349 32.0001L2.32493 23.8251C0.992895 21.4313 0.284497 18.7188 0.290552 15.9376C0.290552 7.2376 7.15051 0.162598 15.5786 0.162598C19.6656 0.162598 23.5042 1.80635 26.3923 4.7876C29.2804 7.76885 30.8667 11.7313 30.8667 15.9501C30.8607 24.6501 24.0068 31.7251 15.5786 31.7251H15.5726C13.0114 31.7251 10.4988 31.0626 8.26458 29.8063L0.157349 32.0001Z" fill="#B3B3B3"/>
<path d="M0 31.8375L2.17363 23.6625C0.829492 21.2625 0.127148 18.5437 0.133203 15.775C0.133203 7.075 6.99316 0 15.4213 0C19.5082 0 23.3469 1.64375 26.235 4.625C29.123 7.60625 30.7094 11.5688 30.7094 15.7875C30.7033 24.4875 23.8434 31.5625 15.4213 31.5625H15.4152C12.8541 31.5625 10.3414 30.9 8.10723 29.6437L0 31.8375Z" fill="white"/>
<path d="M15.4213 2.66262C8.40994 2.66262 2.71248 8.54387 2.70642 15.7751C2.70642 18.2439 3.38455 20.6626 4.65603 22.7564L4.95876 23.2501L3.67517 28.0876L8.48259 26.7876L8.9488 27.0689C10.8984 28.2626 13.1386 28.8939 15.4152 28.8939H15.4213C22.4265 28.8939 28.124 23.0126 28.1301 15.7814C28.1422 12.3001 26.8041 8.96262 24.4125 6.50637C22.033 4.04387 18.7937 2.65637 15.4213 2.66262Z" fill="url(#paint0_linear_17_147)"/>
<path fill-rule="evenodd" clip-rule="evenodd" d="M11.6007 9.18115C11.3162 8.5249 11.0134 8.5124 10.741 8.4999L10.0083 8.49365C9.75405 8.49365 9.34233 8.59365 8.99116 8.9874C8.63999 9.38115 7.65308 10.3374 7.65308 12.2749C7.65308 14.2124 9.02144 16.0874 9.21519 16.3499C9.40894 16.6124 11.855 20.7187 15.7421 22.2999C18.9693 23.6124 19.6232 23.3499 20.3255 23.2874C21.0279 23.2187 22.5839 22.3312 22.9048 21.4124C23.2257 20.4937 23.2257 19.6999 23.1289 19.5374C23.032 19.3749 22.7777 19.2749 22.3962 19.0749C22.0148 18.8749 20.1378 17.9249 19.7867 17.7937C19.4355 17.6624 19.1812 17.5937 18.9269 17.9937C18.6726 18.3874 17.94 19.2749 17.716 19.5374C17.4919 19.7999 17.2679 19.8312 16.8865 19.6374C16.505 19.4374 15.2759 19.0249 13.8167 17.6812C12.6785 16.6374 11.9156 15.3437 11.6916 14.9499C11.4675 14.5562 11.6673 14.3437 11.8611 14.1437C12.0306 13.9687 12.2425 13.6812 12.4363 13.4499C12.63 13.2187 12.6906 13.0562 12.8177 12.7937C12.9449 12.5312 12.8843 12.2999 12.7875 12.0999C12.6785 11.9124 11.9398 9.9624 11.6007 9.18115Z" fill="white"/>
<defs>
<linearGradient id="paint0_linear_17_147" x1="15.3521" y1="4.23831" x2="15.4894" y2="26.6577" gradientUnits="userSpaceOnUse">
<stop stop-color="#57D163"/>
<stop offset="1" stop-color="#23B33A"/>
</linearGradient>
</defs>
</svg>
