<svg width="21" height="21" viewBox="0 0 21 21" fill="none" xmlns="http://www.w3.org/2000/svg">
<path d="M0.102572 20.4615V18.4615H4.00002L3.03076 17.5333C1.93504 16.5196 1.15598 15.385 0.693589 14.1294C0.231196 12.8739 0 11.6051 0 10.323C0 8.01879 0.674782 5.95256 2.02434 4.12436C3.37391 2.29616 5.14355 1.04103 7.33328 0.358976V2.46662C5.72474 3.09568 4.43371 4.12603 3.46021 5.55765C2.4867 6.98928 1.99995 8.57775 1.99995 10.323C1.99995 11.3658 2.19739 12.3786 2.59226 13.3615C2.98713 14.3444 3.60167 15.253 4.43586 16.0872L5.28205 16.9334V13.282H7.282V20.4615H0.102572ZM13.3333 20.1025V17.9949C14.9419 17.3658 16.2329 16.3354 17.2064 14.9038C18.1799 13.4722 18.6667 11.8837 18.6667 10.1384C18.6667 9.09569 18.4692 8.08287 18.0744 7.09996C17.6795 6.11705 17.065 5.2085 16.2308 4.37431L15.3846 3.52812V7.17943H13.3846V0H20.564V1.99995H16.6666L17.6359 2.92819C18.6906 3.98289 19.4594 5.12776 19.9423 6.3628C20.4252 7.59784 20.6666 8.85638 20.6666 10.1384C20.6666 12.4427 19.9918 14.5089 18.6423 16.3371C17.2927 18.1653 15.5231 19.4204 13.3333 20.1025Z" fill="#442A22"/>
</svg>
